G04 Layer_Physical_Order=2*
G04 Layer_Color=32768*
%FSLAX25Y25*%
%MOIN*%
G70*
G01*
G75*
%ADD28C,0.04000*%
%ADD29C,0.07543*%
%ADD30C,0.07543*%
%ADD31C,0.05500*%
%ADD32C,0.05800*%
G36*
X50984Y55315D02*
X52756Y53543D01*
X91732Y53543D01*
Y46457D01*
X65551Y46457D01*
X61220Y42126D01*
X50984Y42126D01*
X50984Y0D01*
X24606D01*
Y101181D01*
X50984D01*
Y55315D01*
D02*
G37*
D28*
X0Y0D02*
X92126D01*
Y101181D01*
X0D02*
X92126D01*
X0Y0D02*
Y101181D01*
D29*
X85039Y9646D02*
D03*
X66339Y55709D02*
D03*
X8898Y80709D02*
D03*
X18898Y90709D02*
D03*
X8898D02*
D03*
X56339Y94685D02*
D03*
X57284Y11220D02*
D03*
D30*
X92126Y56496D02*
D03*
Y64370D02*
D03*
X92126Y16732D02*
D03*
Y24606D02*
D03*
D31*
X53740Y67205D02*
D03*
X59449D02*
D03*
X56496Y67165D02*
D03*
X53740Y42205D02*
D03*
X59449D02*
D03*
X56496Y42165D02*
D03*
X18996Y67205D02*
D03*
Y62205D02*
D03*
X88386Y61811D02*
D03*
X85827D02*
D03*
Y66929D02*
D03*
X88386D02*
D03*
X85827Y64370D02*
D03*
X88386D02*
D03*
X88386Y22047D02*
D03*
X85827D02*
D03*
Y27165D02*
D03*
X88386D02*
D03*
X85827Y24606D02*
D03*
X88386D02*
D03*
X11220Y58071D02*
D03*
X21850Y57284D02*
D03*
X19094D02*
D03*
X16142D02*
D03*
X21850Y32283D02*
D03*
X19094D02*
D03*
X16142D02*
D03*
D32*
X54055Y86614D02*
D03*
X53976Y80512D02*
D03*
X54646Y25984D02*
D03*
X54843Y19291D02*
D03*
M02*
