G04 Layer_Color=8388736*
%FSLAX25Y25*%
%MOIN*%
G70*
G01*
G75*
%ADD13R,0.03268X0.03268*%
%ADD40R,0.04343X0.04540*%
%ADD41R,0.04343X0.04540*%
%ADD42R,0.04147X0.04800*%
%ADD43R,0.04800X0.04147*%
%ADD44R,0.04461X0.04658*%
%ADD45R,0.08800X0.03000*%
%ADD46C,0.06312*%
G04:AMPARAMS|DCode=47|XSize=53mil|YSize=58mil|CornerRadius=15.25mil|HoleSize=0mil|Usage=FLASHONLY|Rotation=0.000|XOffset=0mil|YOffset=0mil|HoleType=Round|Shape=RoundedRectangle|*
%AMROUNDEDRECTD47*
21,1,0.05300,0.02750,0,0,0.0*
21,1,0.02250,0.05800,0,0,0.0*
1,1,0.03050,0.01125,-0.01375*
1,1,0.03050,-0.01125,-0.01375*
1,1,0.03050,-0.01125,0.01375*
1,1,0.03050,0.01125,0.01375*
%
%ADD47ROUNDEDRECTD47*%
%ADD48C,0.06706*%
%ADD49R,0.06706X0.06706*%
%ADD50R,0.06706X0.06706*%
%ADD51C,0.03500*%
%ADD52C,0.03100*%
D13*
X86083Y77165D02*
D03*
X77165D02*
D03*
X86024Y37598D02*
D03*
X77106D02*
D03*
D40*
X76378Y16740D02*
D03*
X80118Y25992D02*
D03*
X76181Y56898D02*
D03*
X79921Y66150D02*
D03*
D41*
X83858Y16740D02*
D03*
X83662Y56898D02*
D03*
D42*
X83071Y32087D02*
D03*
X77165D02*
D03*
X83071Y71653D02*
D03*
X77165D02*
D03*
Y82677D02*
D03*
X83071D02*
D03*
X71653Y62205D02*
D03*
X65748D02*
D03*
X72441Y71653D02*
D03*
X66535D02*
D03*
X77165Y43110D02*
D03*
X83071D02*
D03*
X71850Y23228D02*
D03*
X65945D02*
D03*
X72441Y32087D02*
D03*
X66535D02*
D03*
D43*
X66535Y76575D02*
D03*
Y82480D02*
D03*
X66535Y37008D02*
D03*
Y42913D02*
D03*
X11811Y41732D02*
D03*
Y35827D02*
D03*
Y46654D02*
D03*
Y52559D02*
D03*
D44*
X5039Y58071D02*
D03*
X11102D02*
D03*
X60118Y86614D02*
D03*
X54055D02*
D03*
X60039Y80512D02*
D03*
X53976D02*
D03*
X60905Y19291D02*
D03*
X54843D02*
D03*
X60709Y25984D02*
D03*
X54646D02*
D03*
D45*
X18996Y62205D02*
D03*
Y57205D02*
D03*
Y52205D02*
D03*
Y47205D02*
D03*
Y42205D02*
D03*
Y37205D02*
D03*
Y32205D02*
D03*
X56496Y62205D02*
D03*
X18996Y67205D02*
D03*
X56496Y37205D02*
D03*
Y42205D02*
D03*
Y47205D02*
D03*
Y52205D02*
D03*
Y57205D02*
D03*
Y32205D02*
D03*
Y67205D02*
D03*
D46*
X85039Y9646D02*
D03*
X66339Y55709D02*
D03*
X57677Y74410D02*
D03*
X76772Y10039D02*
D03*
D47*
X92126Y56496D02*
D03*
Y64370D02*
D03*
X92126Y16732D02*
D03*
Y24606D02*
D03*
D48*
X18898Y80709D02*
D03*
X8898D02*
D03*
X18898Y90709D02*
D03*
X56339Y94685D02*
D03*
X57284Y11220D02*
D03*
D49*
X8898Y90709D02*
D03*
D50*
X66339Y94685D02*
D03*
X67283Y11220D02*
D03*
D51*
X11811Y52559D02*
D03*
Y35827D02*
D03*
X5118Y58071D02*
D03*
D52*
X53740Y67205D02*
D03*
X59449D02*
D03*
X56496Y67165D02*
D03*
X53740Y57205D02*
D03*
X59449D02*
D03*
X56496Y57165D02*
D03*
X53740Y42205D02*
D03*
X59449D02*
D03*
X56496Y42165D02*
D03*
X53740Y32205D02*
D03*
X59449D02*
D03*
X56496Y32165D02*
D03*
X80709Y67126D02*
D03*
X78740D02*
D03*
Y65157D02*
D03*
X80709D02*
D03*
X79331Y25016D02*
D03*
X81299D02*
D03*
Y26984D02*
D03*
X79331D02*
D03*
X87598Y82480D02*
D03*
X82874D02*
D03*
X87598Y77559D02*
D03*
X85236D02*
D03*
Y82480D02*
D03*
X87598Y84842D02*
D03*
X82874D02*
D03*
X85827Y40551D02*
D03*
X86024Y43307D02*
D03*
X83268Y40551D02*
D03*
X88583Y40748D02*
D03*
Y38189D02*
D03*
Y43307D02*
D03*
X83071D02*
D03*
X86024Y37992D02*
D03*
X87795Y80118D02*
D03*
X82874D02*
D03*
X85433D02*
D03*
X85236Y84842D02*
D03*
X18996Y67205D02*
D03*
Y62205D02*
D03*
X88386Y61811D02*
D03*
X85827D02*
D03*
Y66929D02*
D03*
X88386D02*
D03*
X85827Y64370D02*
D03*
X88386D02*
D03*
X88386Y22047D02*
D03*
X85827D02*
D03*
Y27165D02*
D03*
X88386D02*
D03*
X85827Y24606D02*
D03*
X88386D02*
D03*
X66535Y82480D02*
D03*
Y42913D02*
D03*
X11220Y58071D02*
D03*
X21850Y57284D02*
D03*
X19094D02*
D03*
X16142D02*
D03*
X21850Y52165D02*
D03*
X19094D02*
D03*
X16142D02*
D03*
X21850Y32283D02*
D03*
X19094D02*
D03*
X16142D02*
D03*
X54055Y86614D02*
D03*
X53976Y80512D02*
D03*
X60118Y86614D02*
D03*
X60039Y80512D02*
D03*
X54646Y25984D02*
D03*
X54843Y19291D02*
D03*
X60709Y25984D02*
D03*
X60905Y19291D02*
D03*
M02*
