G04 Layer_Physical_Order=3*
G04 Layer_Color=128*
%FSLAX25Y25*%
%MOIN*%
G70*
G01*
G75*
%ADD28C,0.04000*%
%ADD29C,0.07543*%
%ADD30C,0.07543*%
%ADD31C,0.05500*%
%ADD32C,0.05800*%
%ADD33C,0.06000*%
G36*
X50984Y55315D02*
X52756Y53543D01*
X91732Y53543D01*
Y46457D01*
X65158Y46457D01*
X63779Y45079D01*
X50984Y45079D01*
X50984Y0D01*
X24606D01*
Y101181D01*
X50984D01*
Y55315D01*
D02*
G37*
D28*
X0Y0D02*
X92126D01*
Y101181D01*
X0D02*
X92126D01*
X0Y0D02*
Y101181D01*
D29*
X85039Y9646D02*
D03*
X66339Y55709D02*
D03*
X18898Y80709D02*
D03*
X8898D02*
D03*
Y90709D02*
D03*
X66339Y94685D02*
D03*
X67283Y11220D02*
D03*
X57677Y74410D02*
D03*
X76772Y10039D02*
D03*
D30*
X92126Y56496D02*
D03*
Y64370D02*
D03*
X92126Y16732D02*
D03*
Y24606D02*
D03*
D31*
X53740Y57205D02*
D03*
X59449D02*
D03*
X56496Y57165D02*
D03*
X53740Y32205D02*
D03*
X59449D02*
D03*
X56496Y32165D02*
D03*
X80709Y67126D02*
D03*
X78740D02*
D03*
Y65157D02*
D03*
X80709D02*
D03*
X79331Y25016D02*
D03*
X81299D02*
D03*
Y26984D02*
D03*
X79331D02*
D03*
X87598Y82480D02*
D03*
X82874D02*
D03*
X87598Y77559D02*
D03*
X85236D02*
D03*
Y82480D02*
D03*
X87598Y84842D02*
D03*
X82874D02*
D03*
X85827Y40551D02*
D03*
X86024Y43307D02*
D03*
X83268Y40551D02*
D03*
X88583Y40748D02*
D03*
Y38189D02*
D03*
Y43307D02*
D03*
X83071D02*
D03*
X86024Y37992D02*
D03*
X87795Y80118D02*
D03*
X82874D02*
D03*
X85433D02*
D03*
X85236Y84842D02*
D03*
X18996Y67205D02*
D03*
Y62205D02*
D03*
X88386Y61811D02*
D03*
X85827D02*
D03*
Y66929D02*
D03*
X88386D02*
D03*
X85827Y64370D02*
D03*
X88386D02*
D03*
X88386Y22047D02*
D03*
X85827D02*
D03*
Y27165D02*
D03*
X88386D02*
D03*
X85827Y24606D02*
D03*
X88386D02*
D03*
X66535Y82480D02*
D03*
Y42913D02*
D03*
X21850Y52165D02*
D03*
X19094D02*
D03*
X16142D02*
D03*
D32*
X60118Y86614D02*
D03*
X60039Y80512D02*
D03*
X60709Y25984D02*
D03*
X60905Y19291D02*
D03*
D33*
X11811Y52559D02*
D03*
Y35827D02*
D03*
X5118Y58071D02*
D03*
M02*
