M48
;Layer_Color=9474304
;FILE_FORMAT=2:5
INCH,LZ
;TYPE=PLATED
T1F00S00C0.01500
T2F00S00C0.01800
T3F00S00C0.02000
T4F00S00C0.03543
%
T01
X0016142Y0032283
X0019094
X002185
Y0052165
X0019094
X0016142
Y0057284
X0019094
X002185
X0018996Y0062205
Y0067205
X005374
X0056496Y0067165
X0059449Y0067205
Y0057205
X0056496Y0057165
X005374Y0057205
Y0042205
X0056496Y0042165
X0059449Y0042205
X0066535Y0042913
X0083071Y0043307
X0086024
X0088583
Y0040748
Y0038189
X0086024Y0037992
X0085827Y0040551
X0083268
X0081299Y0026984
Y0025016
X0079331
Y0026984
X0085827Y0027165
Y0024606
Y0022047
X0088386
Y0024606
Y0027165
X0059449Y0032205
X0056496Y0032165
X005374Y0032205
X007874Y0065157
Y0067126
X0080709
Y0065157
X0085827Y006437
Y0066929
X0088386
Y006437
Y0061811
X0085827
X0085236Y0077559
X0087598
X0087795Y0080118
X0085433
X0082874
Y008248
X0085236
X0087598
X0066535Y008248
X001122Y0058071
X0082874Y0084842
X0085236
X0087598
T02
X0054843Y0019291
X0060905
X0060709Y0025984
X0054646
X0053976Y0080512
X0060039
X0060118Y0086614
X0054055
T03
X0011811Y0035827
Y0052559
X0005118Y0058071
T04
X0057284Y001122
X0067283
X0076772Y0010039
X0085039Y0009646
X0092126Y0016732
Y0024606
X0092126Y0056496
Y006437
X0066339Y0055709
X0057677Y007441
X0018898Y0080709
X0008898
Y0090709
X0018898
X0056339Y0094685
X0066339
M30
