G04 Layer_Color=2752767*
%FSLAX25Y25*%
%MOIN*%
G70*
G01*
G75*
%ADD36C,0.01000*%
%ADD37C,0.00500*%
%ADD53C,0.01600*%
D36*
X105967Y55361D02*
X104967Y56360D01*
X102968D01*
X101969Y55361D01*
Y51362D01*
X102968Y50362D01*
X104967D01*
X105967Y51362D01*
X158767Y56360D02*
X156768Y55361D01*
X154769Y53361D01*
Y51362D01*
X155768Y50362D01*
X157767D01*
X158767Y51362D01*
Y52362D01*
X157767Y53361D01*
X154769D01*
X164765Y56360D02*
X160767D01*
Y53361D01*
X162766Y54361D01*
X163766D01*
X164765Y53361D01*
Y51362D01*
X163766Y50362D01*
X161766D01*
X160767Y51362D01*
X224350Y50362D02*
X226349D01*
X225349D01*
Y56360D01*
X224350Y55361D01*
X233347Y56360D02*
X229348D01*
Y53361D01*
X231348Y54361D01*
X232347D01*
X233347Y53361D01*
Y51362D01*
X232347Y50362D01*
X230348D01*
X229348Y51362D01*
X235346Y50362D02*
Y54361D01*
X236346D01*
X237346Y53361D01*
Y50362D01*
Y53361D01*
X238345Y54361D01*
X239345Y53361D01*
Y50362D01*
X241344D02*
X243344D01*
X242344D01*
Y54361D01*
X241344D01*
X246343Y50362D02*
X248342D01*
X247342D01*
Y56360D01*
X246343D01*
X259338Y50362D02*
X257339Y52362D01*
Y54361D01*
X259338Y56360D01*
X262338Y55361D02*
X263337Y56360D01*
X265337D01*
X266336Y55361D01*
Y51362D01*
X265337Y50362D01*
X263337D01*
X262338Y51362D01*
Y55361D01*
X268336Y50362D02*
Y51362D01*
X269335D01*
Y50362D01*
X268336D01*
X273334Y55361D02*
X274334Y56360D01*
X276333D01*
X277333Y55361D01*
Y54361D01*
X276333Y53361D01*
X275333D01*
X276333D01*
X277333Y52362D01*
Y51362D01*
X276333Y50362D01*
X274334D01*
X273334Y51362D01*
X279332Y55361D02*
X280332Y56360D01*
X282331D01*
X283331Y55361D01*
Y54361D01*
X282331Y53361D01*
X283331Y52362D01*
Y51362D01*
X282331Y50362D01*
X280332D01*
X279332Y51362D01*
Y52362D01*
X280332Y53361D01*
X279332Y54361D01*
Y55361D01*
X280332Y53361D02*
X282331D01*
X285330Y50362D02*
X287330D01*
X286330D01*
Y56360D01*
X285330Y55361D01*
X290329Y50362D02*
Y54361D01*
X291328D01*
X292328Y53361D01*
Y50362D01*
Y53361D01*
X293327Y54361D01*
X294327Y53361D01*
Y50362D01*
X296327D02*
Y54361D01*
X297326D01*
X298326Y53361D01*
Y50362D01*
Y53361D01*
X299326Y54361D01*
X300325Y53361D01*
Y50362D01*
X302325D02*
X304324Y52362D01*
Y54361D01*
X302325Y56360D01*
X358710Y50362D02*
Y56360D01*
X361709D01*
X362709Y55361D01*
Y53361D01*
X361709Y52362D01*
X358710D01*
X364708Y56360D02*
X368707D01*
X366708D01*
Y50362D01*
X370706Y56360D02*
Y50362D01*
Y53361D01*
X374705D01*
Y56360D01*
Y50362D01*
X409098D02*
Y56360D01*
X412097D01*
X413097Y55361D01*
Y53361D01*
X412097Y52362D01*
X409098D01*
X411097D02*
X413097Y50362D01*
X416096D02*
X418095D01*
X419095Y51362D01*
Y53361D01*
X418095Y54361D01*
X416096D01*
X415096Y53361D01*
Y51362D01*
X416096Y50362D01*
X421094Y54361D02*
Y51362D01*
X422094Y50362D01*
X425093D01*
Y54361D01*
X427092Y50362D02*
Y54361D01*
X430091D01*
X431091Y53361D01*
Y50362D01*
X437089Y56360D02*
Y50362D01*
X434090D01*
X433090Y51362D01*
Y53361D01*
X434090Y54361D01*
X437089D01*
X101969Y44360D02*
Y38362D01*
X104967D01*
X105967Y39362D01*
Y43361D01*
X104967Y44360D01*
X101969D01*
X154769Y43361D02*
X155768Y44360D01*
X157767D01*
X158767Y43361D01*
Y42361D01*
X157767Y41361D01*
X158767Y40361D01*
Y39362D01*
X157767Y38362D01*
X155768D01*
X154769Y39362D01*
Y40361D01*
X155768Y41361D01*
X154769Y42361D01*
Y43361D01*
X155768Y41361D02*
X157767D01*
X224350Y38362D02*
X226349D01*
X225349D01*
Y44360D01*
X224350Y43361D01*
X229348D02*
X230348Y44360D01*
X232347D01*
X233347Y43361D01*
Y42361D01*
X232347Y41361D01*
X233347Y40361D01*
Y39362D01*
X232347Y38362D01*
X230348D01*
X229348Y39362D01*
Y40361D01*
X230348Y41361D01*
X229348Y42361D01*
Y43361D01*
X230348Y41361D02*
X232347D01*
X235346Y38362D02*
Y42361D01*
X236346D01*
X237346Y41361D01*
Y38362D01*
Y41361D01*
X238345Y42361D01*
X239345Y41361D01*
Y38362D01*
X241344D02*
X243344D01*
X242344D01*
Y42361D01*
X241344D01*
X246343Y38362D02*
X248342D01*
X247342D01*
Y44360D01*
X246343D01*
X259338Y38362D02*
X257339Y40361D01*
Y42361D01*
X259338Y44360D01*
X262338Y43361D02*
X263337Y44360D01*
X265337D01*
X266336Y43361D01*
Y39362D01*
X265337Y38362D01*
X263337D01*
X262338Y39362D01*
Y43361D01*
X268336Y38362D02*
Y39362D01*
X269335D01*
Y38362D01*
X268336D01*
X276333D02*
Y44360D01*
X273334Y41361D01*
X277333D01*
X283331Y44360D02*
X279332D01*
Y41361D01*
X281331Y42361D01*
X282331D01*
X283331Y41361D01*
Y39362D01*
X282331Y38362D01*
X280332D01*
X279332Y39362D01*
X285330Y44360D02*
X289329D01*
Y43361D01*
X285330Y39362D01*
Y38362D01*
X295327D02*
X291328D01*
X295327Y42361D01*
Y43361D01*
X294327Y44360D01*
X292328D01*
X291328Y43361D01*
X297326Y38362D02*
Y42361D01*
X298326D01*
X299326Y41361D01*
Y38362D01*
Y41361D01*
X300325Y42361D01*
X301325Y41361D01*
Y38362D01*
X303324D02*
Y42361D01*
X304324D01*
X305324Y41361D01*
Y38362D01*
Y41361D01*
X306323Y42361D01*
X307323Y41361D01*
Y38362D01*
X309322D02*
X311322Y40361D01*
Y42361D01*
X309322Y44360D01*
X358710Y38362D02*
Y44360D01*
X361709D01*
X362709Y43361D01*
Y41361D01*
X361709Y40361D01*
X358710D01*
X364708Y44360D02*
X368707D01*
X366708D01*
Y38362D01*
X370706Y44360D02*
Y38362D01*
Y41361D01*
X374705D01*
Y44360D01*
Y38362D01*
X409098D02*
Y44360D01*
X412097D01*
X413097Y43361D01*
Y41361D01*
X412097Y40361D01*
X409098D01*
X411097D02*
X413097Y38362D01*
X416096D02*
X418095D01*
X419095Y39362D01*
Y41361D01*
X418095Y42361D01*
X416096D01*
X415096Y41361D01*
Y39362D01*
X416096Y38362D01*
X421094Y42361D02*
Y39362D01*
X422094Y38362D01*
X425093D01*
Y42361D01*
X427092Y38362D02*
Y42361D01*
X430091D01*
X431091Y41361D01*
Y38362D01*
X437089Y44360D02*
Y38362D01*
X434090D01*
X433090Y39362D01*
Y41361D01*
X434090Y42361D01*
X437089D01*
X101969Y32360D02*
Y26362D01*
X104967D01*
X105967Y27362D01*
Y28361D01*
X104967Y29361D01*
X101969D01*
X104967D01*
X105967Y30361D01*
Y31361D01*
X104967Y32360D01*
X101969D01*
X154769Y31361D02*
X155768Y32360D01*
X157767D01*
X158767Y31361D01*
Y30361D01*
X157767Y29361D01*
X156768D01*
X157767D01*
X158767Y28361D01*
Y27362D01*
X157767Y26362D01*
X155768D01*
X154769Y27362D01*
X228349Y26362D02*
X224350D01*
X228349Y30361D01*
Y31361D01*
X227349Y32360D01*
X225349D01*
X224350Y31361D01*
X230348D02*
X231348Y32360D01*
X233347D01*
X234347Y31361D01*
Y27362D01*
X233347Y26362D01*
X231348D01*
X230348Y27362D01*
Y31361D01*
X236346Y26362D02*
Y30361D01*
X237346D01*
X238345Y29361D01*
Y26362D01*
Y29361D01*
X239345Y30361D01*
X240345Y29361D01*
Y26362D01*
X242344D02*
X244343D01*
X243344D01*
Y30361D01*
X242344D01*
X247342Y26362D02*
X249342D01*
X248342D01*
Y32360D01*
X247342D01*
X260338Y26362D02*
X258339Y28361D01*
Y30361D01*
X260338Y32360D01*
X263337Y31361D02*
X264337Y32360D01*
X266336D01*
X267336Y31361D01*
Y27362D01*
X266336Y26362D01*
X264337D01*
X263337Y27362D01*
Y31361D01*
X269335Y26362D02*
Y27362D01*
X270335D01*
Y26362D01*
X269335D01*
X278332Y32360D02*
X274334D01*
Y29361D01*
X276333Y30361D01*
X277333D01*
X278332Y29361D01*
Y27362D01*
X277333Y26362D01*
X275333D01*
X274334Y27362D01*
X280332Y31361D02*
X281331Y32360D01*
X283331D01*
X284331Y31361D01*
Y27362D01*
X283331Y26362D01*
X281331D01*
X280332Y27362D01*
Y31361D01*
X286330D02*
X287330Y32360D01*
X289329D01*
X290329Y31361D01*
Y30361D01*
X289329Y29361D01*
X290329Y28361D01*
Y27362D01*
X289329Y26362D01*
X287330D01*
X286330Y27362D01*
Y28361D01*
X287330Y29361D01*
X286330Y30361D01*
Y31361D01*
X287330Y29361D02*
X289329D01*
X292328Y26362D02*
Y30361D01*
X293327D01*
X294327Y29361D01*
Y26362D01*
Y29361D01*
X295327Y30361D01*
X296327Y29361D01*
Y26362D01*
X298326D02*
Y30361D01*
X299326D01*
X300325Y29361D01*
Y26362D01*
Y29361D01*
X301325Y30361D01*
X302325Y29361D01*
Y26362D01*
X304324D02*
X306323Y28361D01*
Y30361D01*
X304324Y32360D01*
X358710Y26362D02*
Y32360D01*
X361709D01*
X362709Y31361D01*
Y29361D01*
X361709Y28361D01*
X358710D01*
X364708Y32360D02*
X368707D01*
X366708D01*
Y26362D01*
X370706Y32360D02*
Y26362D01*
Y29361D01*
X374705D01*
Y32360D01*
Y26362D01*
X409098D02*
Y32360D01*
X412097D01*
X413097Y31361D01*
Y29361D01*
X412097Y28361D01*
X409098D01*
X411097D02*
X413097Y26362D01*
X416096D02*
X418095D01*
X419095Y27362D01*
Y29361D01*
X418095Y30361D01*
X416096D01*
X415096Y29361D01*
Y27362D01*
X416096Y26362D01*
X421094Y30361D02*
Y27362D01*
X422094Y26362D01*
X425093D01*
Y30361D01*
X427092Y26362D02*
Y30361D01*
X430091D01*
X431091Y29361D01*
Y26362D01*
X437089Y32360D02*
Y26362D01*
X434090D01*
X433090Y27362D01*
Y29361D01*
X434090Y30361D01*
X437089D01*
X101969Y14362D02*
Y18361D01*
X103968Y20360D01*
X105967Y18361D01*
Y14362D01*
Y17361D01*
X101969D01*
X154769Y14362D02*
X156768D01*
X155768D01*
Y20360D01*
X154769Y19361D01*
X163766Y20360D02*
X161766Y19361D01*
X159767Y17361D01*
Y15362D01*
X160767Y14362D01*
X162766D01*
X163766Y15362D01*
Y16362D01*
X162766Y17361D01*
X159767D01*
X224350Y19361D02*
X225349Y20360D01*
X227349D01*
X228349Y19361D01*
Y18361D01*
X227349Y17361D01*
X226349D01*
X227349D01*
X228349Y16362D01*
Y15362D01*
X227349Y14362D01*
X225349D01*
X224350Y15362D01*
X234347Y20360D02*
X230348D01*
Y17361D01*
X232347Y18361D01*
X233347D01*
X234347Y17361D01*
Y15362D01*
X233347Y14362D01*
X231348D01*
X230348Y15362D01*
X236346Y14362D02*
Y15362D01*
X237346D01*
Y14362D01*
X236346D01*
X244343D02*
Y20360D01*
X241344Y17361D01*
X245343D01*
X247342Y19361D02*
X248342Y20360D01*
X250341D01*
X251341Y19361D01*
Y18361D01*
X250341Y17361D01*
X249342D01*
X250341D01*
X251341Y16362D01*
Y15362D01*
X250341Y14362D01*
X248342D01*
X247342Y15362D01*
X253341Y19361D02*
X254340Y20360D01*
X256340D01*
X257339Y19361D01*
Y18361D01*
X256340Y17361D01*
X255340D01*
X256340D01*
X257339Y16362D01*
Y15362D01*
X256340Y14362D01*
X254340D01*
X253341Y15362D01*
X259338Y14362D02*
Y18361D01*
X260338D01*
X261338Y17361D01*
Y14362D01*
Y17361D01*
X262338Y18361D01*
X263337Y17361D01*
Y14362D01*
X265337D02*
X267336D01*
X266336D01*
Y18361D01*
X265337D01*
X270335Y14362D02*
X272334D01*
X271335D01*
Y20360D01*
X270335D01*
X283331Y14362D02*
X281331Y16362D01*
Y18361D01*
X283331Y20360D01*
X286330Y19361D02*
X287330Y20360D01*
X289329D01*
X290329Y19361D01*
Y15362D01*
X289329Y14362D01*
X287330D01*
X286330Y15362D01*
Y19361D01*
X292328Y14362D02*
Y15362D01*
X293327D01*
Y14362D01*
X292328D01*
X297326Y15362D02*
X298326Y14362D01*
X300325D01*
X301325Y15362D01*
Y19361D01*
X300325Y20360D01*
X298326D01*
X297326Y19361D01*
Y18361D01*
X298326Y17361D01*
X301325D01*
X303324Y14362D02*
Y18361D01*
X304324D01*
X305324Y17361D01*
Y14362D01*
Y17361D01*
X306323Y18361D01*
X307323Y17361D01*
Y14362D01*
X309322D02*
Y18361D01*
X310322D01*
X311322Y17361D01*
Y14362D01*
Y17361D01*
X312321Y18361D01*
X313321Y17361D01*
Y14362D01*
X315320D02*
X317320Y16362D01*
Y18361D01*
X315320Y20360D01*
X358710Y14362D02*
Y20360D01*
X361709D01*
X362709Y19361D01*
Y17361D01*
X361709Y16362D01*
X358710D01*
X364708Y20360D02*
X368707D01*
X366708D01*
Y14362D01*
X370706Y20360D02*
Y14362D01*
Y17361D01*
X374705D01*
Y20360D01*
Y14362D01*
X409098D02*
Y20360D01*
X412097D01*
X413097Y19361D01*
Y17361D01*
X412097Y16362D01*
X409098D01*
X411097D02*
X413097Y14362D01*
X416096D02*
X418095D01*
X419095Y15362D01*
Y17361D01*
X418095Y18361D01*
X416096D01*
X415096Y17361D01*
Y15362D01*
X416096Y14362D01*
X421094Y18361D02*
Y15362D01*
X422094Y14362D01*
X425093D01*
Y18361D01*
X427092Y14362D02*
Y18361D01*
X430091D01*
X431091Y17361D01*
Y14362D01*
X437089Y20360D02*
Y14362D01*
X434090D01*
X433090Y15362D01*
Y17361D01*
X434090Y18361D01*
X437089D01*
X154769Y3362D02*
X155768Y2362D01*
X157767D01*
X158767Y3362D01*
Y7361D01*
X157767Y8360D01*
X155768D01*
X154769Y7361D01*
Y6361D01*
X155768Y5361D01*
X158767D01*
X164765Y2362D02*
X160767D01*
X164765Y6361D01*
Y7361D01*
X163766Y8360D01*
X161766D01*
X160767Y7361D01*
X175565Y8360D02*
X179564D01*
X177565D01*
Y2362D01*
X182563D02*
X184562D01*
X185562Y3362D01*
Y5361D01*
X184562Y6361D01*
X182563D01*
X181563Y5361D01*
Y3362D01*
X182563Y2362D01*
X188561Y7361D02*
Y6361D01*
X187561D01*
X189561D01*
X188561D01*
Y3362D01*
X189561Y2362D01*
X193559Y6361D02*
X195559D01*
X196558Y5361D01*
Y2362D01*
X193559D01*
X192560Y3362D01*
X193559Y4361D01*
X196558D01*
X198558Y2362D02*
X200557D01*
X199557D01*
Y8360D01*
X198558D01*
D37*
X85039Y9646D02*
Y12978D01*
X86705Y14644D01*
X88372Y12978D01*
Y9646D01*
Y12145D01*
X85039D01*
X66339Y55709D02*
Y59041D01*
X68005Y60707D01*
X69671Y59041D01*
Y55709D01*
Y58208D01*
X66339D01*
X92126Y56496D02*
Y59828D01*
X93792Y61494D01*
X95458Y59828D01*
Y56496D01*
Y58995D01*
X92126D01*
Y64370D02*
Y67702D01*
X93792Y69368D01*
X95458Y67702D01*
Y64370D01*
Y66869D01*
X92126D01*
X92126Y16732D02*
Y20064D01*
X93792Y21731D01*
X95458Y20064D01*
Y16732D01*
Y19231D01*
X92126D01*
Y24606D02*
Y27939D01*
X93792Y29605D01*
X95458Y27939D01*
Y24606D01*
Y27106D01*
X92126D01*
X18898Y80709D02*
Y84041D01*
X20564Y85707D01*
X22230Y84041D01*
Y80709D01*
Y83208D01*
X18898D01*
X8898Y80709D02*
Y84041D01*
X10564Y85707D01*
X12230Y84041D01*
Y80709D01*
Y83208D01*
X8898D01*
X18898Y90709D02*
Y94041D01*
X20564Y95707D01*
X22230Y94041D01*
Y90709D01*
Y93208D01*
X18898D01*
X8898Y90709D02*
Y94041D01*
X10564Y95707D01*
X12230Y94041D01*
Y90709D01*
Y93208D01*
X8898D01*
X66339Y94685D02*
Y98017D01*
X68005Y99683D01*
X69671Y98017D01*
Y94685D01*
Y97184D01*
X66339D01*
X56339Y94685D02*
Y98017D01*
X58005Y99683D01*
X59671Y98017D01*
Y94685D01*
Y97184D01*
X56339D01*
X67283Y11220D02*
Y14553D01*
X68950Y16219D01*
X70616Y14553D01*
Y11220D01*
Y13720D01*
X67283D01*
X57284Y11220D02*
Y14553D01*
X58950Y16219D01*
X60616Y14553D01*
Y11220D01*
Y13720D01*
X57284D01*
X57677Y74410D02*
Y77742D01*
X59343Y79408D01*
X61009Y77742D01*
Y74410D01*
Y76909D01*
X57677D01*
X76772Y10039D02*
Y13372D01*
X78438Y15038D01*
X80104Y13372D01*
Y10039D01*
Y12539D01*
X76772D01*
X11811Y57557D02*
Y52559D01*
X14310D01*
X15143Y53392D01*
Y54225D01*
X14310Y55058D01*
X11811D01*
X14310D01*
X15143Y55891D01*
Y56724D01*
X14310Y57557D01*
X11811D01*
Y40825D02*
Y35827D01*
X14310D01*
X15143Y36660D01*
Y37493D01*
X14310Y38326D01*
X11811D01*
X14310D01*
X15143Y39159D01*
Y39992D01*
X14310Y40825D01*
X11811D01*
X5118Y63069D02*
Y58071D01*
X7617D01*
X8450Y58904D01*
Y59737D01*
X7617Y60570D01*
X5118D01*
X7617D01*
X8450Y61403D01*
Y62236D01*
X7617Y63069D01*
X5118D01*
X57072Y71370D02*
X56239Y72203D01*
X54573D01*
X53740Y71370D01*
Y68038D01*
X54573Y67205D01*
X56239D01*
X57072Y68038D01*
X62781Y71370D02*
X61948Y72203D01*
X60282D01*
X59449Y71370D01*
Y68038D01*
X60282Y67205D01*
X61948D01*
X62781Y68038D01*
X59828Y71331D02*
X58995Y72164D01*
X57329D01*
X56496Y71331D01*
Y67998D01*
X57329Y67165D01*
X58995D01*
X59828Y67998D01*
X57072Y61370D02*
X56239Y62203D01*
X54573D01*
X53740Y61370D01*
Y58038D01*
X54573Y57205D01*
X56239D01*
X57072Y58038D01*
X62781Y61370D02*
X61948Y62203D01*
X60282D01*
X59449Y61370D01*
Y58038D01*
X60282Y57205D01*
X61948D01*
X62781Y58038D01*
X59828Y61331D02*
X58995Y62164D01*
X57329D01*
X56496Y61331D01*
Y57998D01*
X57329Y57165D01*
X58995D01*
X59828Y57998D01*
X57072Y46370D02*
X56239Y47203D01*
X54573D01*
X53740Y46370D01*
Y43038D01*
X54573Y42205D01*
X56239D01*
X57072Y43038D01*
X62781Y46370D02*
X61948Y47203D01*
X60282D01*
X59449Y46370D01*
Y43038D01*
X60282Y42205D01*
X61948D01*
X62781Y43038D01*
X59828Y46331D02*
X58995Y47164D01*
X57329D01*
X56496Y46331D01*
Y42998D01*
X57329Y42165D01*
X58995D01*
X59828Y42998D01*
X57072Y36370D02*
X56239Y37203D01*
X54573D01*
X53740Y36370D01*
Y33038D01*
X54573Y32205D01*
X56239D01*
X57072Y33038D01*
X62781Y36370D02*
X61948Y37203D01*
X60282D01*
X59449Y36370D01*
Y33038D01*
X60282Y32205D01*
X61948D01*
X62781Y33038D01*
X59828Y36331D02*
X58995Y37164D01*
X57329D01*
X56496Y36331D01*
Y32998D01*
X57329Y32165D01*
X58995D01*
X59828Y32998D01*
X84041Y71291D02*
X83208Y72124D01*
X81542D01*
X80709Y71291D01*
Y67959D01*
X81542Y67126D01*
X83208D01*
X84041Y67959D01*
X82072Y71291D02*
X81239Y72124D01*
X79573D01*
X78740Y71291D01*
Y67959D01*
X79573Y67126D01*
X81239D01*
X82072Y67959D01*
Y69323D02*
X81239Y70156D01*
X79573D01*
X78740Y69323D01*
Y65991D01*
X79573Y65157D01*
X81239D01*
X82072Y65991D01*
X84041Y69323D02*
X83208Y70156D01*
X81542D01*
X80709Y69323D01*
Y65991D01*
X81542Y65157D01*
X83208D01*
X84041Y65991D01*
X82663Y29181D02*
X81830Y30014D01*
X80164D01*
X79331Y29181D01*
Y25849D01*
X80164Y25016D01*
X81830D01*
X82663Y25849D01*
X84632Y29181D02*
X83798Y30014D01*
X82132D01*
X81299Y29181D01*
Y25849D01*
X82132Y25016D01*
X83798D01*
X84632Y25849D01*
Y31150D02*
X83798Y31983D01*
X82132D01*
X81299Y31150D01*
Y27817D01*
X82132Y26984D01*
X83798D01*
X84632Y27817D01*
X82663Y31150D02*
X81830Y31983D01*
X80164D01*
X79331Y31150D01*
Y27817D01*
X80164Y26984D01*
X81830D01*
X82663Y27817D01*
X90931Y86646D02*
X90098Y87479D01*
X88432D01*
X87598Y86646D01*
Y83313D01*
X88432Y82480D01*
X90098D01*
X90931Y83313D01*
X86206Y86646D02*
X85373Y87479D01*
X83707D01*
X82874Y86646D01*
Y83313D01*
X83707Y82480D01*
X85373D01*
X86206Y83313D01*
X90931Y81724D02*
X90098Y82557D01*
X88432D01*
X87598Y81724D01*
Y78392D01*
X88432Y77559D01*
X90098D01*
X90931Y78392D01*
X88569Y81724D02*
X87735Y82557D01*
X86069D01*
X85236Y81724D01*
Y78392D01*
X86069Y77559D01*
X87735D01*
X88569Y78392D01*
Y86646D02*
X87735Y87479D01*
X86069D01*
X85236Y86646D01*
Y83313D01*
X86069Y82480D01*
X87735D01*
X88569Y83313D01*
X90931Y89008D02*
X90098Y89841D01*
X88432D01*
X87598Y89008D01*
Y85676D01*
X88432Y84842D01*
X90098D01*
X90931Y85676D01*
X86206Y89008D02*
X85373Y89841D01*
X83707D01*
X82874Y89008D01*
Y85676D01*
X83707Y84842D01*
X85373D01*
X86206Y85676D01*
X89159Y44717D02*
X88326Y45549D01*
X86660D01*
X85827Y44717D01*
Y41384D01*
X86660Y40551D01*
X88326D01*
X89159Y41384D01*
X89356Y47472D02*
X88523Y48305D01*
X86857D01*
X86024Y47472D01*
Y44140D01*
X86857Y43307D01*
X88523D01*
X89356Y44140D01*
X86600Y44717D02*
X85767Y45549D01*
X84101D01*
X83268Y44717D01*
Y41384D01*
X84101Y40551D01*
X85767D01*
X86600Y41384D01*
X91915Y44913D02*
X91082Y45746D01*
X89416D01*
X88583Y44913D01*
Y41581D01*
X89416Y40748D01*
X91082D01*
X91915Y41581D01*
Y42354D02*
X91082Y43187D01*
X89416D01*
X88583Y42354D01*
Y39022D01*
X89416Y38189D01*
X91082D01*
X91915Y39022D01*
Y47472D02*
X91082Y48305D01*
X89416D01*
X88583Y47472D01*
Y44140D01*
X89416Y43307D01*
X91082D01*
X91915Y44140D01*
X86403Y47472D02*
X85570Y48305D01*
X83904D01*
X83071Y47472D01*
Y44140D01*
X83904Y43307D01*
X85570D01*
X86403Y44140D01*
X89356Y42157D02*
X88523Y42990D01*
X86857D01*
X86024Y42157D01*
Y38825D01*
X86857Y37992D01*
X88523D01*
X89356Y38825D01*
X91128Y84283D02*
X90294Y85116D01*
X88628D01*
X87795Y84283D01*
Y80951D01*
X88628Y80118D01*
X90294D01*
X91128Y80951D01*
X86206Y84283D02*
X85373Y85116D01*
X83707D01*
X82874Y84283D01*
Y80951D01*
X83707Y80118D01*
X85373D01*
X86206Y80951D01*
X88765Y84283D02*
X87932Y85116D01*
X86266D01*
X85433Y84283D01*
Y80951D01*
X86266Y80118D01*
X87932D01*
X88765Y80951D01*
X88569Y89008D02*
X87735Y89841D01*
X86069D01*
X85236Y89008D01*
Y85676D01*
X86069Y84842D01*
X87735D01*
X88569Y85676D01*
X22328Y71370D02*
X21495Y72203D01*
X19829D01*
X18996Y71370D01*
Y68038D01*
X19829Y67205D01*
X21495D01*
X22328Y68038D01*
Y66370D02*
X21495Y67203D01*
X19829D01*
X18996Y66370D01*
Y63038D01*
X19829Y62205D01*
X21495D01*
X22328Y63038D01*
X91718Y65976D02*
X90885Y66809D01*
X89219D01*
X88386Y65976D01*
Y62644D01*
X89219Y61811D01*
X90885D01*
X91718Y62644D01*
X89159Y65976D02*
X88326Y66809D01*
X86660D01*
X85827Y65976D01*
Y62644D01*
X86660Y61811D01*
X88326D01*
X89159Y62644D01*
Y71094D02*
X88326Y71927D01*
X86660D01*
X85827Y71094D01*
Y67762D01*
X86660Y66929D01*
X88326D01*
X89159Y67762D01*
X91718Y71094D02*
X90885Y71927D01*
X89219D01*
X88386Y71094D01*
Y67762D01*
X89219Y66929D01*
X90885D01*
X91718Y67762D01*
X89159Y68535D02*
X88326Y69368D01*
X86660D01*
X85827Y68535D01*
Y65203D01*
X86660Y64370D01*
X88326D01*
X89159Y65203D01*
X91718Y68535D02*
X90885Y69368D01*
X89219D01*
X88386Y68535D01*
Y65203D01*
X89219Y64370D01*
X90885D01*
X91718Y65203D01*
X91718Y26213D02*
X90885Y27046D01*
X89219D01*
X88386Y26213D01*
Y22880D01*
X89219Y22047D01*
X90885D01*
X91718Y22880D01*
X89159Y26213D02*
X88326Y27046D01*
X86660D01*
X85827Y26213D01*
Y22880D01*
X86660Y22047D01*
X88326D01*
X89159Y22880D01*
Y31331D02*
X88326Y32164D01*
X86660D01*
X85827Y31331D01*
Y27998D01*
X86660Y27165D01*
X88326D01*
X89159Y27998D01*
X91718Y31331D02*
X90885Y32164D01*
X89219D01*
X88386Y31331D01*
Y27998D01*
X89219Y27165D01*
X90885D01*
X91718Y27998D01*
X89159Y28772D02*
X88326Y29605D01*
X86660D01*
X85827Y28772D01*
Y25439D01*
X86660Y24606D01*
X88326D01*
X89159Y25439D01*
X91718Y28772D02*
X90885Y29605D01*
X89219D01*
X88386Y28772D01*
Y25439D01*
X89219Y24606D01*
X90885D01*
X91718Y25439D01*
X69868Y86646D02*
X69035Y87479D01*
X67369D01*
X66535Y86646D01*
Y83313D01*
X67369Y82480D01*
X69035D01*
X69868Y83313D01*
Y47079D02*
X69035Y47912D01*
X67369D01*
X66535Y47079D01*
Y43746D01*
X67369Y42913D01*
X69035D01*
X69868Y43746D01*
X14553Y62236D02*
X13720Y63069D01*
X12054D01*
X11220Y62236D01*
Y58904D01*
X12054Y58071D01*
X13720D01*
X14553Y58904D01*
X25183Y61449D02*
X24350Y62282D01*
X22683D01*
X21850Y61449D01*
Y58117D01*
X22683Y57284D01*
X24350D01*
X25183Y58117D01*
X22427Y61449D02*
X21594Y62282D01*
X19928D01*
X19094Y61449D01*
Y58117D01*
X19928Y57284D01*
X21594D01*
X22427Y58117D01*
X19474Y61449D02*
X18641Y62282D01*
X16975D01*
X16142Y61449D01*
Y58117D01*
X16975Y57284D01*
X18641D01*
X19474Y58117D01*
X25183Y56331D02*
X24350Y57164D01*
X22683D01*
X21850Y56331D01*
Y52998D01*
X22683Y52165D01*
X24350D01*
X25183Y52998D01*
X22427Y56331D02*
X21594Y57164D01*
X19928D01*
X19094Y56331D01*
Y52998D01*
X19928Y52165D01*
X21594D01*
X22427Y52998D01*
X19474Y56331D02*
X18641Y57164D01*
X16975D01*
X16142Y56331D01*
Y52998D01*
X16975Y52165D01*
X18641D01*
X19474Y52998D01*
X25183Y36449D02*
X24350Y37282D01*
X22683D01*
X21850Y36449D01*
Y33116D01*
X22683Y32283D01*
X24350D01*
X25183Y33116D01*
X22427Y36449D02*
X21594Y37282D01*
X19928D01*
X19094Y36449D01*
Y33116D01*
X19928Y32283D01*
X21594D01*
X22427Y33116D01*
X19474Y36449D02*
X18641Y37282D01*
X16975D01*
X16142Y36449D01*
Y33116D01*
X16975Y32283D01*
X18641D01*
X19474Y33116D01*
X54055Y91612D02*
Y86614D01*
X56554D01*
X57387Y87447D01*
Y90780D01*
X56554Y91612D01*
X54055D01*
X53976Y85510D02*
Y80512D01*
X56476D01*
X57309Y81345D01*
Y84677D01*
X56476Y85510D01*
X53976D01*
X60118Y91612D02*
Y86614D01*
X62617D01*
X63450Y87447D01*
Y90780D01*
X62617Y91612D01*
X60118D01*
X60039Y85510D02*
Y80512D01*
X62539D01*
X63372Y81345D01*
Y84677D01*
X62539Y85510D01*
X60039D01*
X54646Y30983D02*
Y25984D01*
X57145D01*
X57978Y26817D01*
Y30150D01*
X57145Y30983D01*
X54646D01*
X54843Y24290D02*
Y19291D01*
X57342D01*
X58175Y20124D01*
Y23457D01*
X57342Y24290D01*
X54843D01*
X60709Y30983D02*
Y25984D01*
X63208D01*
X64041Y26817D01*
Y30150D01*
X63208Y30983D01*
X60709D01*
X60905Y24290D02*
Y19291D01*
X63405D01*
X64238Y20124D01*
Y23457D01*
X63405Y24290D01*
X60905D01*
D53*
X106767Y70760D02*
X105567Y71960D01*
X103168D01*
X101969Y70760D01*
Y69561D01*
X103168Y68361D01*
X105567D01*
X106767Y67161D01*
Y65962D01*
X105567Y64762D01*
X103168D01*
X101969Y65962D01*
X109166Y69561D02*
Y65962D01*
X110366Y64762D01*
X113965D01*
Y63563D01*
X112765Y62363D01*
X111565D01*
X113965Y64762D02*
Y69561D01*
X116364Y64762D02*
Y69561D01*
X117563D01*
X118763Y68361D01*
Y64762D01*
Y68361D01*
X119963Y69561D01*
X121162Y68361D01*
Y64762D01*
X123562Y71960D02*
Y64762D01*
X127160D01*
X128360Y65962D01*
Y67161D01*
Y68361D01*
X127160Y69561D01*
X123562D01*
X131959Y64762D02*
X134358D01*
X135558Y65962D01*
Y68361D01*
X134358Y69561D01*
X131959D01*
X130759Y68361D01*
Y65962D01*
X131959Y64762D01*
X137957D02*
X140356D01*
X139156D01*
Y71960D01*
X137957D01*
X154769D02*
Y64762D01*
Y68361D01*
X159567D01*
Y71960D01*
Y64762D01*
X161966D02*
X164365D01*
X163166D01*
Y69561D01*
X161966D01*
X169164Y70760D02*
Y69561D01*
X167964D01*
X170363D01*
X169164D01*
Y65962D01*
X170363Y64762D01*
X185958Y70760D02*
X184759Y71960D01*
X182360D01*
X181160Y70760D01*
Y65962D01*
X182360Y64762D01*
X184759D01*
X185958Y65962D01*
X189557Y64762D02*
X191956D01*
X193156Y65962D01*
Y68361D01*
X191956Y69561D01*
X189557D01*
X188358Y68361D01*
Y65962D01*
X189557Y64762D01*
X195555Y69561D02*
Y65962D01*
X196755Y64762D01*
X200354D01*
Y69561D01*
X202753Y64762D02*
Y69561D01*
X206352D01*
X207551Y68361D01*
Y64762D01*
X211150Y70760D02*
Y69561D01*
X209951D01*
X212350D01*
X211150D01*
Y65962D01*
X212350Y64762D01*
X229148Y71960D02*
X224350D01*
Y68361D01*
X226749D01*
X224350D01*
Y64762D01*
X231547D02*
X233947D01*
X232747D01*
Y69561D01*
X231547D01*
X237546Y64762D02*
Y69561D01*
X241144D01*
X242344Y68361D01*
Y64762D01*
X244743D02*
X247143D01*
X245943D01*
Y69561D01*
X244743D01*
X250741Y64762D02*
X254340D01*
X255540Y65962D01*
X254340Y67161D01*
X251941D01*
X250741Y68361D01*
X251941Y69561D01*
X255540D01*
X257939Y71960D02*
Y64762D01*
Y68361D01*
X259139Y69561D01*
X261538D01*
X262737Y68361D01*
Y64762D01*
X268736D02*
X266336D01*
X265137Y65962D01*
Y68361D01*
X266336Y69561D01*
X268736D01*
X269935Y68361D01*
Y67161D01*
X265137D01*
X277133Y71960D02*
Y64762D01*
X273534D01*
X272334Y65962D01*
Y68361D01*
X273534Y69561D01*
X277133D01*
X286730Y71960D02*
Y64762D01*
Y68361D01*
X291528D01*
Y71960D01*
Y64762D01*
X295127D02*
X297526D01*
X298726Y65962D01*
Y68361D01*
X297526Y69561D01*
X295127D01*
X293927Y68361D01*
Y65962D01*
X295127Y64762D01*
X301125D02*
X303524D01*
X302325D01*
Y71960D01*
X301125D01*
X310722Y64762D02*
X308323D01*
X307123Y65962D01*
Y68361D01*
X308323Y69561D01*
X310722D01*
X311922Y68361D01*
Y67161D01*
X307123D01*
X326317Y70760D02*
X325117Y71960D01*
X322718D01*
X321518Y70760D01*
Y69561D01*
X322718Y68361D01*
X325117D01*
X326317Y67161D01*
Y65962D01*
X325117Y64762D01*
X322718D01*
X321518Y65962D01*
X328716Y64762D02*
X331115D01*
X329916D01*
Y69561D01*
X328716D01*
X334714D02*
X339513D01*
X334714Y64762D01*
X339513D01*
X345511D02*
X343111D01*
X341912Y65962D01*
Y68361D01*
X343111Y69561D01*
X345511D01*
X346710Y68361D01*
Y67161D01*
X341912D01*
X358710Y64762D02*
Y71960D01*
X362309D01*
X363509Y70760D01*
Y68361D01*
X362309Y67161D01*
X358710D01*
X365908Y64762D02*
X368307D01*
X367108D01*
Y71960D01*
X365908D01*
X373106Y69561D02*
X375505D01*
X376704Y68361D01*
Y64762D01*
X373106D01*
X371906Y65962D01*
X373106Y67161D01*
X376704D01*
X380303Y70760D02*
Y69561D01*
X379104D01*
X381503D01*
X380303D01*
Y65962D01*
X381503Y64762D01*
X388701D02*
X386301D01*
X385102Y65962D01*
Y68361D01*
X386301Y69561D01*
X388701D01*
X389900Y68361D01*
Y67161D01*
X385102D01*
X397098Y71960D02*
Y64762D01*
X393499D01*
X392299Y65962D01*
Y68361D01*
X393499Y69561D01*
X397098D01*
X409098Y71960D02*
Y64762D01*
Y68361D01*
X413896D01*
Y71960D01*
Y64762D01*
X417495D02*
X419894D01*
X421094Y65962D01*
Y68361D01*
X419894Y69561D01*
X417495D01*
X416295Y68361D01*
Y65962D01*
X417495Y64762D01*
X423493D02*
X425892D01*
X424693D01*
Y71960D01*
X423493D01*
X433090Y64762D02*
X430691D01*
X429491Y65962D01*
Y68361D01*
X430691Y69561D01*
X433090D01*
X434290Y68361D01*
Y67161D01*
X429491D01*
X443887Y71960D02*
X448685D01*
X446286D01*
Y64762D01*
X451084Y69561D02*
Y65962D01*
X452284Y64762D01*
X455883D01*
Y63563D01*
X454683Y62363D01*
X453483D01*
X455883Y64762D02*
Y69561D01*
X458282Y62363D02*
Y69561D01*
X461881D01*
X463080Y68361D01*
Y65962D01*
X461881Y64762D01*
X458282D01*
X469078D02*
X466679D01*
X465480Y65962D01*
Y68361D01*
X466679Y69561D01*
X469078D01*
X470278Y68361D01*
Y67161D01*
X465480D01*
X93168Y75562D02*
X482278D01*
X93168Y59362D02*
X482278D01*
X93168Y75562D02*
Y-638D01*
X482278Y75562D02*
Y-638D01*
X150368Y75562D02*
Y-638D01*
X219950Y75562D02*
Y-638D01*
X354310Y75562D02*
Y-638D01*
X404698Y75562D02*
Y-638D01*
X93168Y11362D02*
X482278D01*
X93168Y-638D02*
X482278D01*
M02*
