G04 Layer_Color=65535*
%FSLAX25Y25*%
%MOIN*%
G70*
G01*
G75*
%ADD34C,0.00591*%
%ADD35C,0.00787*%
%ADD36C,0.01000*%
%ADD37C,0.00500*%
%ADD38C,0.00600*%
%ADD39C,0.00800*%
D34*
X88081Y9646D02*
G03*
X88081Y9646I-3041J0D01*
G01*
X69380Y55709D02*
G03*
X69380Y55709I-3041J0D01*
G01*
X60719Y74410D02*
G03*
X60719Y74410I-3041J0D01*
G01*
X79813Y10039D02*
G03*
X79813Y10039I-3041J0D01*
G01*
D35*
X12539Y54961D02*
G03*
X14114Y56535I-0J1575D01*
G01*
Y59606D02*
G03*
X12539Y61181I-1575J0D01*
G01*
X3602Y61181D02*
G03*
X2028Y59606I0J-1575D01*
G01*
X2028Y56535D02*
G03*
X3602Y54961I1575J0D01*
G01*
X52618Y89724D02*
G03*
X51043Y88150I0J-1575D01*
G01*
Y85079D02*
G03*
X52618Y83504I1575J-0D01*
G01*
X61555Y83504D02*
G03*
X63130Y85079I-0J1575D01*
G01*
X63130Y88150D02*
G03*
X61555Y89724I-1575J0D01*
G01*
X52539Y83622D02*
G03*
X50965Y82047I0J-1575D01*
G01*
Y78976D02*
G03*
X52539Y77402I1575J-0D01*
G01*
X61476Y77402D02*
G03*
X63051Y78976I-0J1575D01*
G01*
X63051Y82047D02*
G03*
X61476Y83622I-1575J0D01*
G01*
X53405Y22402D02*
G03*
X51831Y20827I0J-1575D01*
G01*
Y17756D02*
G03*
X53405Y16181I1575J-0D01*
G01*
X62343Y16181D02*
G03*
X63917Y17756I-0J1575D01*
G01*
X63917Y20827D02*
G03*
X62343Y22402I-1575J0D01*
G01*
X53209Y29094D02*
G03*
X51634Y27520I0J-1575D01*
G01*
Y24449D02*
G03*
X53209Y22874I1575J-0D01*
G01*
X62146Y22874D02*
G03*
X63721Y24449I-0J1575D01*
G01*
X63721Y27520D02*
G03*
X62146Y29094I-1575J0D01*
G01*
X83464Y25992D02*
X85236D01*
X75000D02*
X76772D01*
X75000Y20185D02*
Y25992D01*
X85236Y20185D02*
Y25992D01*
X83268Y66150D02*
X85039D01*
X74803D02*
X76575D01*
X74803Y60343D02*
Y66150D01*
X85039Y60343D02*
Y66150D01*
X9646Y61181D02*
X12539D01*
X3602Y61181D02*
X6496D01*
X3602Y54961D02*
X6496D01*
X14114Y56535D02*
Y59606D01*
X2028Y56535D02*
Y59606D01*
X9646Y54961D02*
X12539D01*
X23898Y75709D02*
Y95709D01*
X3898D02*
X23898D01*
X3898Y75709D02*
X23898D01*
X3898D02*
Y95709D01*
X51339Y89685D02*
Y99685D01*
X71339D01*
Y89685D02*
Y99685D01*
X51339Y89685D02*
X71339D01*
X52618Y83504D02*
X55512D01*
X58661Y83504D02*
X61555D01*
X58661Y89724D02*
X61555D01*
X51043Y85079D02*
Y88150D01*
X63130Y85079D02*
Y88150D01*
X52618Y89724D02*
X55512D01*
X52539Y77402D02*
X55433D01*
X58583Y77402D02*
X61476D01*
X58583Y83622D02*
X61476D01*
X50965Y78976D02*
Y82047D01*
X63051Y78976D02*
Y82047D01*
X52539Y83622D02*
X55433D01*
X53405Y16181D02*
X56299D01*
X59449Y16181D02*
X62343D01*
X59449Y22402D02*
X62343D01*
X51831Y17756D02*
Y20827D01*
X63917Y17756D02*
Y20827D01*
X53405Y22402D02*
X56299D01*
X52284Y6221D02*
Y16220D01*
X72284D01*
Y6221D02*
Y16220D01*
X52284Y6221D02*
X72284D01*
X53209Y22874D02*
X56102D01*
X59252Y22874D02*
X62146D01*
X59252Y29094D02*
X62146D01*
X51634Y24449D02*
Y27520D01*
X63721Y24449D02*
Y27520D01*
X53209Y29094D02*
X56102D01*
D36*
X34996Y69705D02*
G03*
X39996Y69705I2500J0D01*
G01*
X24996Y29705D02*
X50496D01*
X24996Y69705D02*
X34996D01*
X39996D02*
X50496D01*
Y29705D02*
Y69705D01*
X24996Y29705D02*
Y69705D01*
D37*
X75265Y34387D02*
X85065D01*
X75165Y29787D02*
X85065D01*
X75165D02*
Y34387D01*
X85065Y29787D02*
Y34387D01*
X80165Y30924D02*
Y33287D01*
X75265Y73953D02*
X85065D01*
X75165Y69353D02*
X85065D01*
X75165D02*
Y73953D01*
X85065Y69353D02*
Y73953D01*
X80165Y70491D02*
Y72853D01*
X87993Y74665D02*
Y79665D01*
X75293Y74665D02*
X79593D01*
X75293D02*
Y79665D01*
X79593D01*
X83193Y74665D02*
X87993D01*
X80143Y77115D02*
X80993Y77965D01*
X80143Y77115D02*
X80993Y76265D01*
X83193Y79665D02*
X87993D01*
X75171Y80377D02*
X84971D01*
X75171Y84977D02*
X85071D01*
Y80377D02*
Y84977D01*
X75171Y80377D02*
Y84977D01*
X80071Y81477D02*
Y83839D01*
X63848Y64505D02*
X73648D01*
X63748Y59905D02*
X73648D01*
X63748D02*
Y64505D01*
X73648Y59905D02*
Y64505D01*
X68748Y61042D02*
Y63405D01*
X64635Y73953D02*
X74435D01*
X64535Y69353D02*
X74435D01*
X64535D02*
Y73953D01*
X74435Y69353D02*
Y73953D01*
X69535Y70491D02*
Y72853D01*
X68835Y74580D02*
Y84380D01*
X64235Y74580D02*
Y84480D01*
X68835D01*
X64235Y74580D02*
X68835D01*
X65373Y79480D02*
X67735D01*
X87934Y35098D02*
Y40098D01*
X75234Y35098D02*
X79534D01*
X75234D02*
Y40098D01*
X79534D01*
X83134Y35098D02*
X87934D01*
X80084Y37548D02*
X80934Y38398D01*
X80084Y37548D02*
X80934Y36698D01*
X83134Y40098D02*
X87934D01*
X75171Y40810D02*
X84971D01*
X75171Y45410D02*
X85071D01*
Y40810D02*
Y45410D01*
X75171Y40810D02*
Y45410D01*
X80071Y41910D02*
Y44272D01*
X64045Y25528D02*
X73845D01*
X63945Y20928D02*
X73845D01*
X63945D02*
Y25528D01*
X73845Y20928D02*
Y25528D01*
X68945Y22066D02*
Y24428D01*
X64635Y34387D02*
X74435D01*
X64535Y29787D02*
X74435D01*
X64535D02*
Y34387D01*
X74435Y29787D02*
Y34387D01*
X69535Y30924D02*
Y33287D01*
X68835Y35013D02*
Y44813D01*
X64235Y35013D02*
Y44913D01*
X68835D01*
X64235Y35013D02*
X68835D01*
X65373Y39913D02*
X67735D01*
X9511Y33927D02*
Y43727D01*
X14111Y33827D02*
Y43727D01*
X9511Y33827D02*
X14111D01*
X9511Y43727D02*
X14111D01*
X10611Y38827D02*
X12973D01*
X14111Y44659D02*
Y54459D01*
X9511Y44659D02*
Y54559D01*
X14111D01*
X9511Y44659D02*
X14111D01*
X10649Y49559D02*
X13011D01*
D38*
X90994Y85236D02*
X87795D01*
Y83637D01*
X88328Y83104D01*
X90461D01*
X90994Y83637D01*
Y85236D01*
X90461Y82037D02*
X90994Y81504D01*
Y80438D01*
X90461Y79905D01*
X89928D01*
X89395Y80438D01*
Y80971D01*
Y80438D01*
X88862Y79905D01*
X88328D01*
X87795Y80438D01*
Y81504D01*
X88328Y82037D01*
X90797Y46260D02*
X87598D01*
Y44660D01*
X88132Y44127D01*
X90264D01*
X90797Y44660D01*
Y46260D01*
X88132Y43061D02*
X87598Y42528D01*
Y41461D01*
X88132Y40928D01*
X90264D01*
X90797Y41461D01*
Y42528D01*
X90264Y43061D01*
X89731D01*
X89198Y42528D01*
Y40928D01*
X86417Y34301D02*
Y31102D01*
X88550D01*
X91749Y34301D02*
X90683Y33768D01*
X89616Y32702D01*
Y31635D01*
X90149Y31102D01*
X91216D01*
X91749Y31635D01*
Y32169D01*
X91216Y32702D01*
X89616D01*
X86024Y73278D02*
Y70079D01*
X88156D01*
X89223Y72745D02*
X89756Y73278D01*
X90822D01*
X91355Y72745D01*
Y72211D01*
X90822Y71678D01*
X91355Y71145D01*
Y70612D01*
X90822Y70079D01*
X89756D01*
X89223Y70612D01*
Y71145D01*
X89756Y71678D01*
X89223Y72211D01*
Y72745D01*
X89756Y71678D02*
X90822D01*
X25394Y92126D02*
Y95325D01*
X26993D01*
X27526Y94792D01*
Y93726D01*
X26993Y93192D01*
X25394D01*
X30725Y92126D02*
X28593D01*
X30725Y94259D01*
Y94792D01*
X30192Y95325D01*
X29126D01*
X28593Y94792D01*
X88747Y15691D02*
Y17823D01*
X88214Y18356D01*
X87147D01*
X86614Y17823D01*
Y15691D01*
X87147Y15157D01*
X88214D01*
X87681Y16224D02*
X88747Y15157D01*
X88214D02*
X88747Y15691D01*
X89813Y15157D02*
X90879D01*
X90346D01*
Y18356D01*
X89813Y17823D01*
X94612Y15157D02*
X92479D01*
X94612Y17290D01*
Y17823D01*
X94078Y18356D01*
X93012D01*
X92479Y17823D01*
X85007Y50730D02*
Y52863D01*
X84474Y53396D01*
X83407D01*
X82874Y52863D01*
Y50730D01*
X83407Y50197D01*
X84474D01*
X83940Y51263D02*
X85007Y50197D01*
X84474D02*
X85007Y50730D01*
X86073Y50197D02*
X87139D01*
X86606D01*
Y53396D01*
X86073Y52863D01*
X90871Y53396D02*
X89805Y52863D01*
X88739Y51796D01*
Y50730D01*
X89272Y50197D01*
X90338D01*
X90871Y50730D01*
Y51263D01*
X90338Y51796D01*
X88739D01*
X67126Y26969D02*
Y28968D01*
X68126D01*
X68459Y28635D01*
Y27968D01*
X68126Y27635D01*
X67126D01*
X67792D02*
X68459Y26969D01*
X70125D02*
Y28968D01*
X69125Y27968D01*
X70458D01*
X72124Y26969D02*
Y28968D01*
X71125Y27968D01*
X72458D01*
X75394Y46260D02*
Y49459D01*
X76993D01*
X77526Y48926D01*
Y47859D01*
X76993Y47326D01*
X75394D01*
X76460D02*
X77526Y46260D01*
X80192D02*
Y49459D01*
X78593Y47859D01*
X80725D01*
X83924Y49459D02*
X82858Y48926D01*
X81792Y47859D01*
Y46793D01*
X82325Y46260D01*
X83391D01*
X83924Y46793D01*
Y47326D01*
X83391Y47859D01*
X81792D01*
X64961Y16929D02*
Y20128D01*
X66560D01*
X67093Y19595D01*
Y18529D01*
X66560Y17995D01*
X64961D01*
X66027D02*
X67093Y16929D01*
X69759D02*
Y20128D01*
X68160Y18529D01*
X70292D01*
X71359Y19595D02*
X71892Y20128D01*
X72958D01*
X73491Y19595D01*
Y19062D01*
X72958Y18529D01*
X73491Y17995D01*
Y17462D01*
X72958Y16929D01*
X71892D01*
X71359Y17462D01*
Y17995D01*
X71892Y18529D01*
X71359Y19062D01*
Y19595D01*
X71892Y18529D02*
X72958D01*
X72835Y36024D02*
X69636D01*
Y37623D01*
X70169Y38156D01*
X71235D01*
X71768Y37623D01*
Y36024D01*
Y37090D02*
X72835Y38156D01*
X69636Y41355D02*
Y39223D01*
X71235D01*
X70702Y40289D01*
Y40822D01*
X71235Y41355D01*
X72302D01*
X72835Y40822D01*
Y39756D01*
X72302Y39223D01*
X70169Y42422D02*
X69636Y42955D01*
Y44021D01*
X70169Y44554D01*
X72302D01*
X72835Y44021D01*
Y42955D01*
X72302Y42422D01*
X70169D01*
X8071Y34252D02*
X4872D01*
Y35851D01*
X5405Y36385D01*
X6471D01*
X7005Y35851D01*
Y34252D01*
Y35318D02*
X8071Y36385D01*
X4872Y39584D02*
Y37451D01*
X6471D01*
X5938Y38517D01*
Y39050D01*
X6471Y39584D01*
X7538D01*
X8071Y39050D01*
Y37984D01*
X7538Y37451D01*
X5405Y40650D02*
X4872Y41183D01*
Y42249D01*
X5405Y42783D01*
X5938D01*
X6471Y42249D01*
Y41716D01*
Y42249D01*
X7005Y42783D01*
X7538D01*
X8071Y42249D01*
Y41183D01*
X7538Y40650D01*
X8268Y45079D02*
X5069D01*
Y46678D01*
X5602Y47211D01*
X6668D01*
X7201Y46678D01*
Y45079D01*
Y46145D02*
X8268Y47211D01*
X5069Y50410D02*
Y48278D01*
X6668D01*
X6135Y49344D01*
Y49877D01*
X6668Y50410D01*
X7735D01*
X8268Y49877D01*
Y48811D01*
X7735Y48278D01*
X8268Y53076D02*
X5069D01*
X6668Y51477D01*
Y53609D01*
X70669Y83661D02*
X73868D01*
Y82062D01*
X73335Y81529D01*
X72269D01*
X71736Y82062D01*
Y83661D01*
Y82595D02*
X70669Y81529D01*
X73868Y78330D02*
Y80462D01*
X72269D01*
X72802Y79396D01*
Y78863D01*
X72269Y78330D01*
X71202D01*
X70669Y78863D01*
Y79929D01*
X71202Y80462D01*
X73868Y75131D02*
X73335Y76197D01*
X72269Y77263D01*
X71202D01*
X70669Y76730D01*
Y75664D01*
X71202Y75131D01*
X71736D01*
X72269Y75664D01*
Y77263D01*
X75787Y87008D02*
Y90207D01*
X77387D01*
X77920Y89674D01*
Y88607D01*
X77387Y88074D01*
X75787D01*
X76854D02*
X77920Y87008D01*
X81119Y90207D02*
X78986D01*
Y88607D01*
X80053Y89140D01*
X80586D01*
X81119Y88607D01*
Y87541D01*
X80586Y87008D01*
X79519D01*
X78986Y87541D01*
X82185Y89674D02*
X82718Y90207D01*
X83785D01*
X84318Y89674D01*
Y89140D01*
X83785Y88607D01*
X84318Y88074D01*
Y87541D01*
X83785Y87008D01*
X82718D01*
X82185Y87541D01*
Y88074D01*
X82718Y88607D01*
X82185Y89140D01*
Y89674D01*
X82718Y88607D02*
X83785D01*
X64567Y65354D02*
Y68553D01*
X66166D01*
X66700Y68020D01*
Y66954D01*
X66166Y66421D01*
X64567D01*
X65633D02*
X66700Y65354D01*
X69898Y68553D02*
X68832Y68020D01*
X67766Y66954D01*
Y65887D01*
X68299Y65354D01*
X69365D01*
X69898Y65887D01*
Y66421D01*
X69365Y66954D01*
X67766D01*
X70965Y68020D02*
X71498Y68553D01*
X72564D01*
X73097Y68020D01*
Y65887D01*
X72564Y65354D01*
X71498D01*
X70965Y65887D01*
Y68020D01*
X64370Y85039D02*
Y88238D01*
X65970D01*
X66503Y87705D01*
Y86639D01*
X65970Y86106D01*
X64370D01*
X65436D02*
X66503Y85039D01*
X69702Y88238D02*
X68635Y87705D01*
X67569Y86639D01*
Y85572D01*
X68102Y85039D01*
X69169D01*
X69702Y85572D01*
Y86106D01*
X69169Y86639D01*
X67569D01*
X72901Y85039D02*
X70768D01*
X72901Y87172D01*
Y87705D01*
X72368Y88238D01*
X71301D01*
X70768Y87705D01*
X71260Y57923D02*
X73392D01*
X72326D01*
Y54724D01*
X74459D02*
Y57923D01*
X76058D01*
X76591Y57390D01*
Y56324D01*
X76058Y55791D01*
X74459D01*
X77658Y54724D02*
X78724D01*
X78191D01*
Y57923D01*
X77658Y57390D01*
X80324D02*
X80857Y57923D01*
X81923D01*
X82456Y57390D01*
Y56857D01*
X81923Y56324D01*
X81390D01*
X81923D01*
X82456Y55791D01*
Y55258D01*
X81923Y54724D01*
X80857D01*
X80324Y55258D01*
X41732Y76034D02*
X43865D01*
X42799D01*
Y72835D01*
X44931D02*
Y76034D01*
X46531D01*
X47064Y75500D01*
Y74434D01*
X46531Y73901D01*
X44931D01*
X48130Y72835D02*
X49196D01*
X48663D01*
Y76034D01*
X48130Y75500D01*
X52395Y72835D02*
Y76034D01*
X50796Y74434D01*
X52929D01*
X79921Y4971D02*
X82054D01*
X80988D01*
Y1772D01*
X83120D02*
Y4971D01*
X84720D01*
X85253Y4437D01*
Y3371D01*
X84720Y2838D01*
X83120D01*
X86319Y1772D02*
X87385D01*
X86852D01*
Y4971D01*
X86319Y4437D01*
X91118Y4971D02*
X88985D01*
Y3371D01*
X90051Y3904D01*
X90584D01*
X91118Y3371D01*
Y2305D01*
X90584Y1772D01*
X89518D01*
X88985Y2305D01*
X67323Y5167D02*
X69455D01*
X68389D01*
Y1969D01*
X70522D02*
Y5167D01*
X72121D01*
X72654Y4634D01*
Y3568D01*
X72121Y3035D01*
X70522D01*
X73721Y1969D02*
X74787D01*
X74254D01*
Y5167D01*
X73721Y4634D01*
X78519Y5167D02*
X77453Y4634D01*
X76387Y3568D01*
Y2502D01*
X76920Y1969D01*
X77986D01*
X78519Y2502D01*
Y3035D01*
X77986Y3568D01*
X76387D01*
X29528Y75246D02*
Y72580D01*
X30061Y72047D01*
X31127D01*
X31660Y72580D01*
Y75246D01*
X32726Y72047D02*
X33793D01*
X33260D01*
Y75246D01*
X32726Y74713D01*
X36992Y72047D02*
Y75246D01*
X35392Y73647D01*
X37525D01*
X73425Y93701D02*
Y96900D01*
X75025D01*
X75558Y96367D01*
Y95300D01*
X75025Y94767D01*
X73425D01*
X76624Y93701D02*
X77691D01*
X77157D01*
Y96900D01*
X76624Y96367D01*
X79290Y93701D02*
X80356D01*
X79823D01*
Y96900D01*
X79290Y96367D01*
X42323Y12205D02*
Y15404D01*
X43922D01*
X44456Y14871D01*
Y13804D01*
X43922Y13271D01*
X42323D01*
X45522Y12205D02*
X46588D01*
X46055D01*
Y15404D01*
X45522Y14871D01*
X48188D02*
X48721Y15404D01*
X49787D01*
X50320Y14871D01*
Y14337D01*
X49787Y13804D01*
X49254D01*
X49787D01*
X50320Y13271D01*
Y12738D01*
X49787Y12205D01*
X48721D01*
X48188Y12738D01*
X46030Y81800D02*
X45497Y82333D01*
X44431D01*
X43898Y81800D01*
Y79667D01*
X44431Y79134D01*
X45497D01*
X46030Y79667D01*
X47097Y81800D02*
X47630Y82333D01*
X48696D01*
X49229Y81800D01*
Y81266D01*
X48696Y80733D01*
X48163D01*
X48696D01*
X49229Y80200D01*
Y79667D01*
X48696Y79134D01*
X47630D01*
X47097Y79667D01*
X46030Y87902D02*
X45497Y88435D01*
X44431D01*
X43898Y87902D01*
Y85769D01*
X44431Y85236D01*
X45497D01*
X46030Y85769D01*
X48696Y85236D02*
Y88435D01*
X47097Y86836D01*
X49229D01*
X46424Y27272D02*
X45891Y27805D01*
X44824D01*
X44291Y27272D01*
Y25139D01*
X44824Y24606D01*
X45891D01*
X46424Y25139D01*
X47490D02*
X48024Y24606D01*
X49090D01*
X49623Y25139D01*
Y27272D01*
X49090Y27805D01*
X48024D01*
X47490Y27272D01*
Y26739D01*
X48024Y26206D01*
X49623D01*
X44456Y20973D02*
X43922Y21506D01*
X42856D01*
X42323Y20973D01*
Y18840D01*
X42856Y18307D01*
X43922D01*
X44456Y18840D01*
X45522Y18307D02*
X46588D01*
X46055D01*
Y21506D01*
X45522Y20973D01*
X48188D02*
X48721Y21506D01*
X49787D01*
X50320Y20973D01*
Y18840D01*
X49787Y18307D01*
X48721D01*
X48188Y18840D01*
Y20973D01*
X5085Y65658D02*
X4552Y66191D01*
X3486D01*
X2953Y65658D01*
Y63525D01*
X3486Y62992D01*
X4552D01*
X5085Y63525D01*
X6152Y62992D02*
X7218D01*
X6685D01*
Y66191D01*
X6152Y65658D01*
X8817D02*
X9351Y66191D01*
X10417D01*
X10950Y65658D01*
Y65125D01*
X10417Y64592D01*
X10950Y64059D01*
Y63525D01*
X10417Y62992D01*
X9351D01*
X8817Y63525D01*
Y64059D01*
X9351Y64592D01*
X8817Y65125D01*
Y65658D01*
X9351Y64592D02*
X10417D01*
X8629Y99516D02*
X8095Y100049D01*
X7029D01*
X6496Y99516D01*
Y98983D01*
X7029Y98450D01*
X8095D01*
X8629Y97917D01*
Y97384D01*
X8095Y96850D01*
X7029D01*
X6496Y97384D01*
X11828Y96850D02*
X9695D01*
X11828Y98983D01*
Y99516D01*
X11294Y100049D01*
X10228D01*
X9695Y99516D01*
X18471Y100049D02*
X16339D01*
Y98450D01*
X17405Y98983D01*
X17938D01*
X18471Y98450D01*
Y97384D01*
X17938Y96850D01*
X16872D01*
X16339Y97384D01*
X19537Y100049D02*
Y97917D01*
X20604Y96850D01*
X21670Y97917D01*
Y100049D01*
X17684Y73729D02*
X17151Y74262D01*
X16084D01*
X15551Y73729D01*
Y71596D01*
X16084Y71063D01*
X17151D01*
X17684Y71596D01*
Y72663D01*
X16617D01*
X18750Y71063D02*
Y74262D01*
X20883Y71063D01*
Y74262D01*
X21949D02*
Y71063D01*
X23549D01*
X24082Y71596D01*
Y73729D01*
X23549Y74262D01*
X21949D01*
X8826Y73926D02*
X8292Y74459D01*
X7226D01*
X6693Y73926D01*
Y73392D01*
X7226Y72859D01*
X8292D01*
X8826Y72326D01*
Y71793D01*
X8292Y71260D01*
X7226D01*
X6693Y71793D01*
X9892Y71260D02*
X10958D01*
X10425D01*
Y74459D01*
X9892Y73926D01*
D39*
X4528Y9314D02*
Y5315D01*
X6527D01*
X7193Y5981D01*
Y8647D01*
X6527Y9314D01*
X4528D01*
X8526Y7981D02*
Y5315D01*
Y6648D01*
X9193Y7314D01*
X9859Y7981D01*
X10526D01*
X12525Y5315D02*
X13858D01*
X13191D01*
Y7981D01*
X12525D01*
X15857D02*
X17190Y5315D01*
X18523Y7981D01*
X21855Y5315D02*
X20522D01*
X19856Y5981D01*
Y7314D01*
X20522Y7981D01*
X21855D01*
X22522Y7314D01*
Y6648D01*
X19856D01*
X23855Y7981D02*
Y5315D01*
Y6648D01*
X24521Y7314D01*
X25188Y7981D01*
X25854D01*
X27853Y4648D02*
X30519D01*
X31852Y9314D02*
Y5315D01*
X34518D01*
X35851Y4648D02*
X38517D01*
X39849Y5315D02*
Y9314D01*
X41849D01*
X42515Y8647D01*
Y7314D01*
X41849Y6648D01*
X39849D01*
X41182D02*
X42515Y5315D01*
M02*
