G04 Layer_Physical_Order=4*
G04 Layer_Color=16711680*
%FSLAX25Y25*%
%MOIN*%
G70*
G01*
G75*
%ADD18C,0.02200*%
%ADD21C,0.05512*%
G04:AMPARAMS|DCode=22|XSize=45mil|YSize=50mil|CornerRadius=11.25mil|HoleSize=0mil|Usage=FLASHONLY|Rotation=0.000|XOffset=0mil|YOffset=0mil|HoleType=Round|Shape=RoundedRectangle|*
%AMROUNDEDRECTD22*
21,1,0.04500,0.02750,0,0,0.0*
21,1,0.02250,0.05000,0,0,0.0*
1,1,0.02250,0.01125,-0.01375*
1,1,0.02250,-0.01125,-0.01375*
1,1,0.02250,-0.01125,0.01375*
1,1,0.02250,0.01125,0.01375*
%
%ADD22ROUNDEDRECTD22*%
%ADD23C,0.05906*%
%ADD24R,0.05906X0.05906*%
%ADD25R,0.05906X0.05906*%
%ADD26C,0.02700*%
%ADD27C,0.02300*%
G36*
X90739Y68644D02*
X91064Y68426D01*
X91281Y68101D01*
X91358Y67717D01*
X91358Y67716D01*
X91339Y67716D01*
X91358Y61063D01*
X91358Y61062D01*
X91281Y60678D01*
X91064Y60353D01*
X90739Y60136D01*
X90355Y60059D01*
X90354Y60060D01*
X90354Y60079D01*
X85669Y60060D01*
X85669Y60059D01*
X85285Y60136D01*
X84960Y60353D01*
X84742Y60679D01*
X84666Y61063D01*
X84666Y61063D01*
X84685D01*
X84666Y67717D01*
Y67717D01*
X84742Y68101D01*
X84960Y68426D01*
X85285Y68644D01*
X85669Y68720D01*
X85669D01*
X85669Y68701D01*
X90354Y68720D01*
X90355Y68720D01*
X90739Y68644D01*
D02*
G37*
G36*
X65157Y46457D02*
X65158Y46457D01*
X91323Y46457D01*
Y29850D01*
X90823Y29516D01*
X90795Y29528D01*
X90667Y29528D01*
X90550Y29576D01*
X90354Y29576D01*
X85669Y29576D01*
X85669Y29576D01*
X85474Y29576D01*
X85356Y29528D01*
X85229D01*
X84867Y29378D01*
X84777Y29288D01*
X84660Y29239D01*
X84383Y28962D01*
X84334Y28845D01*
X84244Y28755D01*
X84095Y28393D01*
Y28266D01*
X84046Y28148D01*
X84046Y27953D01*
X84046Y21299D01*
X84046Y21104D01*
X84095Y20986D01*
X84095Y20859D01*
X84244Y20497D01*
X84334Y20407D01*
X84383Y20290D01*
X84660Y20013D01*
X84777Y19964D01*
X84867Y19874D01*
X85229Y19724D01*
X85356Y19724D01*
X85474Y19676D01*
X85669Y19676D01*
X90354Y19676D01*
X90550Y19676D01*
X90667Y19724D01*
X90794Y19724D01*
X90823Y19736D01*
X91323Y19402D01*
Y6678D01*
X89961Y5315D01*
X54134Y5315D01*
X53779Y5306D01*
X53120Y5570D01*
X52618Y6072D01*
X52354Y6732D01*
X52362Y7087D01*
Y37205D01*
X52362Y37557D01*
X52632Y38208D01*
X53130Y38707D01*
X53781Y38976D01*
X54134Y38976D01*
X54134Y38976D01*
X61417D01*
X61760Y39018D01*
X62391Y39289D01*
X62876Y39775D01*
X63147Y40406D01*
X63189Y40748D01*
X63189Y40748D01*
X63189Y44488D01*
X63179Y44883D01*
X63471Y45616D01*
X64030Y46174D01*
X64763Y46467D01*
X65157Y46457D01*
D02*
G37*
G36*
X90739Y28880D02*
X91064Y28662D01*
X91281Y28337D01*
X91358Y27953D01*
X91358Y27953D01*
X91339Y27953D01*
X91358Y21299D01*
X91358Y21298D01*
X91281Y20915D01*
X91064Y20589D01*
X90739Y20372D01*
X90355Y20296D01*
X90354Y20296D01*
X90354Y20315D01*
X85669Y20296D01*
X85669Y20296D01*
X85285Y20372D01*
X84960Y20590D01*
X84742Y20915D01*
X84666Y21299D01*
X84666Y21299D01*
X84685D01*
X84666Y27953D01*
Y27953D01*
X84742Y28337D01*
X84960Y28662D01*
X85285Y28880D01*
X85669Y28956D01*
X85669D01*
X85669Y28937D01*
X90354Y28956D01*
X90355Y28956D01*
X90739Y28880D01*
D02*
G37*
G36*
X52953Y97835D02*
X53801D01*
X53971Y97335D01*
X53812Y97212D01*
X53243Y96472D01*
X52886Y95610D01*
X52765Y94685D01*
X52886Y93760D01*
X53243Y92898D01*
X53812Y92158D01*
X54552Y91590D01*
X55414Y91233D01*
X56339Y91111D01*
X57264Y91233D01*
X58126Y91590D01*
X58866Y92158D01*
X59434Y92898D01*
X59791Y93760D01*
X59913Y94685D01*
X59791Y95610D01*
X59434Y96472D01*
X58866Y97212D01*
X58706Y97335D01*
X58876Y97835D01*
X91228Y97835D01*
Y69653D01*
X90795Y69292D01*
X90667Y69292D01*
X90550Y69340D01*
X90354Y69340D01*
X85669Y69340D01*
X85669Y69340D01*
X85474Y69340D01*
X85356Y69291D01*
X85229D01*
X84867Y69142D01*
X84777Y69052D01*
X84660Y69003D01*
X84383Y68726D01*
X84334Y68609D01*
X84244Y68519D01*
X84095Y68157D01*
Y68030D01*
X84046Y67912D01*
X84046Y67716D01*
X84046Y61063D01*
X84046Y60867D01*
X84095Y60750D01*
X84095Y60623D01*
X84244Y60261D01*
X84334Y60171D01*
X84383Y60053D01*
X84660Y59777D01*
X84777Y59728D01*
X84867Y59638D01*
X85229Y59488D01*
X85356Y59488D01*
X85474Y59439D01*
X85669Y59440D01*
X90354Y59440D01*
X90550Y59439D01*
X90667Y59488D01*
X90794Y59488D01*
X91228Y59126D01*
Y53543D01*
X69460D01*
X69239Y53992D01*
X69262Y54021D01*
X69599Y54835D01*
X69714Y55709D01*
X69599Y56582D01*
X69262Y57396D01*
X68725Y58095D01*
X68026Y58632D01*
X67212Y58969D01*
X66339Y59084D01*
X65465Y58969D01*
X64651Y58632D01*
X63952Y58095D01*
X63415Y57396D01*
X63078Y56582D01*
X62963Y55709D01*
X63078Y54835D01*
X63415Y54021D01*
X63438Y53992D01*
X63217Y53543D01*
X52953D01*
X52561Y53543D01*
X51838Y53843D01*
X51284Y54397D01*
X50984Y55120D01*
X50984Y55512D01*
Y81496D01*
X50984Y95866D01*
X50984Y95866D01*
X51022Y96350D01*
X51284Y96981D01*
X51837Y97535D01*
X52561Y97835D01*
X52953Y97835D01*
D02*
G37*
%LPC*%
G36*
X54843Y21066D02*
X54163Y20931D01*
X53588Y20546D01*
X53203Y19971D01*
X53068Y19291D01*
X53203Y18612D01*
X53588Y18036D01*
X54163Y17652D01*
X54843Y17517D01*
X55522Y17652D01*
X56097Y18036D01*
X56482Y18612D01*
X56617Y19291D01*
X56482Y19971D01*
X56097Y20546D01*
X55522Y20931D01*
X54843Y21066D01*
D02*
G37*
G36*
X57284Y14794D02*
X56358Y14673D01*
X55497Y14315D01*
X54756Y13748D01*
X54188Y13007D01*
X53831Y12145D01*
X53710Y11220D01*
X53831Y10295D01*
X54188Y9433D01*
X54756Y8693D01*
X55497Y8125D01*
X56358Y7768D01*
X57284Y7647D01*
X58209Y7768D01*
X59070Y8125D01*
X59811Y8693D01*
X60378Y9433D01*
X60736Y10295D01*
X60857Y11220D01*
X60736Y12145D01*
X60378Y13007D01*
X59811Y13748D01*
X59070Y14315D01*
X58209Y14673D01*
X57284Y14794D01*
D02*
G37*
G36*
X85039Y13021D02*
X84166Y12906D01*
X83352Y12569D01*
X82653Y12032D01*
X82116Y11333D01*
X81779Y10519D01*
X81664Y9646D01*
X81779Y8772D01*
X82116Y7958D01*
X82653Y7259D01*
X83352Y6723D01*
X84166Y6385D01*
X85039Y6270D01*
X85913Y6385D01*
X86727Y6723D01*
X87426Y7259D01*
X87963Y7958D01*
X88300Y8772D01*
X88415Y9646D01*
X88300Y10519D01*
X87963Y11333D01*
X87426Y12032D01*
X86727Y12569D01*
X85913Y12906D01*
X85039Y13021D01*
D02*
G37*
G36*
X54646Y27759D02*
X53966Y27624D01*
X53391Y27239D01*
X53006Y26663D01*
X52871Y25984D01*
X53006Y25305D01*
X53391Y24729D01*
X53966Y24345D01*
X54646Y24210D01*
X55325Y24345D01*
X55901Y24729D01*
X56285Y25305D01*
X56420Y25984D01*
X56285Y26663D01*
X55901Y27239D01*
X55325Y27624D01*
X54646Y27759D01*
D02*
G37*
G36*
X59449Y68979D02*
X58770Y68844D01*
X58194Y68460D01*
X57623Y68506D01*
X57175Y68805D01*
X56496Y68940D01*
X55817Y68805D01*
X55505Y68596D01*
X55084Y68484D01*
X54768Y68612D01*
X54419Y68844D01*
X53740Y68979D01*
X53061Y68844D01*
X52485Y68460D01*
X52101Y67884D01*
X51965Y67205D01*
X52101Y66526D01*
X52485Y65950D01*
X53061Y65565D01*
X53740Y65430D01*
X54419Y65565D01*
X54731Y65774D01*
X55152Y65886D01*
X55469Y65759D01*
X55817Y65526D01*
X56496Y65391D01*
X57175Y65526D01*
X57751Y65911D01*
X58322Y65864D01*
X58770Y65565D01*
X59449Y65430D01*
X60128Y65565D01*
X60704Y65950D01*
X61088Y66526D01*
X61224Y67205D01*
X61088Y67884D01*
X60704Y68460D01*
X60128Y68844D01*
X59449Y68979D01*
D02*
G37*
G36*
X53976Y82287D02*
X53297Y82151D01*
X52722Y81767D01*
X52337Y81191D01*
X52202Y80512D01*
X52337Y79833D01*
X52722Y79257D01*
X53297Y78872D01*
X53976Y78737D01*
X54655Y78872D01*
X55231Y79257D01*
X55616Y79833D01*
X55751Y80512D01*
X55616Y81191D01*
X55231Y81767D01*
X54655Y82151D01*
X53976Y82287D01*
D02*
G37*
G36*
X54055Y88389D02*
X53376Y88254D01*
X52800Y87869D01*
X52416Y87293D01*
X52280Y86614D01*
X52416Y85935D01*
X52800Y85359D01*
X53376Y84975D01*
X54055Y84839D01*
X54734Y84975D01*
X55310Y85359D01*
X55695Y85935D01*
X55830Y86614D01*
X55695Y87293D01*
X55310Y87869D01*
X54734Y88254D01*
X54055Y88389D01*
D02*
G37*
%LPD*%
D18*
X8898Y72402D02*
Y80709D01*
X12795Y62205D02*
X18996D01*
X3543Y71457D02*
Y85354D01*
X14095Y67205D02*
X18996D01*
X8898Y72402D02*
X14095Y67205D01*
X3543Y71457D02*
X12795Y62205D01*
X3543Y85354D02*
X8898Y90709D01*
D21*
X85039Y9646D02*
D03*
X66339Y55709D02*
D03*
X57677Y74410D02*
D03*
X76772Y10039D02*
D03*
D22*
X92126Y56496D02*
D03*
Y64370D02*
D03*
X92126Y16732D02*
D03*
Y24606D02*
D03*
D23*
X18898Y80709D02*
D03*
X8898D02*
D03*
X18898Y90709D02*
D03*
X56339Y94685D02*
D03*
X57284Y11220D02*
D03*
D24*
X8898Y90709D02*
D03*
D25*
X66339Y94685D02*
D03*
X67283Y11220D02*
D03*
D26*
X11811Y52559D02*
D03*
Y35827D02*
D03*
X5118Y58071D02*
D03*
D27*
X53740Y67205D02*
D03*
X59449D02*
D03*
X56496Y67165D02*
D03*
X53740Y57205D02*
D03*
X59449D02*
D03*
X56496Y57165D02*
D03*
X53740Y42205D02*
D03*
X59449D02*
D03*
X56496Y42165D02*
D03*
X53740Y32205D02*
D03*
X59449D02*
D03*
X56496Y32165D02*
D03*
X80709Y67126D02*
D03*
X78740D02*
D03*
Y65157D02*
D03*
X80709D02*
D03*
X79331Y25016D02*
D03*
X81299D02*
D03*
Y26984D02*
D03*
X79331D02*
D03*
X87598Y82480D02*
D03*
X82874D02*
D03*
X87598Y77559D02*
D03*
X85236D02*
D03*
Y82480D02*
D03*
X87598Y84842D02*
D03*
X82874D02*
D03*
X85827Y40551D02*
D03*
X86024Y43307D02*
D03*
X83268Y40551D02*
D03*
X88583Y40748D02*
D03*
Y38189D02*
D03*
Y43307D02*
D03*
X83071D02*
D03*
X86024Y37992D02*
D03*
X87795Y80118D02*
D03*
X82874D02*
D03*
X85433D02*
D03*
X85236Y84842D02*
D03*
X18996Y67205D02*
D03*
Y62205D02*
D03*
X88386Y61811D02*
D03*
X85827D02*
D03*
Y66929D02*
D03*
X88386D02*
D03*
X85827Y64370D02*
D03*
X88386D02*
D03*
X88386Y22047D02*
D03*
X85827D02*
D03*
Y27165D02*
D03*
X88386D02*
D03*
X85827Y24606D02*
D03*
X88386D02*
D03*
X66535Y82480D02*
D03*
Y42913D02*
D03*
X11220Y58071D02*
D03*
X21850Y57284D02*
D03*
X19094D02*
D03*
X16142D02*
D03*
X21850Y52165D02*
D03*
X19094D02*
D03*
X16142D02*
D03*
X21850Y32283D02*
D03*
X19094D02*
D03*
X16142D02*
D03*
X54055Y86614D02*
D03*
X53976Y80512D02*
D03*
X60118Y86614D02*
D03*
X60039Y80512D02*
D03*
X54646Y25984D02*
D03*
X54843Y19291D02*
D03*
X60709Y25984D02*
D03*
X60905Y19291D02*
D03*
M02*
