G04 Layer_Physical_Order=1*
G04 Layer_Color=255*
%FSLAX25Y25*%
%MOIN*%
G70*
G01*
G75*
%ADD10R,0.03543X0.03740*%
%ADD11R,0.03543X0.03740*%
%ADD12R,0.03347X0.04000*%
%ADD13R,0.03268X0.03268*%
%ADD14R,0.04000X0.03347*%
%ADD15R,0.03661X0.03858*%
%ADD16R,0.08000X0.02200*%
%ADD17C,0.03200*%
%ADD18C,0.02200*%
%ADD19C,0.03800*%
%ADD20C,0.03000*%
%ADD21C,0.05512*%
G04:AMPARAMS|DCode=22|XSize=45mil|YSize=50mil|CornerRadius=11.25mil|HoleSize=0mil|Usage=FLASHONLY|Rotation=0.000|XOffset=0mil|YOffset=0mil|HoleType=Round|Shape=RoundedRectangle|*
%AMROUNDEDRECTD22*
21,1,0.04500,0.02750,0,0,0.0*
21,1,0.02250,0.05000,0,0,0.0*
1,1,0.02250,0.01125,-0.01375*
1,1,0.02250,-0.01125,-0.01375*
1,1,0.02250,-0.01125,0.01375*
1,1,0.02250,0.01125,0.01375*
%
%ADD22ROUNDEDRECTD22*%
%ADD23C,0.05906*%
%ADD24R,0.05906X0.05906*%
%ADD25R,0.05906X0.05906*%
%ADD26C,0.02700*%
%ADD27C,0.02300*%
G36*
X82087Y34271D02*
X90354Y34252D01*
X90354Y34271D01*
X90355Y34271D01*
X90739Y34195D01*
X91064Y33977D01*
X91281Y33652D01*
X91358Y33269D01*
X91358Y33268D01*
X91339Y21260D01*
X91358Y21260D01*
Y21260D01*
X91281Y20876D01*
X91064Y20550D01*
X90738Y20333D01*
X90354Y20256D01*
X90354D01*
X89961Y20276D01*
X89961Y20295D01*
X89577Y20218D01*
X89251Y20001D01*
X89034Y19675D01*
X88957Y19291D01*
X88976Y15551D01*
X88996Y15551D01*
X88996Y15551D01*
X88919Y15167D01*
X88702Y14842D01*
X88376Y14624D01*
X87992Y14548D01*
X87992Y14548D01*
X82677Y14567D01*
Y14548D01*
X82293Y14624D01*
X81968Y14842D01*
X81750Y15167D01*
X81674Y15551D01*
X81693Y18307D01*
X81674Y18307D01*
X81674Y18309D01*
X81750Y18692D01*
X81967Y19017D01*
X82292Y19234D01*
X82676Y19311D01*
X82677Y19310D01*
X83661Y19291D01*
Y19268D01*
X84122Y19360D01*
X84513Y19621D01*
X84774Y20012D01*
X84866Y20472D01*
X84842Y28740D01*
X84861Y28740D01*
X84862Y28741D01*
X84785Y29125D01*
X84568Y29450D01*
X84243Y29667D01*
X83859Y29744D01*
X83858Y29743D01*
X82087Y29724D01*
Y29705D01*
X82086Y29705D01*
X81702Y29781D01*
X81377Y29999D01*
X81160Y30324D01*
X81083Y30708D01*
X81083Y30709D01*
X81102Y33268D01*
X81083Y33268D01*
X81083Y33269D01*
X81159Y33653D01*
X81377Y33978D01*
X81702Y34195D01*
X82085Y34271D01*
X82087Y34271D01*
D02*
G37*
G36*
X82087Y74035D02*
X90354Y74016D01*
X90354Y74035D01*
X90355Y74035D01*
X90739Y73959D01*
X91064Y73741D01*
X91281Y73416D01*
X91358Y73032D01*
X91358Y73032D01*
X91339Y61024D01*
X91358Y61023D01*
Y61023D01*
X91281Y60640D01*
X91064Y60314D01*
X90738Y60096D01*
X90354Y60020D01*
X90354D01*
X89961Y60039D01*
X89961Y60059D01*
X89577Y59982D01*
X89251Y59765D01*
X89034Y59439D01*
X88957Y59055D01*
X88976Y55315D01*
X88996Y55315D01*
X88996Y55315D01*
X88919Y54931D01*
X88702Y54605D01*
X88376Y54388D01*
X87992Y54311D01*
X87992Y54311D01*
X82677Y54331D01*
Y54311D01*
X82293Y54388D01*
X81968Y54605D01*
X81750Y54931D01*
X81674Y55315D01*
X81693Y58071D01*
X81674Y58071D01*
X81674Y58073D01*
X81750Y58456D01*
X81967Y58781D01*
X82292Y58998D01*
X82676Y59074D01*
X82677Y59074D01*
X83661Y59055D01*
Y59032D01*
X84122Y59124D01*
X84513Y59385D01*
X84774Y59775D01*
X84866Y60236D01*
X84842Y68504D01*
X84861Y68504D01*
X84862Y68505D01*
X84785Y68889D01*
X84568Y69214D01*
X84243Y69431D01*
X83859Y69507D01*
X83858Y69507D01*
X82087Y69488D01*
Y69469D01*
X82086Y69469D01*
X81702Y69545D01*
X81377Y69763D01*
X81159Y70088D01*
X81083Y70472D01*
X81083Y70472D01*
X81102Y73032D01*
X81083Y73031D01*
X81083Y73033D01*
X81159Y73416D01*
X81377Y73742D01*
X81702Y73959D01*
X82085Y74035D01*
X82087Y74035D01*
D02*
G37*
D10*
X76378Y16740D02*
D03*
X80118Y25992D02*
D03*
X76181Y56898D02*
D03*
X79921Y66150D02*
D03*
D11*
X83858Y16740D02*
D03*
X83662Y56898D02*
D03*
D12*
X83071Y32087D02*
D03*
X77165D02*
D03*
X83071Y71653D02*
D03*
X77165D02*
D03*
Y82677D02*
D03*
X83071D02*
D03*
X71653Y62205D02*
D03*
X65748D02*
D03*
X72441Y71653D02*
D03*
X66535D02*
D03*
X77165Y43110D02*
D03*
X83071D02*
D03*
X71850Y23228D02*
D03*
X65945D02*
D03*
X72441Y32087D02*
D03*
X66535D02*
D03*
D13*
X86083Y77165D02*
D03*
X77165D02*
D03*
X86024Y37598D02*
D03*
X77106D02*
D03*
D14*
X66535Y76575D02*
D03*
Y82480D02*
D03*
X66535Y37008D02*
D03*
Y42913D02*
D03*
X11811Y41732D02*
D03*
Y35827D02*
D03*
Y46654D02*
D03*
Y52559D02*
D03*
D15*
X5039Y58071D02*
D03*
X11102D02*
D03*
X60118Y86614D02*
D03*
X54055D02*
D03*
X60039Y80512D02*
D03*
X53976D02*
D03*
X60905Y19291D02*
D03*
X54843D02*
D03*
X60709Y25984D02*
D03*
X54646D02*
D03*
D16*
X18996Y62205D02*
D03*
Y57205D02*
D03*
Y52205D02*
D03*
Y47205D02*
D03*
Y42205D02*
D03*
Y37205D02*
D03*
Y32205D02*
D03*
X56496Y62205D02*
D03*
X18996Y67205D02*
D03*
X56496Y37205D02*
D03*
Y42205D02*
D03*
Y47205D02*
D03*
Y52205D02*
D03*
Y57205D02*
D03*
Y32205D02*
D03*
Y67205D02*
D03*
D17*
X65945Y23228D02*
Y26378D01*
X66535Y26969D01*
Y32087D01*
X83071Y43110D02*
X84449D01*
X86024Y41535D01*
Y37598D02*
Y41535D01*
X83071Y82677D02*
X84646D01*
X86083Y81240D01*
Y77165D02*
Y81240D01*
X77165Y77165D02*
Y82677D01*
X66535Y71653D02*
Y76575D01*
X65748Y62205D02*
Y66339D01*
X66535Y67126D01*
Y71653D01*
X77165D02*
Y77165D01*
Y32087D02*
Y43110D01*
X71850Y18504D02*
Y23228D01*
Y18504D02*
X73614Y16740D01*
X76378D01*
X66535Y32087D02*
Y37008D01*
X53976Y80512D02*
Y86535D01*
X54055Y86614D01*
Y92402D01*
X56339Y94685D01*
X54646Y19488D02*
Y25984D01*
Y19488D02*
X54843Y19291D01*
Y13661D02*
Y19291D01*
Y13661D02*
X57284Y11220D01*
X71653Y59252D02*
Y62205D01*
Y59252D02*
X74008Y56898D01*
X76181D01*
D18*
X56496Y62205D02*
X65748D01*
X65748Y62205D01*
X12244Y47205D02*
X18996D01*
X12323Y42205D02*
X18996D01*
X13150Y52205D02*
X18996D01*
X56496Y37205D02*
X66535D01*
X11220Y58071D02*
X12008Y57284D01*
X15945D01*
X66339Y55709D02*
X68898Y53150D01*
X79914D01*
X83662Y56898D01*
D19*
X72835Y32087D02*
X76772D01*
X76772Y71653D02*
X76772Y71653D01*
X72835Y71653D02*
X76772D01*
D20*
X85039Y9646D02*
Y15559D01*
X83858Y16740D02*
X85039Y15559D01*
D21*
Y9646D02*
D03*
X66339Y55709D02*
D03*
X57677Y74410D02*
D03*
X76772Y10039D02*
D03*
D22*
X92126Y56496D02*
D03*
Y64370D02*
D03*
X92126Y16732D02*
D03*
Y24606D02*
D03*
D23*
X18898Y80709D02*
D03*
X8898D02*
D03*
X18898Y90709D02*
D03*
X56339Y94685D02*
D03*
X57284Y11220D02*
D03*
D24*
X8898Y90709D02*
D03*
D25*
X66339Y94685D02*
D03*
X67283Y11220D02*
D03*
D26*
X11811Y52559D02*
D03*
Y35827D02*
D03*
X5118Y58071D02*
D03*
D27*
X53740Y67205D02*
D03*
X59449D02*
D03*
X56496Y67165D02*
D03*
X53740Y57205D02*
D03*
X59449D02*
D03*
X56496Y57165D02*
D03*
X53740Y42205D02*
D03*
X59449D02*
D03*
X56496Y42165D02*
D03*
X53740Y32205D02*
D03*
X59449D02*
D03*
X56496Y32165D02*
D03*
X80709Y67126D02*
D03*
X78740D02*
D03*
Y65157D02*
D03*
X80709D02*
D03*
X79331Y25016D02*
D03*
X81299D02*
D03*
Y26984D02*
D03*
X79331D02*
D03*
X87598Y82480D02*
D03*
X82874D02*
D03*
X87598Y77559D02*
D03*
X85236D02*
D03*
Y82480D02*
D03*
X87598Y84842D02*
D03*
X82874D02*
D03*
X85827Y40551D02*
D03*
X86024Y43307D02*
D03*
X83268Y40551D02*
D03*
X88583Y40748D02*
D03*
Y38189D02*
D03*
Y43307D02*
D03*
X83071D02*
D03*
X86024Y37992D02*
D03*
X87795Y80118D02*
D03*
X82874D02*
D03*
X85433D02*
D03*
X85236Y84842D02*
D03*
X18996Y67205D02*
D03*
Y62205D02*
D03*
X88386Y61811D02*
D03*
X85827D02*
D03*
Y66929D02*
D03*
X88386D02*
D03*
X85827Y64370D02*
D03*
X88386D02*
D03*
X88386Y22047D02*
D03*
X85827D02*
D03*
Y27165D02*
D03*
X88386D02*
D03*
X85827Y24606D02*
D03*
X88386D02*
D03*
X66535Y82480D02*
D03*
Y42913D02*
D03*
X11220Y58071D02*
D03*
X21850Y57284D02*
D03*
X19094D02*
D03*
X16142D02*
D03*
X21850Y52165D02*
D03*
X19094D02*
D03*
X16142D02*
D03*
X21850Y32283D02*
D03*
X19094D02*
D03*
X16142D02*
D03*
X54055Y86614D02*
D03*
X53976Y80512D02*
D03*
X60118Y86614D02*
D03*
X60039Y80512D02*
D03*
X54646Y25984D02*
D03*
X54843Y19291D02*
D03*
X60709Y25984D02*
D03*
X60905Y19291D02*
D03*
M02*
