M48
;Layer_Color=9474304
;FILE_FORMAT=2:5
INCH,LZ
;TYPE=PLATED
T1F00S00C0.02800
T2F00S00C0.03543
T3F00S00C0.04331
%
T01
X0348Y02185
X03485Y02335
X03685Y0231
X0367Y0223
X0386093Y021625
X0396Y02255
X03925Y0244
X04005Y0247
X041Y0246
X03915Y0267
X0389Y0279
X03775Y02735
Y0285
X03175Y02785
X0313Y02945
X03255Y03065
X03025Y02925
X02765Y03025
X02605Y0302
X0238Y0304
X02505Y0278
X0223905Y0265406
X0232Y0252
X02235Y0244
X02115Y0247
X0231Y0314
X02235Y0323
X0252Y0342
X02535Y0362
X02705Y03635
X0235094Y0364094
X02265Y0369
X0244Y0379
T02
X0474331Y0223406
X0484331
X0494331
X0504331
X0529331Y025372
Y026372
Y0273721
Y028372
Y0293721
Y030372
X0464331Y0223406
X0454331
X0444331
X0434331
X0424331
X0414331
X0404331
X03265Y0221
Y0231
X03285Y0248
X03385
X0313
X03595Y03105
X03695
X0303Y0248
X02655Y0219
X02555
X02455
X02355
X02255
X02155
X02055
X0214331Y0259469
Y0269468
Y0279468
Y0289469
Y0299468
Y0309469
Y0319468
Y0329468
Y0339469
Y0349468
Y0359469
Y0369468
Y0379468
Y0389469
X0548831Y039022
Y0380221
Y0417721
Y042772
T03
X05Y02535
Y02735
Y02935
Y03035
X0468
Y02935
Y02735
Y02535
X0436
Y02735
Y02935
Y03035
M30
