G04 Layer_Color=65535*
%FSLAX25Y25*%
%MOIN*%
G70*
G01*
G75*
%ADD16C,0.01000*%
%ADD24C,0.01575*%
%ADD25C,0.01181*%
%ADD26C,0.02362*%
%ADD27C,0.00394*%
%ADD28C,0.00787*%
D16*
X296783Y258594D02*
Y278279D01*
X320406D01*
Y258594D02*
Y278279D01*
X296783Y258594D02*
X320406D01*
X244032Y244850D02*
X249150D01*
Y251150D01*
X244032D02*
X249150D01*
X237339D02*
X242063D01*
X236945D02*
X237339D01*
X236945Y244850D02*
Y251150D01*
Y244850D02*
X242063D01*
X244531Y307850D02*
X249650D01*
Y314150D01*
X244531D02*
X249650D01*
X237839D02*
X242563D01*
X237445D02*
X237839D01*
X237445Y307850D02*
Y314150D01*
Y307850D02*
X242563D01*
X240020Y297472D02*
X254980D01*
Y256528D02*
Y297472D01*
X240020Y256528D02*
X254980D01*
X240020D02*
Y297472D01*
X239520Y357472D02*
X254480D01*
Y316528D02*
Y357472D01*
X239520Y316528D02*
X254480D01*
X239520D02*
Y357472D01*
X346902Y214976D02*
Y237024D01*
X372098D01*
Y214976D02*
Y237024D01*
X346902Y214976D02*
X372098D01*
X316850Y290150D02*
X321969D01*
X316850Y283850D02*
Y290150D01*
Y283850D02*
X321969D01*
X323937D02*
X328661D01*
X329055D01*
Y290150D01*
X323937D02*
X329055D01*
X340531Y263850D02*
X345650D01*
Y270150D01*
X340531D02*
X345650D01*
X333839D02*
X338563D01*
X333445D02*
X333839D01*
X333445Y263850D02*
Y270150D01*
Y263850D02*
X338563D01*
X339850Y301650D02*
X344969D01*
X339850Y295350D02*
Y301650D01*
Y295350D02*
X344969D01*
X346937D02*
X351661D01*
X352055D01*
Y301650D01*
X346937D02*
X352055D01*
X330031Y295850D02*
X335150D01*
Y302150D01*
X330031D02*
X335150D01*
X323339D02*
X328063D01*
X322945D02*
X323339D01*
X322945Y295850D02*
Y302150D01*
Y295850D02*
X328063D01*
X394650Y257531D02*
Y262650D01*
X388350D02*
X394650D01*
X388350Y257531D02*
Y262650D01*
Y250839D02*
Y255563D01*
Y250445D02*
Y250839D01*
Y250445D02*
X394650D01*
Y255563D01*
X399350Y230850D02*
Y235968D01*
Y230850D02*
X405650D01*
Y235968D01*
Y237937D02*
Y242661D01*
Y243055D01*
X399350D02*
X405650D01*
X399350Y237937D02*
Y243055D01*
X413350Y230850D02*
Y235968D01*
Y230850D02*
X419650D01*
Y235968D01*
Y237937D02*
Y242661D01*
Y243055D01*
X413350D02*
X419650D01*
X413350Y237937D02*
Y243055D01*
X415350Y249850D02*
Y254969D01*
Y249850D02*
X421650D01*
Y254969D01*
Y256937D02*
Y261661D01*
Y262055D01*
X415350D02*
X421650D01*
X415350Y256937D02*
Y262055D01*
X510650Y265531D02*
Y270650D01*
X504350D02*
X510650D01*
X504350Y265531D02*
Y270650D01*
Y258839D02*
Y263563D01*
Y258445D02*
Y258839D01*
Y258445D02*
X510650D01*
Y263563D01*
X513150Y299031D02*
Y304150D01*
X506850D02*
X513150D01*
X506850Y299031D02*
Y304150D01*
Y292339D02*
Y297063D01*
Y291945D02*
Y292339D01*
Y291945D02*
X513150D01*
Y297063D01*
X480150Y264032D02*
Y269150D01*
X473850D02*
X480150D01*
X473850Y264032D02*
Y269150D01*
Y257339D02*
Y262063D01*
Y256945D02*
Y257339D01*
Y256945D02*
X480150D01*
Y262063D01*
X481150Y299532D02*
Y304650D01*
X474850D02*
X481150D01*
X474850Y299532D02*
Y304650D01*
Y292839D02*
Y297563D01*
Y292445D02*
Y292839D01*
Y292445D02*
X481150D01*
Y297563D01*
X448150Y265032D02*
Y270150D01*
X441850D02*
X448150D01*
X441850Y265032D02*
Y270150D01*
Y258339D02*
Y263063D01*
Y257945D02*
Y258339D01*
Y257945D02*
X448150D01*
Y263063D01*
Y299532D02*
Y304650D01*
X441850D02*
X448150D01*
X441850Y299532D02*
Y304650D01*
Y292839D02*
Y297563D01*
Y292445D02*
Y292839D01*
Y292445D02*
X448150D01*
Y297563D01*
X275150Y293032D02*
Y298150D01*
X268850D02*
X275150D01*
X268850Y293032D02*
Y298150D01*
Y286339D02*
Y291063D01*
Y285945D02*
Y286339D01*
Y285945D02*
X275150D01*
Y291063D01*
X222350Y307150D02*
X227468D01*
X222350Y300850D02*
Y307150D01*
Y300850D02*
X227468D01*
X229437D02*
X234161D01*
X234555D01*
Y307150D01*
X229437D02*
X234555D01*
X273650Y352532D02*
Y357650D01*
X267350D02*
X273650D01*
X267350Y352532D02*
Y357650D01*
Y345839D02*
Y350563D01*
Y345445D02*
Y345839D01*
Y345445D02*
X273650D01*
Y350563D01*
X247150Y368032D02*
Y373150D01*
X240850D02*
X247150D01*
X240850Y368032D02*
Y373150D01*
Y361339D02*
Y366063D01*
Y360945D02*
Y361339D01*
Y360945D02*
X247150D01*
Y366063D01*
X371650Y283032D02*
Y288150D01*
X365350D02*
X371650D01*
X365350Y283032D02*
Y288150D01*
Y276339D02*
Y281063D01*
Y275945D02*
Y276339D01*
Y275945D02*
X371650D01*
Y281063D01*
X397350Y250350D02*
Y255469D01*
Y250350D02*
X403650D01*
Y255469D01*
Y257437D02*
Y262161D01*
Y262555D01*
X397350D02*
X403650D01*
X397350Y257437D02*
Y262555D01*
X299850Y286650D02*
X304969D01*
X299850Y280350D02*
Y286650D01*
Y280350D02*
X304969D01*
X306937D02*
X311661D01*
X312055D01*
Y286650D01*
X306937D02*
X312055D01*
X360850Y270650D02*
X365968D01*
X360850Y264350D02*
Y270650D01*
Y264350D02*
X365968D01*
X367937D02*
X372661D01*
X373055D01*
Y270650D01*
X367937D02*
X373055D01*
X413150Y256937D02*
Y262055D01*
X406850D02*
X413150D01*
X406850Y256937D02*
Y262055D01*
Y250244D02*
Y254969D01*
Y249850D02*
Y250244D01*
Y249850D02*
X413150D01*
Y254969D01*
X329650Y270031D02*
Y275150D01*
X323350D02*
X329650D01*
X323350Y270031D02*
Y275150D01*
Y263339D02*
Y268063D01*
Y262945D02*
Y263339D01*
Y262945D02*
X329650D01*
Y268063D01*
X387850Y224850D02*
Y229969D01*
Y224850D02*
X394150D01*
Y229969D01*
Y231937D02*
Y236661D01*
Y237055D01*
X387850D02*
X394150D01*
X387850Y231937D02*
Y237055D01*
X524931Y312100D02*
Y318098D01*
X527930D01*
X528929Y317098D01*
Y315099D01*
X527930Y314099D01*
X524931D01*
X530929Y318098D02*
X534928D01*
Y317098D01*
X530929Y313100D01*
Y312100D01*
X299500Y251000D02*
Y256998D01*
X302499D01*
X303499Y255998D01*
Y253999D01*
X302499Y252999D01*
X299500D01*
X301499D02*
X303499Y251000D01*
X309497Y256998D02*
X305498D01*
Y251000D01*
X309497D01*
X305498Y253999D02*
X307497D01*
X315495Y256998D02*
X311496D01*
Y253999D01*
X313495D01*
X311496D01*
Y251000D01*
X317494D02*
X319494D01*
X318494D01*
Y256998D01*
X317494Y255998D01*
X224999Y249998D02*
X223999Y250998D01*
X222000D01*
X221000Y249998D01*
Y246000D01*
X222000Y245000D01*
X223999D01*
X224999Y246000D01*
X226998Y245000D02*
X228997D01*
X227998D01*
Y250998D01*
X226998Y249998D01*
X235995Y250998D02*
X233996Y249998D01*
X231996Y247999D01*
Y246000D01*
X232996Y245000D01*
X234996D01*
X235995Y246000D01*
Y246999D01*
X234996Y247999D01*
X231996D01*
X255999Y313998D02*
X254999Y314998D01*
X253000D01*
X252000Y313998D01*
Y310000D01*
X253000Y309000D01*
X254999D01*
X255999Y310000D01*
X257998Y309000D02*
X259997D01*
X258998D01*
Y314998D01*
X257998Y313998D01*
X266995Y309000D02*
X262996D01*
X266995Y312999D01*
Y313998D01*
X265996Y314998D01*
X263996D01*
X262996Y313998D01*
X213899Y403898D02*
X211899D01*
X212899D01*
Y398900D01*
X211899Y397900D01*
X210900D01*
X209900Y398900D01*
X215898Y397900D02*
Y403898D01*
X218897D01*
X219897Y402898D01*
Y400899D01*
X218897Y399899D01*
X215898D01*
X225895Y397900D02*
X221896D01*
X225895Y401899D01*
Y402898D01*
X224895Y403898D01*
X222896D01*
X221896Y402898D01*
X245000Y304498D02*
Y299500D01*
X246000Y298500D01*
X247999D01*
X248999Y299500D01*
Y304498D01*
X250998Y303498D02*
X251998Y304498D01*
X253997D01*
X254997Y303498D01*
Y302499D01*
X253997Y301499D01*
X252997D01*
X253997D01*
X254997Y300499D01*
Y299500D01*
X253997Y298500D01*
X251998D01*
X250998Y299500D01*
X229900Y367998D02*
Y363000D01*
X230900Y362000D01*
X232899D01*
X233899Y363000D01*
Y367998D01*
X239897Y362000D02*
X235898D01*
X239897Y365999D01*
Y366998D01*
X238897Y367998D01*
X236898D01*
X235898Y366998D01*
X335300Y247998D02*
Y243000D01*
X336300Y242000D01*
X338299D01*
X339299Y243000D01*
Y247998D01*
X341298Y242000D02*
X343297D01*
X342298D01*
Y247998D01*
X341298Y246998D01*
X317350Y293650D02*
Y299648D01*
X320349D01*
X321349Y298648D01*
Y296649D01*
X320349Y295649D01*
X317350D01*
X319349D02*
X321349Y293650D01*
X323348D02*
X325347D01*
X324348D01*
Y299648D01*
X323348Y298648D01*
X328346Y293650D02*
X330346D01*
X329346D01*
Y299648D01*
X328346Y298648D01*
X333900Y273600D02*
Y279598D01*
X336899D01*
X337899Y278598D01*
Y276599D01*
X336899Y275599D01*
X333900D01*
X335899D02*
X337899Y273600D01*
X339898D02*
X341897D01*
X340898D01*
Y279598D01*
X339898Y278598D01*
X344896D02*
X345896Y279598D01*
X347896D01*
X348895Y278598D01*
Y274600D01*
X347896Y273600D01*
X345896D01*
X344896Y274600D01*
Y278598D01*
X340350Y305150D02*
Y311148D01*
X343349D01*
X344349Y310148D01*
Y308149D01*
X343349Y307149D01*
X340350D01*
X342349D02*
X344349Y305150D01*
X346348Y306150D02*
X347348Y305150D01*
X349347D01*
X350347Y306150D01*
Y310148D01*
X349347Y311148D01*
X347348D01*
X346348Y310148D01*
Y309149D01*
X347348Y308149D01*
X350347D01*
X323400Y305600D02*
Y311598D01*
X326399D01*
X327399Y310598D01*
Y308599D01*
X326399Y307599D01*
X323400D01*
X325399D02*
X327399Y305600D01*
X329398Y310598D02*
X330398Y311598D01*
X332397D01*
X333397Y310598D01*
Y309599D01*
X332397Y308599D01*
X333397Y307599D01*
Y306600D01*
X332397Y305600D01*
X330398D01*
X329398Y306600D01*
Y307599D01*
X330398Y308599D01*
X329398Y309599D01*
Y310598D01*
X330398Y308599D02*
X332397D01*
X388900Y266100D02*
Y272098D01*
X391899D01*
X392899Y271098D01*
Y269099D01*
X391899Y268099D01*
X388900D01*
X390899D02*
X392899Y266100D01*
X394898Y272098D02*
X398897D01*
Y271098D01*
X394898Y267100D01*
Y266100D01*
X390500Y245500D02*
Y251498D01*
X393499D01*
X394499Y250498D01*
Y248499D01*
X393499Y247499D01*
X390500D01*
X392499D02*
X394499Y245500D01*
X400497Y251498D02*
X398497Y250498D01*
X396498Y248499D01*
Y246500D01*
X397498Y245500D01*
X399497D01*
X400497Y246500D01*
Y247499D01*
X399497Y248499D01*
X396498D01*
X423500Y234500D02*
Y240498D01*
X426499D01*
X427499Y239498D01*
Y237499D01*
X426499Y236499D01*
X423500D01*
X425499D02*
X427499Y234500D01*
X433497Y240498D02*
X429498D01*
Y237499D01*
X431497Y238499D01*
X432497D01*
X433497Y237499D01*
Y235500D01*
X432497Y234500D01*
X430498D01*
X429498Y235500D01*
X424000Y260000D02*
Y265998D01*
X426999D01*
X427999Y264998D01*
Y262999D01*
X426999Y261999D01*
X424000D01*
X425999D02*
X427999Y260000D01*
X432997D02*
Y265998D01*
X429998Y262999D01*
X433997D01*
X508899Y279098D02*
X507899Y280098D01*
X505900D01*
X504900Y279098D01*
Y275100D01*
X505900Y274100D01*
X507899D01*
X508899Y275100D01*
X514897Y274100D02*
X510898D01*
X514897Y278099D01*
Y279098D01*
X513897Y280098D01*
X511898D01*
X510898Y279098D01*
X516896D02*
X517896Y280098D01*
X519895D01*
X520895Y279098D01*
Y278099D01*
X519895Y277099D01*
X518895D01*
X519895D01*
X520895Y276099D01*
Y275100D01*
X519895Y274100D01*
X517896D01*
X516896Y275100D01*
X511399Y312598D02*
X510399Y313598D01*
X508400D01*
X507400Y312598D01*
Y308600D01*
X508400Y307600D01*
X510399D01*
X511399Y308600D01*
X517397Y307600D02*
X513398D01*
X517397Y311599D01*
Y312598D01*
X516397Y313598D01*
X514398D01*
X513398Y312598D01*
X523395Y307600D02*
X519396D01*
X523395Y311599D01*
Y312598D01*
X522395Y313598D01*
X520396D01*
X519396Y312598D01*
X478399Y277598D02*
X477399Y278598D01*
X475400D01*
X474400Y277598D01*
Y273600D01*
X475400Y272600D01*
X477399D01*
X478399Y273600D01*
X484397Y272600D02*
X480398D01*
X484397Y276599D01*
Y277598D01*
X483397Y278598D01*
X481398D01*
X480398Y277598D01*
X486396Y272600D02*
X488396D01*
X487396D01*
Y278598D01*
X486396Y277598D01*
X479399Y313098D02*
X478399Y314098D01*
X476400D01*
X475400Y313098D01*
Y309100D01*
X476400Y308100D01*
X478399D01*
X479399Y309100D01*
X485397Y308100D02*
X481398D01*
X485397Y312099D01*
Y313098D01*
X484397Y314098D01*
X482398D01*
X481398Y313098D01*
X487396D02*
X488396Y314098D01*
X490395D01*
X491395Y313098D01*
Y309100D01*
X490395Y308100D01*
X488396D01*
X487396Y309100D01*
Y313098D01*
X448499Y252498D02*
X447499Y253498D01*
X445500D01*
X444500Y252498D01*
Y248500D01*
X445500Y247500D01*
X447499D01*
X448499Y248500D01*
X450498Y247500D02*
X452497D01*
X451498D01*
Y253498D01*
X450498Y252498D01*
X455496Y248500D02*
X456496Y247500D01*
X458496D01*
X459495Y248500D01*
Y252498D01*
X458496Y253498D01*
X456496D01*
X455496Y252498D01*
Y251499D01*
X456496Y250499D01*
X459495D01*
X446399Y313098D02*
X445399Y314098D01*
X443400D01*
X442400Y313098D01*
Y309100D01*
X443400Y308100D01*
X445399D01*
X446399Y309100D01*
X448398Y308100D02*
X450397D01*
X449398D01*
Y314098D01*
X448398Y313098D01*
X453396D02*
X454396Y314098D01*
X456395D01*
X457395Y313098D01*
Y312099D01*
X456395Y311099D01*
X457395Y310099D01*
Y309100D01*
X456395Y308100D01*
X454396D01*
X453396Y309100D01*
Y310099D01*
X454396Y311099D01*
X453396Y312099D01*
Y313098D01*
X454396Y311099D02*
X456395D01*
X273399Y306598D02*
X272399Y307598D01*
X270400D01*
X269400Y306598D01*
Y302600D01*
X270400Y301600D01*
X272399D01*
X273399Y302600D01*
X275398Y301600D02*
X277397D01*
X276398D01*
Y307598D01*
X275398Y306598D01*
X284395Y307598D02*
X280396D01*
Y304599D01*
X282396Y305599D01*
X283396D01*
X284395Y304599D01*
Y302600D01*
X283396Y301600D01*
X281396D01*
X280396Y302600D01*
X226899Y315598D02*
X225899Y316598D01*
X223900D01*
X222900Y315598D01*
Y311600D01*
X223900Y310600D01*
X225899D01*
X226899Y311600D01*
X228898Y310600D02*
X230897D01*
X229898D01*
Y316598D01*
X228898Y315598D01*
X236895Y310600D02*
Y316598D01*
X233896Y313599D01*
X237895D01*
X256999Y368498D02*
X255999Y369498D01*
X254000D01*
X253000Y368498D01*
Y364500D01*
X254000Y363500D01*
X255999D01*
X256999Y364500D01*
X258998Y363500D02*
X260997D01*
X259998D01*
Y369498D01*
X258998Y368498D01*
X263996Y363500D02*
X265996D01*
X264996D01*
Y369498D01*
X263996Y368498D01*
X244499Y387498D02*
X243499Y388498D01*
X241500D01*
X240500Y387498D01*
Y383500D01*
X241500Y382500D01*
X243499D01*
X244499Y383500D01*
X246498Y382500D02*
X248497D01*
X247498D01*
Y388498D01*
X246498Y387498D01*
X251496D02*
X252496Y388498D01*
X254496D01*
X255495Y387498D01*
Y383500D01*
X254496Y382500D01*
X252496D01*
X251496Y383500D01*
Y387498D01*
X369899Y296598D02*
X368899Y297598D01*
X366900D01*
X365900Y296598D01*
Y292600D01*
X366900Y291600D01*
X368899D01*
X369899Y292600D01*
X371898D02*
X372898Y291600D01*
X374897D01*
X375897Y292600D01*
Y296598D01*
X374897Y297598D01*
X372898D01*
X371898Y296598D01*
Y295599D01*
X372898Y294599D01*
X375897D01*
X401899Y271098D02*
X400899Y272098D01*
X398900D01*
X397900Y271098D01*
Y267100D01*
X398900Y266100D01*
X400899D01*
X401899Y267100D01*
X403898Y271098D02*
X404898Y272098D01*
X406897D01*
X407897Y271098D01*
Y270099D01*
X406897Y269099D01*
X407897Y268099D01*
Y267100D01*
X406897Y266100D01*
X404898D01*
X403898Y267100D01*
Y268099D01*
X404898Y269099D01*
X403898Y270099D01*
Y271098D01*
X404898Y269099D02*
X406897D01*
X304399Y295098D02*
X303399Y296098D01*
X301400D01*
X300400Y295098D01*
Y291100D01*
X301400Y290100D01*
X303399D01*
X304399Y291100D01*
X306398Y296098D02*
X310397D01*
Y295098D01*
X306398Y291100D01*
Y290100D01*
X379999Y269998D02*
X378999Y270998D01*
X377000D01*
X376000Y269998D01*
Y266000D01*
X377000Y265000D01*
X378999D01*
X379999Y266000D01*
X385997Y270998D02*
X383997Y269998D01*
X381998Y267999D01*
Y266000D01*
X382998Y265000D01*
X384997D01*
X385997Y266000D01*
Y266999D01*
X384997Y267999D01*
X381998D01*
X411399Y270598D02*
X410399Y271598D01*
X408400D01*
X407400Y270598D01*
Y266600D01*
X408400Y265600D01*
X410399D01*
X411399Y266600D01*
X417397Y271598D02*
X413398D01*
Y268599D01*
X415397Y269599D01*
X416397D01*
X417397Y268599D01*
Y266600D01*
X416397Y265600D01*
X414398D01*
X413398Y266600D01*
X323502Y283499D02*
X322502Y282499D01*
Y280500D01*
X323502Y279500D01*
X327500D01*
X328500Y280500D01*
Y282499D01*
X327500Y283499D01*
X328500Y288497D02*
X322502D01*
X325501Y285498D01*
Y289497D01*
X391999Y219998D02*
X390999Y220998D01*
X389000D01*
X388000Y219998D01*
Y216000D01*
X389000Y215000D01*
X390999D01*
X391999Y216000D01*
X397997Y215000D02*
X393998D01*
X397997Y218999D01*
Y219998D01*
X396997Y220998D01*
X394998D01*
X393998Y219998D01*
X332600Y301498D02*
X336599Y297500D01*
X332600D02*
X336599Y301498D01*
X332600Y299499D02*
X336599D01*
X334599Y297500D02*
Y301498D01*
X338598D02*
X339598Y302498D01*
X341597D01*
X342597Y301498D01*
Y300499D01*
X341597Y299499D01*
X340597D01*
X341597D01*
X342597Y298499D01*
Y297500D01*
X341597Y296500D01*
X339598D01*
X338598Y297500D01*
X356100Y270398D02*
X360099Y266400D01*
X356100D02*
X360099Y270398D01*
X356100Y268399D02*
X360099D01*
X358099Y266400D02*
Y270398D01*
X366097Y265400D02*
X362098D01*
X366097Y269399D01*
Y270398D01*
X365097Y271398D01*
X363098D01*
X362098Y270398D01*
X544400Y436100D02*
Y442098D01*
X547399D01*
X548399Y441098D01*
Y439099D01*
X547399Y438099D01*
X544400D01*
X554397Y436100D02*
X550398D01*
X554397Y440099D01*
Y441098D01*
X553397Y442098D01*
X551398D01*
X550398Y441098D01*
X556396Y436100D02*
X558395D01*
X557396D01*
Y442098D01*
X556396Y441098D01*
X544400Y398600D02*
Y404598D01*
X547399D01*
X548399Y403598D01*
Y401599D01*
X547399Y400599D01*
X544400D01*
X554397Y398600D02*
X550398D01*
X554397Y402599D01*
Y403598D01*
X553397Y404598D01*
X551398D01*
X550398Y403598D01*
X560395Y398600D02*
X556396D01*
X560395Y402599D01*
Y403598D01*
X559395Y404598D01*
X557396D01*
X556396Y403598D01*
X404329Y214998D02*
X402330D01*
X403330D01*
Y210000D01*
X402330Y209000D01*
X401330D01*
X400331Y210000D01*
X406329Y209000D02*
Y214998D01*
X409328D01*
X410327Y213998D01*
Y211999D01*
X409328Y210999D01*
X406329D01*
X412327Y209000D02*
X414326D01*
X413327D01*
Y214998D01*
X412327Y213998D01*
D24*
X243563Y294717D02*
G03*
X243563Y294717I-787J0D01*
G01*
X243063Y354716D02*
G03*
X243063Y354716I-787J0D01*
G01*
X338240Y237417D02*
G03*
X338240Y237417I-787J0D01*
G01*
D25*
X232736Y297866D02*
G03*
X232736Y297866I-591J0D01*
G01*
X232236Y357866D02*
G03*
X232236Y357866I-591J0D01*
G01*
D26*
X351626Y233480D02*
G03*
X351626Y233480I-1181J0D01*
G01*
D27*
X201000Y394000D02*
X207000Y400000D01*
X201000Y211500D02*
Y394000D01*
Y211500D02*
X283500D01*
Y311500D01*
X274500Y320500D02*
X283500Y311500D01*
X274500Y320500D02*
Y394000D01*
X268500Y400000D02*
X274500Y394000D01*
X207000Y400000D02*
X268500D01*
X341905Y272783D02*
X351748D01*
Y293256D01*
X341905Y272783D02*
Y293256D01*
X344366D02*
X346827Y290795D01*
X341905Y293256D02*
X344366D01*
X346827Y290795D02*
X349287Y293256D01*
X351748D01*
X365752Y262216D02*
X375594D01*
X365752Y241744D02*
Y262216D01*
X375594Y241744D02*
Y262216D01*
X370673Y244205D02*
X373134Y241744D01*
X375594D01*
X368213D02*
X370673Y244205D01*
X365752Y241744D02*
X368213D01*
D28*
X534331Y248721D02*
Y308720D01*
X524331Y248721D02*
Y308720D01*
Y248721D02*
X534331D01*
X524331Y308720D02*
X534331D01*
X209331Y394468D02*
X219331D01*
Y254468D02*
Y394468D01*
X209331Y254468D02*
X219331D01*
X209331D02*
Y261968D01*
Y394468D01*
X543831Y432721D02*
X553831D01*
Y412720D02*
Y432721D01*
X543831Y412720D02*
X553831D01*
X543831D02*
Y432721D01*
Y395220D02*
X553831D01*
Y375220D02*
Y395220D01*
X543831Y375220D02*
X553831D01*
X543831D02*
Y395220D01*
X399331Y218406D02*
Y228405D01*
X509331D01*
Y218406D02*
Y228405D01*
X501831Y218406D02*
X509331D01*
X399331D02*
X501831D01*
M02*
