G04 Layer_Physical_Order=1*
G04 Layer_Color=255*
%FSLAX25Y25*%
%MOIN*%
G70*
G01*
G75*
%ADD10R,0.04331X0.02362*%
%ADD11R,0.03543X0.03740*%
%ADD12O,0.08661X0.02362*%
%ADD13O,0.07874X0.02992*%
%ADD14R,0.03740X0.03543*%
%ADD15O,0.08000X0.02400*%
%ADD16C,0.01000*%
%ADD17C,0.02500*%
%ADD18C,0.05906*%
%ADD19R,0.05906X0.05906*%
%ADD20R,0.05906X0.05906*%
%ADD21C,0.07874*%
%ADD22C,0.05000*%
D10*
X303870Y264500D02*
D03*
Y271980D02*
D03*
X314500D02*
D03*
Y264500D02*
D03*
Y268240D02*
D03*
D11*
X240094Y248000D02*
D03*
X246000D02*
D03*
X240595Y311000D02*
D03*
X246500D02*
D03*
X325905Y287000D02*
D03*
X320000D02*
D03*
X336595Y267000D02*
D03*
X342500D02*
D03*
X348905Y298500D02*
D03*
X343000D02*
D03*
X326095Y299000D02*
D03*
X332000D02*
D03*
X231405Y304000D02*
D03*
X225500D02*
D03*
X308906Y283500D02*
D03*
X303000D02*
D03*
X369905Y267500D02*
D03*
X364000D02*
D03*
D12*
X260886Y294500D02*
D03*
Y289500D02*
D03*
Y284500D02*
D03*
Y279500D02*
D03*
Y274500D02*
D03*
Y269500D02*
D03*
Y264500D02*
D03*
Y259500D02*
D03*
X234114D02*
D03*
Y264500D02*
D03*
Y269500D02*
D03*
Y274500D02*
D03*
Y279500D02*
D03*
Y284500D02*
D03*
Y289500D02*
D03*
Y294500D02*
D03*
X260386Y354500D02*
D03*
Y349500D02*
D03*
Y344500D02*
D03*
Y339500D02*
D03*
Y334500D02*
D03*
Y329500D02*
D03*
Y324500D02*
D03*
Y319500D02*
D03*
X233614D02*
D03*
Y324500D02*
D03*
Y329500D02*
D03*
Y334500D02*
D03*
Y339500D02*
D03*
Y344500D02*
D03*
Y349500D02*
D03*
Y354500D02*
D03*
D13*
X380366Y218500D02*
D03*
Y223500D02*
D03*
Y228500D02*
D03*
Y233500D02*
D03*
X338634Y218500D02*
D03*
Y223500D02*
D03*
Y228500D02*
D03*
Y233500D02*
D03*
D14*
X391500Y253594D02*
D03*
Y259500D02*
D03*
X402500Y239906D02*
D03*
Y234000D02*
D03*
X416500Y239906D02*
D03*
Y234000D02*
D03*
X418500Y258906D02*
D03*
Y253000D02*
D03*
X507500Y261595D02*
D03*
Y267500D02*
D03*
X510000Y295094D02*
D03*
Y301000D02*
D03*
X477000Y260094D02*
D03*
Y266000D02*
D03*
X478000Y295595D02*
D03*
Y301500D02*
D03*
X445000Y261094D02*
D03*
Y267000D02*
D03*
Y295595D02*
D03*
Y301500D02*
D03*
X272000Y289094D02*
D03*
Y295000D02*
D03*
X270500Y348594D02*
D03*
Y354500D02*
D03*
X244000Y364094D02*
D03*
Y370000D02*
D03*
X368500Y279095D02*
D03*
Y285000D02*
D03*
X400500Y259405D02*
D03*
Y253500D02*
D03*
X410000Y253000D02*
D03*
Y258906D02*
D03*
X326500Y266094D02*
D03*
Y272000D02*
D03*
X391000Y233906D02*
D03*
Y228000D02*
D03*
D15*
X336000Y290500D02*
D03*
Y285500D02*
D03*
Y280500D02*
D03*
Y275500D02*
D03*
X358000D02*
D03*
Y280500D02*
D03*
Y285500D02*
D03*
Y290500D02*
D03*
X381500Y244500D02*
D03*
Y249500D02*
D03*
Y254500D02*
D03*
Y259500D02*
D03*
X359500D02*
D03*
Y254500D02*
D03*
Y249500D02*
D03*
Y244500D02*
D03*
D16*
X396905Y272000D02*
X410000Y258906D01*
X386500Y272000D02*
X396905D01*
X369000Y254500D02*
X386500Y272000D01*
X214331Y359469D02*
X229299Y344500D01*
X218032Y349468D02*
X228000Y339500D01*
X217531Y339469D02*
X222500Y334500D01*
X233614D01*
X214331Y329468D02*
X233583D01*
X378500Y267500D02*
X389000Y278000D01*
X369905Y267500D02*
X378500D01*
X368500Y279095D02*
X388906D01*
X359500Y254500D02*
X369000D01*
X326500Y272000D02*
X330000Y275500D01*
X336000D01*
X325500Y306500D02*
X326095Y305906D01*
Y299000D02*
Y305906D01*
X314500Y268240D02*
X322740D01*
X326500Y272000D01*
X348905Y298500D02*
X373500D01*
X248500Y231500D02*
X276500Y259500D01*
X223500Y231500D02*
X248500D01*
X276500Y259500D02*
Y271500D01*
X251000Y229500D02*
X278500Y257000D01*
X231500Y229500D02*
X251000D01*
X278500Y257000D02*
Y275000D01*
X280500Y255000D02*
Y305500D01*
X282500Y254000D02*
Y306500D01*
X223500Y323000D02*
X225000Y324500D01*
X258000Y319500D02*
X260386D01*
X260386Y354500D02*
X270500D01*
X260386Y354500D02*
X260386Y354500D01*
X410000Y258906D02*
X418500D01*
X381500Y249500D02*
X387000D01*
X381500Y254500D02*
X390595D01*
X391500Y253594D01*
X391595Y253500D01*
X400500D01*
X418500Y241905D02*
Y253000D01*
X416500Y239906D02*
X418500Y241905D01*
X410000Y253000D02*
X410000Y253000D01*
X418500D01*
X415095Y239906D02*
X416500D01*
X353000Y280500D02*
X358000D01*
X348905Y284594D02*
X353000Y280500D01*
X348905Y284594D02*
Y298500D01*
X332000Y299000D02*
X332500Y298500D01*
X343000D01*
X333000Y285500D02*
X336000D01*
X329500Y289000D02*
X333000Y285500D01*
X329500Y289000D02*
Y292500D01*
X332000Y295000D01*
Y299000D01*
X332405Y280500D02*
X336000D01*
X325905Y287000D02*
X332405Y280500D01*
X320000Y287000D02*
Y287500D01*
X313000Y294500D02*
X320000Y287500D01*
X336000Y280500D02*
X341000D01*
X342500Y279000D01*
Y267000D02*
Y279000D01*
X229299Y344500D02*
X233614D01*
X214331Y349468D02*
X218032D01*
X228000Y339500D02*
X233614D01*
X214331Y339469D02*
X217531D01*
X233583Y329468D02*
X233614Y329500D01*
X225000Y324500D02*
X233614D01*
X273000Y322000D02*
X286500Y308500D01*
X271000Y321000D02*
X284500Y307500D01*
X260386Y334500D02*
X265500D01*
X269000Y331000D01*
Y320000D02*
Y331000D01*
Y320000D02*
X282500Y306500D01*
X260386Y329500D02*
X263500D01*
X267000Y326000D01*
Y319000D02*
Y326000D01*
Y319000D02*
X280500Y305500D01*
X260886Y284500D02*
X269000D01*
X278500Y275000D01*
X260886Y279500D02*
X268500D01*
X276500Y271500D01*
X214331Y289469D02*
X224299Y279500D01*
X234114D01*
X214331Y299468D02*
X229299Y284500D01*
X234114D01*
X260386Y344500D02*
X268500D01*
X273000Y340000D01*
Y322000D02*
Y340000D01*
X260386Y339500D02*
X267000D01*
X271000Y335500D01*
Y321000D02*
Y335500D01*
X223905Y265406D02*
X224811Y264500D01*
X234114D01*
X412126Y303000D02*
X428626Y286500D01*
X402500Y239906D02*
X405500Y242905D01*
Y248500D01*
X400500Y253500D02*
X405500Y248500D01*
X380366Y228500D02*
X383000D01*
X393500Y218000D01*
X406500D01*
X408783Y220284D01*
Y227716D01*
X402500Y234000D02*
X408783Y227716D01*
X380366Y223500D02*
X384500D01*
X392000Y216000D01*
X415500D01*
X419000Y219500D01*
Y231500D01*
X416500Y234000D02*
X419000Y231500D01*
X428626Y286500D02*
X444500D01*
X454500Y276500D01*
X443672Y284500D02*
X452000Y276172D01*
X418500Y258906D02*
X448783Y228622D01*
Y217216D02*
Y228622D01*
Y217216D02*
X452000Y214000D01*
X484925D01*
X494331Y223406D01*
X504331D01*
X454331D02*
X464331D01*
X474331D02*
X484331D01*
X452000Y225736D02*
X454331Y223406D01*
X452000Y225736D02*
Y276172D01*
X454500Y243000D02*
Y276500D01*
Y243000D02*
X454736D01*
X474331Y223406D01*
X359500Y310500D02*
X367000Y303000D01*
X412126D01*
X410000Y246000D02*
Y253000D01*
X388906Y279095D02*
X389000Y279000D01*
X373500Y298500D02*
X387500Y284500D01*
X443672D01*
X389000Y278000D02*
Y279000D01*
X387000Y249500D02*
X392500Y244000D01*
X239000Y227000D02*
X252500D01*
X280500Y255000D01*
X247000Y225000D02*
X253500D01*
X282500Y254000D01*
X215500Y223500D02*
X223500Y231500D01*
X215500Y219000D02*
Y223500D01*
X225500D02*
X231500Y229500D01*
X225500Y219000D02*
Y223500D01*
X235500D02*
X239000Y227000D01*
X235500Y219000D02*
Y223500D01*
X245500D02*
X247000Y225000D01*
X245500Y219000D02*
Y223500D01*
X255500Y219000D02*
Y222000D01*
X284500Y251000D01*
Y307500D01*
X265500Y219000D02*
Y227000D01*
X286500Y248000D01*
Y308500D01*
D17*
X364000Y267500D02*
Y271500D01*
X366000Y273500D01*
X242000Y312405D02*
Y319500D01*
X242000Y319500D01*
X233614D02*
X242000D01*
X242000Y319500D02*
Y346500D01*
X240595Y311000D02*
X242000Y312405D01*
X244000Y370000D02*
Y379000D01*
X391500Y259500D02*
Y267000D01*
X317500Y278500D02*
X324000Y272000D01*
X326500D01*
X312500Y283500D02*
X317500Y278500D01*
X308906Y283500D02*
X312500D01*
X302500Y292500D02*
X303000Y292000D01*
Y283500D02*
Y292000D01*
X366000Y273500D02*
X377500D01*
X368500Y285000D02*
X377500D01*
X233614Y354500D02*
X239000D01*
X244000Y359500D01*
Y364094D01*
X235094D02*
X244000D01*
X238000Y304000D02*
X243500D01*
X246500Y307000D01*
Y311000D01*
X231405Y304000D02*
X238000D01*
X232000Y252000D02*
X236000Y248000D01*
X240094D01*
X234114Y259500D02*
X241000D01*
Y248905D02*
Y259500D01*
X240094Y248000D02*
X241000Y248905D01*
Y259500D02*
Y285811D01*
X237311Y289500D02*
X241000Y285811D01*
X234114Y289500D02*
X237311D01*
X246000Y248000D02*
X246500Y248500D01*
X256000Y259500D02*
X260886D01*
X250500Y265000D02*
X256000Y259500D01*
X250500Y265000D02*
Y278000D01*
Y284500D01*
X255500Y289500D01*
X260886D01*
X252000Y324500D02*
Y342000D01*
X254000Y349500D02*
X260386D01*
X257000Y319500D02*
X258000D01*
X252000Y347500D02*
X254000Y349500D01*
X252000Y342000D02*
Y347500D01*
Y324500D02*
X257000Y319500D01*
X261386Y295000D02*
X272000D01*
X261291Y289094D02*
X272000D01*
X225500Y304000D02*
Y308500D01*
X231000Y314000D01*
X234000Y311000D01*
X240595D01*
X239000Y349500D02*
X242000Y346500D01*
X233614Y349500D02*
X239000D01*
X260386Y354500D02*
X270500D01*
X260386Y349500D02*
X261291Y348594D01*
X270500D01*
X270500Y354500D02*
X270500Y354500D01*
Y363500D01*
X260886Y294500D02*
X261386Y295000D01*
X272000Y298000D02*
X276500Y302500D01*
X272000Y295000D02*
Y298000D01*
X391500Y259500D02*
X400406D01*
X381500D02*
X391500D01*
X400406D02*
X400500Y259405D01*
X356500Y249500D02*
X359500D01*
X352500Y253500D02*
X356500Y249500D01*
X352500Y253500D02*
Y263500D01*
X356500Y267500D01*
X364000D01*
X368000Y285500D02*
X368500Y285000D01*
X358000Y285500D02*
X368000D01*
X327406Y267000D02*
X336595D01*
X326500Y266094D02*
X327406Y267000D01*
X324905Y264500D02*
X326500Y266094D01*
X314500Y264500D02*
X324905D01*
X303870Y271980D02*
X314500D01*
X303870D02*
Y282630D01*
X303000Y283500D02*
X303870Y282630D01*
X231405Y297209D02*
Y304000D01*
Y297209D02*
X234114Y294500D01*
X223500Y244000D02*
X223620Y243880D01*
X242798D01*
X246000Y247082D01*
Y248000D01*
X326500Y231000D02*
X329000Y228500D01*
X338634D01*
X326500Y221000D02*
X329000Y223500D01*
X338634D01*
Y218500D02*
Y223500D01*
X338634Y233500D02*
X348500D01*
X338634Y233500D02*
X338634Y233500D01*
Y218500D02*
X348000D01*
X338634Y218500D02*
X338634Y218500D01*
X380772Y233906D02*
X391000D01*
X380366Y233500D02*
X380772Y233906D01*
X391000D02*
Y235783D01*
X397500Y242283D01*
Y245157D01*
X398095Y223406D02*
X404331D01*
X396000Y225500D02*
X398095Y223406D01*
X380366Y218500D02*
X383000D01*
X385250Y216250D01*
X386093D01*
X438000Y301500D02*
X445000D01*
X436000Y303500D02*
X438000Y301500D01*
X438095Y295595D02*
X445000D01*
X436000Y293500D02*
X438095Y295595D01*
X436000Y273500D02*
X438500D01*
X445000Y267000D01*
X443595Y261094D02*
X445000D01*
X436000Y253500D02*
X443595Y261094D01*
X470000Y301500D02*
X478000D01*
X468000Y303500D02*
X470000Y301500D01*
X470094Y295595D02*
X478000D01*
X468000Y293500D02*
X470094Y295595D01*
X501594Y295094D02*
X510000D01*
X500000Y293500D02*
X501594Y295094D01*
X502500Y301000D02*
X510000D01*
X500000Y303500D02*
X502500Y301000D01*
X475500Y266000D02*
X477000D01*
X468000Y273500D02*
X475500Y266000D01*
X474594Y260094D02*
X477000D01*
X468000Y253500D02*
X474594Y260094D01*
X506000Y267500D02*
X507500D01*
X500000Y273500D02*
X506000Y267500D01*
X500000Y254095D02*
X507500Y261595D01*
X500000Y253500D02*
Y254095D01*
X397500Y245157D02*
X399343Y247000D01*
X400500D01*
X391000Y228000D02*
X393500D01*
X396000Y225500D01*
D18*
X529331Y303720D02*
D03*
Y293721D02*
D03*
Y283720D02*
D03*
Y273721D02*
D03*
Y263720D02*
D03*
X326500Y231000D02*
D03*
X205500Y219000D02*
D03*
X215500D02*
D03*
X225500D02*
D03*
X235500D02*
D03*
X255500D02*
D03*
X245500D02*
D03*
X214331Y269468D02*
D03*
Y279468D02*
D03*
Y289469D02*
D03*
Y299468D02*
D03*
Y309469D02*
D03*
Y319468D02*
D03*
Y329468D02*
D03*
Y339469D02*
D03*
Y349468D02*
D03*
Y359469D02*
D03*
Y369468D02*
D03*
Y379468D02*
D03*
Y389469D02*
D03*
X548831Y427720D02*
D03*
Y390220D02*
D03*
X303000Y248000D02*
D03*
X359500Y310500D02*
D03*
X328500Y248000D02*
D03*
X494331Y223406D02*
D03*
X484331D02*
D03*
X474331D02*
D03*
X464331D02*
D03*
X454331D02*
D03*
X444331D02*
D03*
X434331D02*
D03*
X424331D02*
D03*
X414331D02*
D03*
X404331D02*
D03*
D19*
X529331Y253720D02*
D03*
X326500Y221000D02*
D03*
X214331Y259469D02*
D03*
X548831Y417721D02*
D03*
Y380221D02*
D03*
D20*
X265500Y219000D02*
D03*
X313000Y248000D02*
D03*
X369500Y310500D02*
D03*
X338500Y248000D02*
D03*
X504331Y223406D02*
D03*
D21*
X500000Y253500D02*
D03*
Y273500D02*
D03*
Y293500D02*
D03*
Y303500D02*
D03*
X468000Y253500D02*
D03*
Y273500D02*
D03*
Y293500D02*
D03*
Y303500D02*
D03*
X436000Y253500D02*
D03*
Y273500D02*
D03*
Y293500D02*
D03*
Y303500D02*
D03*
D22*
X226500Y369000D02*
D03*
X244000Y379000D02*
D03*
X391500Y267000D02*
D03*
X325500Y306500D02*
D03*
X317500Y278500D02*
D03*
X302500Y292500D02*
D03*
X377500Y273500D02*
D03*
Y285000D02*
D03*
X260500Y302000D02*
D03*
X253500Y362000D02*
D03*
X235094Y364094D02*
D03*
X238000Y304000D02*
D03*
X211500Y247000D02*
D03*
X232000Y252000D02*
D03*
X250500Y278000D02*
D03*
X231000Y314000D02*
D03*
X223500Y323000D02*
D03*
X252000Y342000D02*
D03*
X270500Y363500D02*
D03*
X276500Y302500D02*
D03*
X313000Y294500D02*
D03*
X223905Y265406D02*
D03*
X223500Y244000D02*
D03*
X348000Y218500D02*
D03*
X348500Y233500D02*
D03*
X367000Y223000D02*
D03*
X368500Y231000D02*
D03*
X396000Y225500D02*
D03*
X386093Y216250D02*
D03*
X400500Y247000D02*
D03*
X410000Y246000D02*
D03*
X389000Y279000D02*
D03*
X392500Y244000D02*
D03*
M02*
