G04 Layer_Color=255*
%FSLAX25Y25*%
%MOIN*%
G70*
G01*
G75*
%ADD11R,0.03543X0.03740*%
%ADD14R,0.03740X0.03543*%
%ADD18C,0.05906*%
%ADD19R,0.05906X0.05906*%
%ADD20R,0.05906X0.05906*%
%ADD21C,0.07874*%
D11*
X228405Y290000D02*
D03*
X222500D02*
D03*
X228405Y299000D02*
D03*
X222500D02*
D03*
X229405Y329500D02*
D03*
X223500D02*
D03*
X229405Y339000D02*
D03*
X223500D02*
D03*
X229405Y349500D02*
D03*
X223500D02*
D03*
X229405Y359500D02*
D03*
X223500D02*
D03*
D14*
X215500Y235405D02*
D03*
Y229500D02*
D03*
X226000Y235405D02*
D03*
Y229500D02*
D03*
X235500Y235405D02*
D03*
Y229500D02*
D03*
X245000Y235906D02*
D03*
Y230000D02*
D03*
X255000Y235906D02*
D03*
Y230000D02*
D03*
X264500Y235906D02*
D03*
Y230000D02*
D03*
X244500Y265406D02*
D03*
Y259500D02*
D03*
X244000Y324406D02*
D03*
Y318500D02*
D03*
X250000Y294406D02*
D03*
Y288500D02*
D03*
X249000Y354405D02*
D03*
Y348500D02*
D03*
X358500Y223594D02*
D03*
Y229500D02*
D03*
D18*
X529331Y303720D02*
D03*
Y293721D02*
D03*
Y283720D02*
D03*
Y273721D02*
D03*
Y263720D02*
D03*
X326500Y231000D02*
D03*
X205500Y219000D02*
D03*
X215500D02*
D03*
X225500D02*
D03*
X235500D02*
D03*
X255500D02*
D03*
X245500D02*
D03*
X214331Y269468D02*
D03*
Y279468D02*
D03*
Y289469D02*
D03*
Y299468D02*
D03*
Y309469D02*
D03*
Y319468D02*
D03*
Y329468D02*
D03*
Y339469D02*
D03*
Y349468D02*
D03*
Y359469D02*
D03*
Y369468D02*
D03*
Y379468D02*
D03*
Y389469D02*
D03*
X548831Y427720D02*
D03*
Y390220D02*
D03*
X303000Y248000D02*
D03*
X359500Y310500D02*
D03*
X328500Y248000D02*
D03*
X494331Y223406D02*
D03*
X484331D02*
D03*
X474331D02*
D03*
X464331D02*
D03*
X454331D02*
D03*
X444331D02*
D03*
X434331D02*
D03*
X424331D02*
D03*
X414331D02*
D03*
X404331D02*
D03*
D19*
X529331Y253720D02*
D03*
X326500Y221000D02*
D03*
X214331Y259469D02*
D03*
X548831Y417721D02*
D03*
Y380221D02*
D03*
D20*
X265500Y219000D02*
D03*
X313000Y248000D02*
D03*
X369500Y310500D02*
D03*
X338500Y248000D02*
D03*
X504331Y223406D02*
D03*
D21*
X500000Y253500D02*
D03*
Y273500D02*
D03*
Y293500D02*
D03*
Y303500D02*
D03*
X468000Y253500D02*
D03*
Y273500D02*
D03*
Y293500D02*
D03*
Y303500D02*
D03*
X436000Y253500D02*
D03*
Y273500D02*
D03*
Y293500D02*
D03*
Y303500D02*
D03*
M02*
