G04 Layer_Color=8421504*
%FSLAX25Y25*%
%MOIN*%
G70*
G01*
G75*
%ADD10R,0.04331X0.02362*%
%ADD11R,0.03543X0.03740*%
%ADD12O,0.08661X0.02362*%
%ADD13O,0.07874X0.02992*%
%ADD14R,0.03740X0.03543*%
%ADD15O,0.08000X0.02400*%
D10*
X303870Y264500D02*
D03*
Y271980D02*
D03*
X314500D02*
D03*
Y264500D02*
D03*
Y268240D02*
D03*
D11*
X240094Y248000D02*
D03*
X246000D02*
D03*
X240595Y311000D02*
D03*
X246500D02*
D03*
X325905Y287000D02*
D03*
X320000D02*
D03*
X336595Y267000D02*
D03*
X342500D02*
D03*
X348905Y298500D02*
D03*
X343000D02*
D03*
X326095Y299000D02*
D03*
X332000D02*
D03*
X231405Y304000D02*
D03*
X225500D02*
D03*
X308906Y283500D02*
D03*
X303000D02*
D03*
X369905Y267500D02*
D03*
X364000D02*
D03*
D12*
X260886Y294500D02*
D03*
Y289500D02*
D03*
Y284500D02*
D03*
Y279500D02*
D03*
Y274500D02*
D03*
Y269500D02*
D03*
Y264500D02*
D03*
Y259500D02*
D03*
X234114D02*
D03*
Y264500D02*
D03*
Y269500D02*
D03*
Y274500D02*
D03*
Y279500D02*
D03*
Y284500D02*
D03*
Y289500D02*
D03*
Y294500D02*
D03*
X260386Y354500D02*
D03*
Y349500D02*
D03*
Y344500D02*
D03*
Y339500D02*
D03*
Y334500D02*
D03*
Y329500D02*
D03*
Y324500D02*
D03*
Y319500D02*
D03*
X233614D02*
D03*
Y324500D02*
D03*
Y329500D02*
D03*
Y334500D02*
D03*
Y339500D02*
D03*
Y344500D02*
D03*
Y349500D02*
D03*
Y354500D02*
D03*
D13*
X380366Y218500D02*
D03*
Y223500D02*
D03*
Y228500D02*
D03*
Y233500D02*
D03*
X338634Y218500D02*
D03*
Y223500D02*
D03*
Y228500D02*
D03*
Y233500D02*
D03*
D14*
X391500Y253594D02*
D03*
Y259500D02*
D03*
X402500Y239906D02*
D03*
Y234000D02*
D03*
X416500Y239906D02*
D03*
Y234000D02*
D03*
X418500Y258906D02*
D03*
Y253000D02*
D03*
X507500Y261595D02*
D03*
Y267500D02*
D03*
X510000Y295094D02*
D03*
Y301000D02*
D03*
X477000Y260094D02*
D03*
Y266000D02*
D03*
X478000Y295595D02*
D03*
Y301500D02*
D03*
X445000Y261094D02*
D03*
Y267000D02*
D03*
Y295595D02*
D03*
Y301500D02*
D03*
X272000Y289094D02*
D03*
Y295000D02*
D03*
X270500Y348594D02*
D03*
Y354500D02*
D03*
X244000Y364094D02*
D03*
Y370000D02*
D03*
X368500Y279095D02*
D03*
Y285000D02*
D03*
X400500Y259405D02*
D03*
Y253500D02*
D03*
X410000Y253000D02*
D03*
Y258906D02*
D03*
X326500Y266094D02*
D03*
Y272000D02*
D03*
X391000Y233906D02*
D03*
Y228000D02*
D03*
D15*
X336000Y290500D02*
D03*
Y285500D02*
D03*
Y280500D02*
D03*
Y275500D02*
D03*
X358000D02*
D03*
Y280500D02*
D03*
Y285500D02*
D03*
Y290500D02*
D03*
X381500Y244500D02*
D03*
Y249500D02*
D03*
Y254500D02*
D03*
Y259500D02*
D03*
X359500D02*
D03*
Y254500D02*
D03*
Y249500D02*
D03*
Y244500D02*
D03*
M02*
