G04 Layer_Color=16711935*
%FSLAX25Y25*%
%MOIN*%
G70*
G01*
G75*
%ADD30R,0.04343X0.04540*%
%ADD33R,0.04540X0.04343*%
%ADD35C,0.06706*%
%ADD36R,0.06706X0.06706*%
%ADD37R,0.06706X0.06706*%
%ADD38C,0.08674*%
%ADD39C,0.05800*%
D30*
X228405Y290000D02*
D03*
X222500D02*
D03*
X228405Y299000D02*
D03*
X222500D02*
D03*
X229405Y329500D02*
D03*
X223500D02*
D03*
X229405Y339000D02*
D03*
X223500D02*
D03*
X229405Y349500D02*
D03*
X223500D02*
D03*
X229405Y359500D02*
D03*
X223500D02*
D03*
D33*
X215500Y235405D02*
D03*
Y229500D02*
D03*
X226000Y235405D02*
D03*
Y229500D02*
D03*
X235500Y235405D02*
D03*
Y229500D02*
D03*
X245000Y235906D02*
D03*
Y230000D02*
D03*
X255000Y235906D02*
D03*
Y230000D02*
D03*
X264500Y235906D02*
D03*
Y230000D02*
D03*
X244500Y265406D02*
D03*
Y259500D02*
D03*
X244000Y324406D02*
D03*
Y318500D02*
D03*
X250000Y294406D02*
D03*
Y288500D02*
D03*
X249000Y354405D02*
D03*
Y348500D02*
D03*
X358500Y223594D02*
D03*
Y229500D02*
D03*
D35*
X529331Y303720D02*
D03*
Y293721D02*
D03*
Y283720D02*
D03*
Y273721D02*
D03*
Y263720D02*
D03*
X326500Y231000D02*
D03*
X205500Y219000D02*
D03*
X215500D02*
D03*
X225500D02*
D03*
X235500D02*
D03*
X255500D02*
D03*
X245500D02*
D03*
X214331Y269468D02*
D03*
Y279468D02*
D03*
Y289469D02*
D03*
Y299468D02*
D03*
Y309469D02*
D03*
Y319468D02*
D03*
Y329468D02*
D03*
Y339469D02*
D03*
Y349468D02*
D03*
Y359469D02*
D03*
Y369468D02*
D03*
Y379468D02*
D03*
Y389469D02*
D03*
X548831Y427720D02*
D03*
Y390220D02*
D03*
X303000Y248000D02*
D03*
X359500Y310500D02*
D03*
X328500Y248000D02*
D03*
X494331Y223406D02*
D03*
X484331D02*
D03*
X474331D02*
D03*
X464331D02*
D03*
X454331D02*
D03*
X444331D02*
D03*
X434331D02*
D03*
X424331D02*
D03*
X414331D02*
D03*
X404331D02*
D03*
D36*
X529331Y253720D02*
D03*
X326500Y221000D02*
D03*
X214331Y259469D02*
D03*
X548831Y417721D02*
D03*
Y380221D02*
D03*
D37*
X265500Y219000D02*
D03*
X313000Y248000D02*
D03*
X369500Y310500D02*
D03*
X338500Y248000D02*
D03*
X504331Y223406D02*
D03*
D38*
X500000Y253500D02*
D03*
Y273500D02*
D03*
Y293500D02*
D03*
Y303500D02*
D03*
X468000Y253500D02*
D03*
Y273500D02*
D03*
Y293500D02*
D03*
Y303500D02*
D03*
X436000Y253500D02*
D03*
Y273500D02*
D03*
Y293500D02*
D03*
Y303500D02*
D03*
D39*
X226500Y369000D02*
D03*
X244000Y379000D02*
D03*
X391500Y267000D02*
D03*
X325500Y306500D02*
D03*
X317500Y278500D02*
D03*
X302500Y292500D02*
D03*
X377500Y273500D02*
D03*
Y285000D02*
D03*
X260500Y302000D02*
D03*
X253500Y362000D02*
D03*
X235094Y364094D02*
D03*
X238000Y304000D02*
D03*
X211500Y247000D02*
D03*
X232000Y252000D02*
D03*
X250500Y278000D02*
D03*
X231000Y314000D02*
D03*
X223500Y323000D02*
D03*
X252000Y342000D02*
D03*
X270500Y363500D02*
D03*
X276500Y302500D02*
D03*
X313000Y294500D02*
D03*
X223905Y265406D02*
D03*
X223500Y244000D02*
D03*
X348000Y218500D02*
D03*
X348500Y233500D02*
D03*
X367000Y223000D02*
D03*
X368500Y231000D02*
D03*
X396000Y225500D02*
D03*
X386093Y216250D02*
D03*
X400500Y247000D02*
D03*
X410000Y246000D02*
D03*
X389000Y279000D02*
D03*
X392500Y244000D02*
D03*
M02*
