G04 Layer_Color=8388736*
%FSLAX25Y25*%
%MOIN*%
G70*
G01*
G75*
%ADD29R,0.05131X0.03162*%
%ADD30R,0.04343X0.04540*%
%ADD31O,0.09461X0.03162*%
%ADD32O,0.08674X0.03792*%
%ADD33R,0.04540X0.04343*%
%ADD34O,0.08800X0.03200*%
%ADD35C,0.06706*%
%ADD36R,0.06706X0.06706*%
%ADD37R,0.06706X0.06706*%
%ADD38C,0.08674*%
%ADD39C,0.05800*%
D29*
X303870Y264500D02*
D03*
Y271980D02*
D03*
X314500D02*
D03*
Y264500D02*
D03*
Y268240D02*
D03*
D30*
X240094Y248000D02*
D03*
X246000D02*
D03*
X240595Y311000D02*
D03*
X246500D02*
D03*
X325905Y287000D02*
D03*
X320000D02*
D03*
X336595Y267000D02*
D03*
X342500D02*
D03*
X348905Y298500D02*
D03*
X343000D02*
D03*
X326095Y299000D02*
D03*
X332000D02*
D03*
X231405Y304000D02*
D03*
X225500D02*
D03*
X308906Y283500D02*
D03*
X303000D02*
D03*
X369905Y267500D02*
D03*
X364000D02*
D03*
D31*
X260886Y294500D02*
D03*
Y289500D02*
D03*
Y284500D02*
D03*
Y279500D02*
D03*
Y274500D02*
D03*
Y269500D02*
D03*
Y264500D02*
D03*
Y259500D02*
D03*
X234114D02*
D03*
Y264500D02*
D03*
Y269500D02*
D03*
Y274500D02*
D03*
Y279500D02*
D03*
Y284500D02*
D03*
Y289500D02*
D03*
Y294500D02*
D03*
X260386Y354500D02*
D03*
Y349500D02*
D03*
Y344500D02*
D03*
Y339500D02*
D03*
Y334500D02*
D03*
Y329500D02*
D03*
Y324500D02*
D03*
Y319500D02*
D03*
X233614D02*
D03*
Y324500D02*
D03*
Y329500D02*
D03*
Y334500D02*
D03*
Y339500D02*
D03*
Y344500D02*
D03*
Y349500D02*
D03*
Y354500D02*
D03*
D32*
X380366Y218500D02*
D03*
Y223500D02*
D03*
Y228500D02*
D03*
Y233500D02*
D03*
X338634Y218500D02*
D03*
Y223500D02*
D03*
Y228500D02*
D03*
Y233500D02*
D03*
D33*
X391500Y253594D02*
D03*
Y259500D02*
D03*
X402500Y239906D02*
D03*
Y234000D02*
D03*
X416500Y239906D02*
D03*
Y234000D02*
D03*
X418500Y258906D02*
D03*
Y253000D02*
D03*
X507500Y261595D02*
D03*
Y267500D02*
D03*
X510000Y295094D02*
D03*
Y301000D02*
D03*
X477000Y260094D02*
D03*
Y266000D02*
D03*
X478000Y295595D02*
D03*
Y301500D02*
D03*
X445000Y261094D02*
D03*
Y267000D02*
D03*
Y295595D02*
D03*
Y301500D02*
D03*
X272000Y289094D02*
D03*
Y295000D02*
D03*
X270500Y348594D02*
D03*
Y354500D02*
D03*
X244000Y364094D02*
D03*
Y370000D02*
D03*
X368500Y279095D02*
D03*
Y285000D02*
D03*
X400500Y259405D02*
D03*
Y253500D02*
D03*
X410000Y253000D02*
D03*
Y258906D02*
D03*
X326500Y266094D02*
D03*
Y272000D02*
D03*
X391000Y233906D02*
D03*
Y228000D02*
D03*
D34*
X336000Y290500D02*
D03*
Y285500D02*
D03*
Y280500D02*
D03*
Y275500D02*
D03*
X358000D02*
D03*
Y280500D02*
D03*
Y285500D02*
D03*
Y290500D02*
D03*
X381500Y244500D02*
D03*
Y249500D02*
D03*
Y254500D02*
D03*
Y259500D02*
D03*
X359500D02*
D03*
Y254500D02*
D03*
Y249500D02*
D03*
Y244500D02*
D03*
D35*
X529331Y303720D02*
D03*
Y293721D02*
D03*
Y283720D02*
D03*
Y273721D02*
D03*
Y263720D02*
D03*
X326500Y231000D02*
D03*
X205500Y219000D02*
D03*
X215500D02*
D03*
X225500D02*
D03*
X235500D02*
D03*
X255500D02*
D03*
X245500D02*
D03*
X214331Y269468D02*
D03*
Y279468D02*
D03*
Y289469D02*
D03*
Y299468D02*
D03*
Y309469D02*
D03*
Y319468D02*
D03*
Y329468D02*
D03*
Y339469D02*
D03*
Y349468D02*
D03*
Y359469D02*
D03*
Y369468D02*
D03*
Y379468D02*
D03*
Y389469D02*
D03*
X548831Y427720D02*
D03*
Y390220D02*
D03*
X303000Y248000D02*
D03*
X359500Y310500D02*
D03*
X328500Y248000D02*
D03*
X494331Y223406D02*
D03*
X484331D02*
D03*
X474331D02*
D03*
X464331D02*
D03*
X454331D02*
D03*
X444331D02*
D03*
X434331D02*
D03*
X424331D02*
D03*
X414331D02*
D03*
X404331D02*
D03*
D36*
X529331Y253720D02*
D03*
X326500Y221000D02*
D03*
X214331Y259469D02*
D03*
X548831Y417721D02*
D03*
Y380221D02*
D03*
D37*
X265500Y219000D02*
D03*
X313000Y248000D02*
D03*
X369500Y310500D02*
D03*
X338500Y248000D02*
D03*
X504331Y223406D02*
D03*
D38*
X500000Y253500D02*
D03*
Y273500D02*
D03*
Y293500D02*
D03*
Y303500D02*
D03*
X468000Y253500D02*
D03*
Y273500D02*
D03*
Y293500D02*
D03*
Y303500D02*
D03*
X436000Y253500D02*
D03*
Y273500D02*
D03*
Y293500D02*
D03*
Y303500D02*
D03*
D39*
X226500Y369000D02*
D03*
X244000Y379000D02*
D03*
X391500Y267000D02*
D03*
X325500Y306500D02*
D03*
X317500Y278500D02*
D03*
X302500Y292500D02*
D03*
X377500Y273500D02*
D03*
Y285000D02*
D03*
X260500Y302000D02*
D03*
X253500Y362000D02*
D03*
X235094Y364094D02*
D03*
X238000Y304000D02*
D03*
X211500Y247000D02*
D03*
X232000Y252000D02*
D03*
X250500Y278000D02*
D03*
X231000Y314000D02*
D03*
X223500Y323000D02*
D03*
X252000Y342000D02*
D03*
X270500Y363500D02*
D03*
X276500Y302500D02*
D03*
X313000Y294500D02*
D03*
X223905Y265406D02*
D03*
X223500Y244000D02*
D03*
X348000Y218500D02*
D03*
X348500Y233500D02*
D03*
X367000Y223000D02*
D03*
X368500Y231000D02*
D03*
X396000Y225500D02*
D03*
X386093Y216250D02*
D03*
X400500Y247000D02*
D03*
X410000Y246000D02*
D03*
X389000Y279000D02*
D03*
X392500Y244000D02*
D03*
M02*
