G04 Layer_Color=32896*
%FSLAX25Y25*%
%MOIN*%
G70*
G01*
G75*
%ADD16C,0.01000*%
%ADD27C,0.00394*%
%ADD28C,0.00787*%
D16*
X218650Y226350D02*
Y231469D01*
X212350Y226350D02*
X218650D01*
X212350D02*
Y231469D01*
Y233437D02*
Y238161D01*
Y238555D01*
X218650D01*
Y233437D02*
Y238555D01*
X219350Y286850D02*
X224468D01*
X219350D02*
Y293150D01*
X224468D01*
X226437D02*
X231161D01*
X231555D01*
Y286850D02*
Y293150D01*
X226437Y286850D02*
X231555D01*
X229150Y226350D02*
Y231469D01*
X222850Y226350D02*
X229150D01*
X222850D02*
Y231469D01*
Y233437D02*
Y238161D01*
Y238555D01*
X229150D01*
Y233437D02*
Y238555D01*
X219350Y295850D02*
X224468D01*
X219350D02*
Y302150D01*
X224468D01*
X226437D02*
X231161D01*
X231555D01*
Y295850D02*
Y302150D01*
X226437Y295850D02*
X231555D01*
X238650Y226350D02*
Y231469D01*
X232350Y226350D02*
X238650D01*
X232350D02*
Y231469D01*
Y233437D02*
Y238161D01*
Y238555D01*
X238650D01*
Y233437D02*
Y238555D01*
X220350Y326350D02*
X225468D01*
X220350D02*
Y332650D01*
X225468D01*
X227437D02*
X232161D01*
X232555D01*
Y326350D02*
Y332650D01*
X227437Y326350D02*
X232555D01*
X248150Y226850D02*
Y231968D01*
X241850Y226850D02*
X248150D01*
X241850D02*
Y231968D01*
Y233937D02*
Y238661D01*
Y239055D01*
X248150D01*
Y233937D02*
Y239055D01*
X220350Y335850D02*
X225468D01*
X220350D02*
Y342150D01*
X225468D01*
X227437D02*
X232161D01*
X232555D01*
Y335850D02*
Y342150D01*
X227437Y335850D02*
X232555D01*
X258150Y226850D02*
Y231968D01*
X251850Y226850D02*
X258150D01*
X251850D02*
Y231968D01*
Y233937D02*
Y238661D01*
Y239055D01*
X258150D01*
Y233937D02*
Y239055D01*
X220350Y346350D02*
X225468D01*
X220350D02*
Y352650D01*
X225468D01*
X227437D02*
X232161D01*
X232555D01*
Y346350D02*
Y352650D01*
X227437Y346350D02*
X232555D01*
X267650Y226850D02*
Y231968D01*
X261350Y226850D02*
X267650D01*
X261350D02*
Y231968D01*
Y233937D02*
Y238661D01*
Y239055D01*
X267650D01*
Y233937D02*
Y239055D01*
X220350Y356350D02*
X225468D01*
X220350D02*
Y362650D01*
X225468D01*
X227437D02*
X232161D01*
X232555D01*
Y356350D02*
Y362650D01*
X227437Y356350D02*
X232555D01*
X247650Y256350D02*
Y261469D01*
X241350Y256350D02*
X247650D01*
X241350D02*
Y261469D01*
Y263437D02*
Y268161D01*
Y268555D01*
X247650D01*
Y263437D02*
Y268555D01*
X247150Y315350D02*
Y320468D01*
X240850Y315350D02*
X247150D01*
X240850D02*
Y320468D01*
Y322437D02*
Y327161D01*
Y327555D01*
X247150D01*
Y322437D02*
Y327555D01*
X253150Y285350D02*
Y290469D01*
X246850Y285350D02*
X253150D01*
X246850D02*
Y290469D01*
Y292437D02*
Y297161D01*
Y297555D01*
X253150D01*
Y292437D02*
Y297555D01*
X252150Y345350D02*
Y350468D01*
X245850Y345350D02*
X252150D01*
X245850D02*
Y350468D01*
Y352437D02*
Y357161D01*
Y357555D01*
X252150D01*
Y352437D02*
Y357555D01*
X355350Y227532D02*
Y232650D01*
X361650D01*
Y227532D02*
Y232650D01*
Y220839D02*
Y225563D01*
Y220445D02*
Y220839D01*
X355350Y220445D02*
X361650D01*
X355350D02*
Y225563D01*
X330900Y239400D02*
Y245398D01*
X327901D01*
X326901Y244398D01*
Y242399D01*
X327901Y241399D01*
X330900D01*
X324902Y239400D02*
X322903D01*
X323902D01*
Y245398D01*
X324902Y244398D01*
X319904D02*
X318904Y245398D01*
X316904D01*
X315905Y244398D01*
Y243399D01*
X316904Y242399D01*
X315905Y241399D01*
Y240400D01*
X316904Y239400D01*
X318904D01*
X319904Y240400D01*
Y241399D01*
X318904Y242399D01*
X319904Y243399D01*
Y244398D01*
X318904Y242399D02*
X316904D01*
X279000Y225000D02*
X273002D01*
Y222001D01*
X274002Y221001D01*
X276001D01*
X277001Y222001D01*
Y225000D01*
X279000Y219002D02*
Y217003D01*
Y218002D01*
X273002D01*
X274002Y219002D01*
X273002Y210005D02*
X274002Y212004D01*
X276001Y214004D01*
X278000D01*
X279000Y213004D01*
Y211004D01*
X278000Y210005D01*
X277001D01*
X276001Y211004D01*
Y214004D01*
X218100Y242100D02*
Y248098D01*
X215101D01*
X214101Y247098D01*
Y245099D01*
X215101Y244099D01*
X218100D01*
X216101D02*
X214101Y242100D01*
X208103D02*
X212102D01*
X208103Y246099D01*
Y247098D01*
X209103Y248098D01*
X211102D01*
X212102Y247098D01*
X206104Y248098D02*
X202105D01*
Y247098D01*
X206104Y243100D01*
Y242100D01*
X231100Y296600D02*
Y302598D01*
X228101D01*
X227101Y301598D01*
Y299599D01*
X228101Y298599D01*
X231100D01*
X229101D02*
X227101Y296600D01*
X221103D02*
X225102D01*
X221103Y300599D01*
Y301598D01*
X222103Y302598D01*
X224102D01*
X225102Y301598D01*
X215105Y302598D02*
X217105Y301598D01*
X219104Y299599D01*
Y297600D01*
X218104Y296600D01*
X216105D01*
X215105Y297600D01*
Y298599D01*
X216105Y299599D01*
X219104D01*
X228600Y242100D02*
Y248098D01*
X225601D01*
X224601Y247098D01*
Y245099D01*
X225601Y244099D01*
X228600D01*
X226601D02*
X224601Y242100D01*
X218603D02*
X222602D01*
X218603Y246099D01*
Y247098D01*
X219603Y248098D01*
X221602D01*
X222602Y247098D01*
X212605Y248098D02*
X216604D01*
Y245099D01*
X214605Y246099D01*
X213605D01*
X212605Y245099D01*
Y243100D01*
X213605Y242100D01*
X215604D01*
X216604Y243100D01*
X231100Y305600D02*
Y311598D01*
X228101D01*
X227101Y310598D01*
Y308599D01*
X228101Y307599D01*
X231100D01*
X229101D02*
X227101Y305600D01*
X221103D02*
X225102D01*
X221103Y309599D01*
Y310598D01*
X222103Y311598D01*
X224102D01*
X225102Y310598D01*
X216105Y305600D02*
Y311598D01*
X219104Y308599D01*
X215105D01*
X238100Y242100D02*
Y248098D01*
X235101D01*
X234101Y247098D01*
Y245099D01*
X235101Y244099D01*
X238100D01*
X236101D02*
X234101Y242100D01*
X228103D02*
X232102D01*
X228103Y246099D01*
Y247098D01*
X229103Y248098D01*
X231102D01*
X232102Y247098D01*
X226104D02*
X225104Y248098D01*
X223105D01*
X222105Y247098D01*
Y246099D01*
X223105Y245099D01*
X224104D01*
X223105D01*
X222105Y244099D01*
Y243100D01*
X223105Y242100D01*
X225104D01*
X226104Y243100D01*
X232100Y336100D02*
Y342098D01*
X229101D01*
X228101Y341098D01*
Y339099D01*
X229101Y338099D01*
X232100D01*
X230101D02*
X228101Y336100D01*
X222103D02*
X226102D01*
X222103Y340099D01*
Y341098D01*
X223103Y342098D01*
X225102D01*
X226102Y341098D01*
X216105Y336100D02*
X220104D01*
X216105Y340099D01*
Y341098D01*
X217105Y342098D01*
X219104D01*
X220104Y341098D01*
X247600Y242600D02*
Y248598D01*
X244601D01*
X243601Y247598D01*
Y245599D01*
X244601Y244599D01*
X247600D01*
X245601D02*
X243601Y242600D01*
X237603D02*
X241602D01*
X237603Y246599D01*
Y247598D01*
X238603Y248598D01*
X240602D01*
X241602Y247598D01*
X235604Y242600D02*
X233605D01*
X234604D01*
Y248598D01*
X235604Y247598D01*
X232100Y345600D02*
Y351598D01*
X229101D01*
X228101Y350598D01*
Y348599D01*
X229101Y347599D01*
X232100D01*
X230101D02*
X228101Y345600D01*
X222103D02*
X226102D01*
X222103Y349599D01*
Y350598D01*
X223103Y351598D01*
X225102D01*
X226102Y350598D01*
X220104D02*
X219104Y351598D01*
X217105D01*
X216105Y350598D01*
Y346600D01*
X217105Y345600D01*
X219104D01*
X220104Y346600D01*
Y350598D01*
X257600Y242600D02*
Y248598D01*
X254601D01*
X253601Y247598D01*
Y245599D01*
X254601Y244599D01*
X257600D01*
X255601D02*
X253601Y242600D01*
X251602D02*
X249603D01*
X250602D01*
Y248598D01*
X251602Y247598D01*
X246604Y243600D02*
X245604Y242600D01*
X243604D01*
X242605Y243600D01*
Y247598D01*
X243604Y248598D01*
X245604D01*
X246604Y247598D01*
Y246599D01*
X245604Y245599D01*
X242605D01*
X232100Y356100D02*
Y362098D01*
X229101D01*
X228101Y361098D01*
Y359099D01*
X229101Y358099D01*
X232100D01*
X230101D02*
X228101Y356100D01*
X226102D02*
X224103D01*
X225102D01*
Y362098D01*
X226102Y361098D01*
X221104D02*
X220104Y362098D01*
X218105D01*
X217105Y361098D01*
Y360099D01*
X218105Y359099D01*
X217105Y358099D01*
Y357100D01*
X218105Y356100D01*
X220104D01*
X221104Y357100D01*
Y358099D01*
X220104Y359099D01*
X221104Y360099D01*
Y361098D01*
X220104Y359099D02*
X218105D01*
X267100Y242600D02*
Y248598D01*
X264101D01*
X263101Y247598D01*
Y245599D01*
X264101Y244599D01*
X267100D01*
X265101D02*
X263101Y242600D01*
X261102D02*
X259103D01*
X260102D01*
Y248598D01*
X261102Y247598D01*
X256104Y248598D02*
X252105D01*
Y247598D01*
X256104Y243600D01*
Y242600D01*
X232100Y366100D02*
Y372098D01*
X229101D01*
X228101Y371098D01*
Y369099D01*
X229101Y368099D01*
X232100D01*
X230101D02*
X228101Y366100D01*
X226102D02*
X224103D01*
X225102D01*
Y372098D01*
X226102Y371098D01*
X217105Y372098D02*
X219104Y371098D01*
X221104Y369099D01*
Y367100D01*
X220104Y366100D01*
X218105D01*
X217105Y367100D01*
Y368099D01*
X218105Y369099D01*
X221104D01*
X247100Y272100D02*
Y278098D01*
X244101D01*
X243101Y277098D01*
Y275099D01*
X244101Y274099D01*
X247100D01*
X245101D02*
X243101Y272100D01*
X241102D02*
X239103D01*
X240102D01*
Y278098D01*
X241102Y277098D01*
X232105Y278098D02*
X236104D01*
Y275099D01*
X234104Y276099D01*
X233104D01*
X232105Y275099D01*
Y273100D01*
X233104Y272100D01*
X235104D01*
X236104Y273100D01*
X246600Y331100D02*
Y337098D01*
X243601D01*
X242601Y336098D01*
Y334099D01*
X243601Y333099D01*
X246600D01*
X244601D02*
X242601Y331100D01*
X240602D02*
X238603D01*
X239602D01*
Y337098D01*
X240602Y336098D01*
X232605Y331100D02*
Y337098D01*
X235604Y334099D01*
X231605D01*
X248601Y306098D02*
X249601Y307098D01*
X251600D01*
X252600Y306098D01*
Y302100D01*
X251600Y301100D01*
X249601D01*
X248601Y302100D01*
X246602Y301100D02*
X244603D01*
X245602D01*
Y307098D01*
X246602Y306098D01*
X241604Y307098D02*
X237605D01*
Y306098D01*
X241604Y302100D01*
Y301100D01*
X247601Y366098D02*
X248601Y367098D01*
X250600D01*
X251600Y366098D01*
Y362100D01*
X250600Y361100D01*
X248601D01*
X247601Y362100D01*
X245602Y361100D02*
X243603D01*
X244602D01*
Y367098D01*
X245602Y366098D01*
X240604D02*
X239604Y367098D01*
X237604D01*
X236605Y366098D01*
Y365099D01*
X237604Y364099D01*
X238604D01*
X237604D01*
X236605Y363099D01*
Y362100D01*
X237604Y361100D01*
X239604D01*
X240604Y362100D01*
X357101Y241098D02*
X358101Y242098D01*
X360100D01*
X361100Y241098D01*
Y237100D01*
X360100Y236100D01*
X358101D01*
X357101Y237100D01*
X355102Y236100D02*
X353103D01*
X354102D01*
Y242098D01*
X355102Y241098D01*
X523604Y321498D02*
X519605Y317500D01*
X523604D02*
X519605Y321498D01*
X523604Y319499D02*
X519605D01*
X521605Y317500D02*
Y321498D01*
X513607Y322498D02*
X515606Y321498D01*
X517606Y319499D01*
Y317500D01*
X516606Y316500D01*
X514607D01*
X513607Y317500D01*
Y318499D01*
X514607Y319499D01*
X517606D01*
X491604Y321498D02*
X487605Y317500D01*
X491604D02*
X487605Y321498D01*
X491604Y319499D02*
X487605D01*
X489605Y317500D02*
Y321498D01*
X481607Y322498D02*
X485606D01*
Y319499D01*
X483606Y320499D01*
X482607D01*
X481607Y319499D01*
Y317500D01*
X482607Y316500D01*
X484606D01*
X485606Y317500D01*
X459604Y321498D02*
X455605Y317500D01*
X459604D02*
X455605Y321498D01*
X459604Y319499D02*
X455605D01*
X457605Y317500D02*
Y321498D01*
X450607Y316500D02*
Y322498D01*
X453606Y319499D01*
X449607D01*
X294650Y252350D02*
X288652D01*
Y249351D01*
X289652Y248351D01*
X291651D01*
X292651Y249351D01*
Y252350D01*
X294650Y242353D02*
Y246352D01*
X290651Y242353D01*
X289652D01*
X288652Y243353D01*
Y245352D01*
X289652Y246352D01*
Y240354D02*
X288652Y239354D01*
Y237355D01*
X289652Y236355D01*
X293650D01*
X294650Y237355D01*
Y239354D01*
X293650Y240354D01*
X289652D01*
X373900Y318900D02*
Y324898D01*
X370901D01*
X369901Y323898D01*
Y321899D01*
X370901Y320899D01*
X373900D01*
X363903Y318900D02*
X367902D01*
X363903Y322899D01*
Y323898D01*
X364903Y324898D01*
X366902D01*
X367902Y323898D01*
X357905Y324898D02*
X359905Y323898D01*
X361904Y321899D01*
Y319900D01*
X360904Y318900D01*
X358905D01*
X357905Y319900D01*
Y320899D01*
X358905Y321899D01*
X361904D01*
X346000Y246500D02*
Y240502D01*
X348999D01*
X349999Y241502D01*
Y243501D01*
X348999Y244501D01*
X346000D01*
X355997Y246500D02*
X351998D01*
X355997Y242501D01*
Y241502D01*
X354997Y240502D01*
X352998D01*
X351998Y241502D01*
X357996D02*
X358996Y240502D01*
X360995D01*
X361995Y241502D01*
Y242501D01*
X360995Y243501D01*
X361995Y244501D01*
Y245500D01*
X360995Y246500D01*
X358996D01*
X357996Y245500D01*
Y244501D01*
X358996Y243501D01*
X357996Y242501D01*
Y241502D01*
X358996Y243501D02*
X360995D01*
D27*
X513779Y250350D02*
Y256650D01*
X511024Y253500D02*
X516535D01*
X511024Y303894D02*
X516535D01*
X513779Y300744D02*
Y307043D01*
X494095Y234602D02*
X524409D01*
Y313342D01*
X494095D02*
X524213D01*
X494095Y234602D02*
Y313342D01*
X522441Y267280D02*
Y287752D01*
X481779Y250350D02*
Y256650D01*
X479024Y253500D02*
X484535D01*
X479024Y303894D02*
X484535D01*
X481779Y300744D02*
Y307043D01*
X462094Y234602D02*
X492410D01*
Y313342D01*
X462094D02*
X492213D01*
X462094Y234602D02*
Y313342D01*
X490441Y267280D02*
Y287752D01*
X449780Y250350D02*
Y256650D01*
X447024Y253500D02*
X452535D01*
X447024Y303894D02*
X452535D01*
X449780Y300744D02*
Y307043D01*
X430094Y234602D02*
X460409D01*
Y313342D01*
X430094D02*
X460213D01*
X430094Y234602D02*
Y313342D01*
X458441Y267280D02*
Y287752D01*
D28*
X331500Y216000D02*
Y236000D01*
X321500Y216000D02*
X331500D01*
X321500D02*
Y236000D01*
X331500D01*
X200500Y224000D02*
X270500D01*
Y214000D02*
Y224000D01*
X200500Y214000D02*
X270500D01*
X200500D02*
Y224000D01*
X298000Y253000D02*
X318000D01*
Y243000D02*
Y253000D01*
X298000Y243000D02*
X318000D01*
X298000D02*
Y253000D01*
X354500Y305500D02*
Y315500D01*
Y305500D02*
X374500D01*
Y315500D01*
X354500D02*
X374500D01*
X323500Y243000D02*
Y253000D01*
Y243000D02*
X343500D01*
Y253000D01*
X323500D02*
X343500D01*
M02*
