M48
;Layer_Color=9474304
;FILE_FORMAT=2:5
INCH,LZ
;TYPE=PLATED
T1F00S00C0.02756
T2F00S00C0.02800
T3F00S00C0.03000
T4F00S00C0.03346
T5F00S00C0.03543
T6F00S00C0.03937
T7F00S00C0.06299
T8F00S00C0.07480
%
T01
X05345Y038728
Y0417279
T02
X04485Y02575
X04425Y02645
X0278Y0341
X04195Y0355
X043Y03485
X04585Y03415
X0446Y0376
X0486Y0354
X0581Y03265
T03
X0338Y0297779
X0348
X0358
X0368
T04
X03355Y044178
X03655
T05
X0473398Y0297488
Y0307488
X0463398
Y0297488
X0466075Y0248854
Y0238854
X039Y024978
X038
X03645
X03545
X03725Y023628
Y0226279
X0317Y0220779
X0411Y031228
X0421
X0310398Y0307488
X0300398
Y0297488
X0310398
X0303075Y0248854
Y0238854
X0307Y0220779
X0297
X0287
X0277
X0267
X0257
X0291575Y0362354
Y0372354
X0288898Y0420988
Y0430988
X0298898
Y0420988
X0600331Y04195
Y04295
Y0392
Y0382
T06
X03375Y0366319
X0365846
Y043128
X03375
T07
X03945Y0343779
Y0423779
X05745
Y038378
T08
X0341189Y0340496
X0364811
M30
