G04 Layer_Color=2752767*
%FSLAX25Y25*%
%MOIN*%
G70*
G01*
G75*
%ADD16C,0.01000*%
%ADD53C,0.00500*%
%ADD54C,0.01600*%
D16*
X613213Y308999D02*
X609500D01*
Y303000D01*
X613213D01*
X609500Y306142D02*
X611785D01*
X662586Y307570D02*
Y307856D01*
X662871Y308427D01*
X663157Y308713D01*
X663728Y308999D01*
X664871D01*
X665442Y308713D01*
X665728Y308427D01*
X666013Y307856D01*
Y307285D01*
X665728Y306714D01*
X665157Y305856D01*
X662300Y303000D01*
X666299D01*
X720690Y307570D02*
Y307856D01*
X720976Y308427D01*
X721261Y308713D01*
X721833Y308999D01*
X722975D01*
X723547Y308713D01*
X723832Y308427D01*
X724118Y307856D01*
Y307285D01*
X723832Y306714D01*
X723261Y305856D01*
X720404Y303000D01*
X724403D01*
X729745Y308999D02*
X726889Y303000D01*
X725746Y308999D02*
X729745D01*
X731374Y303571D02*
X731088Y303286D01*
X731374Y303000D01*
X731659Y303286D01*
X731374Y303571D01*
X736401Y308999D02*
X733544D01*
X733259Y306428D01*
X733544Y306714D01*
X734401Y306999D01*
X735258D01*
X736115Y306714D01*
X736687Y306142D01*
X736972Y305285D01*
Y304714D01*
X736687Y303857D01*
X736115Y303286D01*
X735258Y303000D01*
X734401D01*
X733544Y303286D01*
X733259Y303571D01*
X732973Y304143D01*
X741743Y308999D02*
X738886D01*
X738600Y306428D01*
X738886Y306714D01*
X739743Y306999D01*
X740600D01*
X741457Y306714D01*
X742028Y306142D01*
X742314Y305285D01*
Y304714D01*
X742028Y303857D01*
X741457Y303286D01*
X740600Y303000D01*
X739743D01*
X738886Y303286D01*
X738600Y303571D01*
X738315Y304143D01*
X747370Y306999D02*
X747084Y306142D01*
X746513Y305571D01*
X745656Y305285D01*
X745370D01*
X744514Y305571D01*
X743942Y306142D01*
X743656Y306999D01*
Y307285D01*
X743942Y308142D01*
X744514Y308713D01*
X745370Y308999D01*
X745656D01*
X746513Y308713D01*
X747084Y308142D01*
X747370Y306999D01*
Y305571D01*
X747084Y304143D01*
X746513Y303286D01*
X745656Y303000D01*
X745085D01*
X744228Y303286D01*
X743942Y303857D01*
X748998Y306999D02*
Y303000D01*
Y305856D02*
X749855Y306714D01*
X750426Y306999D01*
X751284D01*
X751855Y306714D01*
X752140Y305856D01*
Y303000D01*
Y305856D02*
X752997Y306714D01*
X753569Y306999D01*
X754426D01*
X754997Y306714D01*
X755283Y305856D01*
Y303000D01*
X757739Y308999D02*
X758025Y308713D01*
X758311Y308999D01*
X758025Y309284D01*
X757739Y308999D01*
X758025Y306999D02*
Y303000D01*
X759368Y308999D02*
Y303000D01*
X767337Y310141D02*
X766766Y309570D01*
X766195Y308713D01*
X765623Y307570D01*
X765338Y306142D01*
Y305000D01*
X765623Y303571D01*
X766195Y302429D01*
X766766Y301572D01*
X767337Y301000D01*
X766766Y309570D02*
X766195Y308427D01*
X765909Y307570D01*
X765623Y306142D01*
Y305000D01*
X765909Y303571D01*
X766195Y302714D01*
X766766Y301572D01*
X770194Y308999D02*
X769337Y308713D01*
X768765Y307856D01*
X768480Y306428D01*
Y305571D01*
X768765Y304143D01*
X769337Y303286D01*
X770194Y303000D01*
X770765D01*
X771622Y303286D01*
X772193Y304143D01*
X772479Y305571D01*
Y306428D01*
X772193Y307856D01*
X771622Y308713D01*
X770765Y308999D01*
X770194D01*
X774107Y303571D02*
X773821Y303286D01*
X774107Y303000D01*
X774393Y303286D01*
X774107Y303571D01*
X779706Y308999D02*
X776849Y303000D01*
X775707Y308999D02*
X779706D01*
X781048Y306999D02*
Y303000D01*
Y305856D02*
X781906Y306714D01*
X782477Y306999D01*
X783334D01*
X783905Y306714D01*
X784191Y305856D01*
Y303000D01*
Y305856D02*
X785048Y306714D01*
X785619Y306999D01*
X786476D01*
X787047Y306714D01*
X787333Y305856D01*
Y303000D01*
X789218Y306999D02*
Y303000D01*
Y305856D02*
X790075Y306714D01*
X790647Y306999D01*
X791503D01*
X792075Y306714D01*
X792360Y305856D01*
Y303000D01*
Y305856D02*
X793217Y306714D01*
X793789Y306999D01*
X794646D01*
X795217Y306714D01*
X795503Y305856D01*
Y303000D01*
X797388Y310141D02*
X797959Y309570D01*
X798530Y308713D01*
X799102Y307570D01*
X799388Y306142D01*
Y305000D01*
X799102Y303571D01*
X798530Y302429D01*
X797959Y301572D01*
X797388Y301000D01*
X797959Y309570D02*
X798530Y308427D01*
X798816Y307570D01*
X799102Y306142D01*
Y305000D01*
X798816Y303571D01*
X798530Y302714D01*
X797959Y301572D01*
X820980Y305856D02*
X823551D01*
X824407Y306142D01*
X824693Y306428D01*
X824979Y306999D01*
Y307856D01*
X824693Y308427D01*
X824407Y308713D01*
X823551Y308999D01*
X820980D01*
Y303000D01*
X828321Y308999D02*
Y303000D01*
X826321Y308999D02*
X830320D01*
X831035D02*
Y303000D01*
X835034Y308999D02*
Y303000D01*
X831035Y306142D02*
X835034D01*
X860471Y308999D02*
Y303000D01*
Y308999D02*
X863042D01*
X863899Y308713D01*
X864184Y308427D01*
X864470Y307856D01*
Y307285D01*
X864184Y306714D01*
X863899Y306428D01*
X863042Y306142D01*
X860471D01*
X862471D02*
X864470Y303000D01*
X867241Y306999D02*
X866670Y306714D01*
X866098Y306142D01*
X865813Y305285D01*
Y304714D01*
X866098Y303857D01*
X866670Y303286D01*
X867241Y303000D01*
X868098D01*
X868669Y303286D01*
X869240Y303857D01*
X869526Y304714D01*
Y305285D01*
X869240Y306142D01*
X868669Y306714D01*
X868098Y306999D01*
X867241D01*
X870840D02*
Y304143D01*
X871126Y303286D01*
X871697Y303000D01*
X872554D01*
X873125Y303286D01*
X873982Y304143D01*
Y306999D02*
Y303000D01*
X875553Y306999D02*
Y303000D01*
Y305856D02*
X876410Y306714D01*
X876982Y306999D01*
X877839D01*
X878410Y306714D01*
X878696Y305856D01*
Y303000D01*
X883694Y308999D02*
Y303000D01*
Y306142D02*
X883123Y306714D01*
X882552Y306999D01*
X881695D01*
X881124Y306714D01*
X880552Y306142D01*
X880267Y305285D01*
Y304714D01*
X880552Y303857D01*
X881124Y303286D01*
X881695Y303000D01*
X882552D01*
X883123Y303286D01*
X883694Y303857D01*
X609500Y296999D02*
Y291000D01*
X613499Y296999D02*
Y291000D01*
X609500Y294142D02*
X613499D01*
X666013Y294999D02*
X665728Y294142D01*
X665157Y293571D01*
X664300Y293285D01*
X664014D01*
X663157Y293571D01*
X662586Y294142D01*
X662300Y294999D01*
Y295285D01*
X662586Y296142D01*
X663157Y296713D01*
X664014Y296999D01*
X664300D01*
X665157Y296713D01*
X665728Y296142D01*
X666013Y294999D01*
Y293571D01*
X665728Y292143D01*
X665157Y291286D01*
X664300Y291000D01*
X663728D01*
X662871Y291286D01*
X662586Y291857D01*
X720690Y295570D02*
Y295856D01*
X720976Y296427D01*
X721261Y296713D01*
X721833Y296999D01*
X722975D01*
X723547Y296713D01*
X723832Y296427D01*
X724118Y295856D01*
Y295285D01*
X723832Y294713D01*
X723261Y293857D01*
X720404Y291000D01*
X724403D01*
X727174Y296999D02*
X726317Y296713D01*
X726032Y296142D01*
Y295570D01*
X726317Y294999D01*
X726889Y294713D01*
X728031Y294428D01*
X728888Y294142D01*
X729460Y293571D01*
X729745Y293000D01*
Y292143D01*
X729460Y291571D01*
X729174Y291286D01*
X728317Y291000D01*
X727174D01*
X726317Y291286D01*
X726032Y291571D01*
X725746Y292143D01*
Y293000D01*
X726032Y293571D01*
X726603Y294142D01*
X727460Y294428D01*
X728603Y294713D01*
X729174Y294999D01*
X729460Y295570D01*
Y296142D01*
X729174Y296713D01*
X728317Y296999D01*
X727174D01*
X731088Y294999D02*
Y291000D01*
Y293857D02*
X731945Y294713D01*
X732516Y294999D01*
X733373D01*
X733944Y294713D01*
X734230Y293857D01*
Y291000D01*
Y293857D02*
X735087Y294713D01*
X735658Y294999D01*
X736515D01*
X737086Y294713D01*
X737372Y293857D01*
Y291000D01*
X739829Y296999D02*
X740114Y296713D01*
X740400Y296999D01*
X740114Y297284D01*
X739829Y296999D01*
X740114Y294999D02*
Y291000D01*
X741457Y296999D02*
Y291000D01*
X749427Y298141D02*
X748855Y297570D01*
X748284Y296713D01*
X747713Y295570D01*
X747427Y294142D01*
Y293000D01*
X747713Y291571D01*
X748284Y290429D01*
X748855Y289572D01*
X749427Y289000D01*
X748855Y297570D02*
X748284Y296427D01*
X747999Y295570D01*
X747713Y294142D01*
Y293000D01*
X747999Y291571D01*
X748284Y290714D01*
X748855Y289572D01*
X752283Y296999D02*
X751426Y296713D01*
X750855Y295856D01*
X750569Y294428D01*
Y293571D01*
X750855Y292143D01*
X751426Y291286D01*
X752283Y291000D01*
X752855D01*
X753712Y291286D01*
X754283Y292143D01*
X754568Y293571D01*
Y294428D01*
X754283Y295856D01*
X753712Y296713D01*
X752855Y296999D01*
X752283D01*
X756197Y291571D02*
X755911Y291286D01*
X756197Y291000D01*
X756482Y291286D01*
X756197Y291571D01*
X761796Y296999D02*
X758939Y291000D01*
X757796Y296999D02*
X761796D01*
X763138Y295856D02*
X763709Y296142D01*
X764566Y296999D01*
Y291000D01*
X767537Y295856D02*
X768109Y296142D01*
X768965Y296999D01*
Y291000D01*
X772222Y295570D02*
Y295856D01*
X772507Y296427D01*
X772793Y296713D01*
X773364Y296999D01*
X774507D01*
X775078Y296713D01*
X775364Y296427D01*
X775650Y295856D01*
Y295285D01*
X775364Y294713D01*
X774793Y293857D01*
X771936Y291000D01*
X775935D01*
X777278Y294999D02*
Y291000D01*
Y293857D02*
X778135Y294713D01*
X778706Y294999D01*
X779563D01*
X780134Y294713D01*
X780420Y293857D01*
Y291000D01*
Y293857D02*
X781277Y294713D01*
X781848Y294999D01*
X782705D01*
X783277Y294713D01*
X783562Y293857D01*
Y291000D01*
X785448Y294999D02*
Y291000D01*
Y293857D02*
X786305Y294713D01*
X786876Y294999D01*
X787733D01*
X788304Y294713D01*
X788590Y293857D01*
Y291000D01*
Y293857D02*
X789447Y294713D01*
X790018Y294999D01*
X790875D01*
X791446Y294713D01*
X791732Y293857D01*
Y291000D01*
X793617Y298141D02*
X794189Y297570D01*
X794760Y296713D01*
X795331Y295570D01*
X795617Y294142D01*
Y293000D01*
X795331Y291571D01*
X794760Y290429D01*
X794189Y289572D01*
X793617Y289000D01*
X794189Y297570D02*
X794760Y296427D01*
X795046Y295570D01*
X795331Y294142D01*
Y293000D01*
X795046Y291571D01*
X794760Y290714D01*
X794189Y289572D01*
X820980Y293857D02*
X823551D01*
X824407Y294142D01*
X824693Y294428D01*
X824979Y294999D01*
Y295856D01*
X824693Y296427D01*
X824407Y296713D01*
X823551Y296999D01*
X820980D01*
Y291000D01*
X828321Y296999D02*
Y291000D01*
X826321Y296999D02*
X830320D01*
X831035D02*
Y291000D01*
X835034Y296999D02*
Y291000D01*
X831035Y294142D02*
X835034D01*
X860471Y296999D02*
Y291000D01*
Y296999D02*
X863042D01*
X863899Y296713D01*
X864184Y296427D01*
X864470Y295856D01*
Y295285D01*
X864184Y294713D01*
X863899Y294428D01*
X863042Y294142D01*
X860471D01*
X862471D02*
X864470Y291000D01*
X867241Y294999D02*
X866670Y294713D01*
X866098Y294142D01*
X865813Y293285D01*
Y292714D01*
X866098Y291857D01*
X866670Y291286D01*
X867241Y291000D01*
X868098D01*
X868669Y291286D01*
X869240Y291857D01*
X869526Y292714D01*
Y293285D01*
X869240Y294142D01*
X868669Y294713D01*
X868098Y294999D01*
X867241D01*
X870840D02*
Y292143D01*
X871126Y291286D01*
X871697Y291000D01*
X872554D01*
X873125Y291286D01*
X873982Y292143D01*
Y294999D02*
Y291000D01*
X875553Y294999D02*
Y291000D01*
Y293857D02*
X876410Y294713D01*
X876982Y294999D01*
X877839D01*
X878410Y294713D01*
X878696Y293857D01*
Y291000D01*
X883694Y296999D02*
Y291000D01*
Y294142D02*
X883123Y294713D01*
X882552Y294999D01*
X881695D01*
X881124Y294713D01*
X880552Y294142D01*
X880267Y293285D01*
Y292714D01*
X880552Y291857D01*
X881124Y291286D01*
X881695Y291000D01*
X882552D01*
X883123Y291286D01*
X883694Y291857D01*
X609500Y284999D02*
Y279000D01*
Y284999D02*
X612071D01*
X612928Y284713D01*
X613213Y284427D01*
X613499Y283856D01*
Y283285D01*
X613213Y282714D01*
X612928Y282428D01*
X612071Y282142D01*
X609500D02*
X612071D01*
X612928Y281856D01*
X613213Y281571D01*
X613499Y281000D01*
Y280143D01*
X613213Y279571D01*
X612928Y279286D01*
X612071Y279000D01*
X609500D01*
X665157Y284999D02*
X662300Y281000D01*
X666585D01*
X665157Y284999D02*
Y279000D01*
X720976Y284999D02*
X724118D01*
X722404Y282714D01*
X723261D01*
X723832Y282428D01*
X724118Y282142D01*
X724403Y281285D01*
Y280714D01*
X724118Y279857D01*
X723547Y279286D01*
X722690Y279000D01*
X721833D01*
X720976Y279286D01*
X720690Y279571D01*
X720404Y280143D01*
X727460Y284999D02*
X726603Y284713D01*
X726032Y283856D01*
X725746Y282428D01*
Y281571D01*
X726032Y280143D01*
X726603Y279286D01*
X727460Y279000D01*
X728031D01*
X728888Y279286D01*
X729460Y280143D01*
X729745Y281571D01*
Y282428D01*
X729460Y283856D01*
X728888Y284713D01*
X728031Y284999D01*
X727460D01*
X731088Y282999D02*
Y279000D01*
Y281856D02*
X731945Y282714D01*
X732516Y282999D01*
X733373D01*
X733944Y282714D01*
X734230Y281856D01*
Y279000D01*
Y281856D02*
X735087Y282714D01*
X735658Y282999D01*
X736515D01*
X737086Y282714D01*
X737372Y281856D01*
Y279000D01*
X739829Y284999D02*
X740114Y284713D01*
X740400Y284999D01*
X740114Y285284D01*
X739829Y284999D01*
X740114Y282999D02*
Y279000D01*
X741457Y284999D02*
Y279000D01*
X749427Y286141D02*
X748855Y285570D01*
X748284Y284713D01*
X747713Y283570D01*
X747427Y282142D01*
Y281000D01*
X747713Y279571D01*
X748284Y278429D01*
X748855Y277572D01*
X749427Y277000D01*
X748855Y285570D02*
X748284Y284427D01*
X747999Y283570D01*
X747713Y282142D01*
Y281000D01*
X747999Y279571D01*
X748284Y278714D01*
X748855Y277572D01*
X752283Y284999D02*
X751426Y284713D01*
X750855Y283856D01*
X750569Y282428D01*
Y281571D01*
X750855Y280143D01*
X751426Y279286D01*
X752283Y279000D01*
X752855D01*
X753712Y279286D01*
X754283Y280143D01*
X754568Y281571D01*
Y282428D01*
X754283Y283856D01*
X753712Y284713D01*
X752855Y284999D01*
X752283D01*
X756197Y279571D02*
X755911Y279286D01*
X756197Y279000D01*
X756482Y279286D01*
X756197Y279571D01*
X761796Y284999D02*
X758939Y279000D01*
X757796Y284999D02*
X761796D01*
X766566Y284142D02*
X766280Y284713D01*
X765423Y284999D01*
X764852D01*
X763995Y284713D01*
X763424Y283856D01*
X763138Y282428D01*
Y281000D01*
X763424Y279857D01*
X763995Y279286D01*
X764852Y279000D01*
X765138D01*
X765995Y279286D01*
X766566Y279857D01*
X766852Y280714D01*
Y281000D01*
X766566Y281856D01*
X765995Y282428D01*
X765138Y282714D01*
X764852D01*
X763995Y282428D01*
X763424Y281856D01*
X763138Y281000D01*
X768451Y283570D02*
Y283856D01*
X768737Y284427D01*
X769023Y284713D01*
X769594Y284999D01*
X770737D01*
X771308Y284713D01*
X771593Y284427D01*
X771879Y283856D01*
Y283285D01*
X771593Y282714D01*
X771022Y281856D01*
X768166Y279000D01*
X772165D01*
X773507Y282999D02*
Y279000D01*
Y281856D02*
X774364Y282714D01*
X774936Y282999D01*
X775793D01*
X776364Y282714D01*
X776650Y281856D01*
Y279000D01*
Y281856D02*
X777506Y282714D01*
X778078Y282999D01*
X778935D01*
X779506Y282714D01*
X779792Y281856D01*
Y279000D01*
X781677Y282999D02*
Y279000D01*
Y281856D02*
X782534Y282714D01*
X783105Y282999D01*
X783962D01*
X784534Y282714D01*
X784819Y281856D01*
Y279000D01*
Y281856D02*
X785676Y282714D01*
X786247Y282999D01*
X787104D01*
X787676Y282714D01*
X787961Y281856D01*
Y279000D01*
X789847Y286141D02*
X790418Y285570D01*
X790989Y284713D01*
X791561Y283570D01*
X791846Y282142D01*
Y281000D01*
X791561Y279571D01*
X790989Y278429D01*
X790418Y277572D01*
X789847Y277000D01*
X790418Y285570D02*
X790989Y284427D01*
X791275Y283570D01*
X791561Y282142D01*
Y281000D01*
X791275Y279571D01*
X790989Y278714D01*
X790418Y277572D01*
X820980Y281856D02*
X823551D01*
X824407Y282142D01*
X824693Y282428D01*
X824979Y282999D01*
Y283856D01*
X824693Y284427D01*
X824407Y284713D01*
X823551Y284999D01*
X820980D01*
Y279000D01*
X828321Y284999D02*
Y279000D01*
X826321Y284999D02*
X830320D01*
X831035D02*
Y279000D01*
X835034Y284999D02*
Y279000D01*
X831035Y282142D02*
X835034D01*
X860471Y284999D02*
Y279000D01*
Y284999D02*
X863042D01*
X863899Y284713D01*
X864184Y284427D01*
X864470Y283856D01*
Y283285D01*
X864184Y282714D01*
X863899Y282428D01*
X863042Y282142D01*
X860471D01*
X862471D02*
X864470Y279000D01*
X867241Y282999D02*
X866670Y282714D01*
X866098Y282142D01*
X865813Y281285D01*
Y280714D01*
X866098Y279857D01*
X866670Y279286D01*
X867241Y279000D01*
X868098D01*
X868669Y279286D01*
X869240Y279857D01*
X869526Y280714D01*
Y281285D01*
X869240Y282142D01*
X868669Y282714D01*
X868098Y282999D01*
X867241D01*
X870840D02*
Y280143D01*
X871126Y279286D01*
X871697Y279000D01*
X872554D01*
X873125Y279286D01*
X873982Y280143D01*
Y282999D02*
Y279000D01*
X875553Y282999D02*
Y279000D01*
Y281856D02*
X876410Y282714D01*
X876982Y282999D01*
X877839D01*
X878410Y282714D01*
X878696Y281856D01*
Y279000D01*
X883694Y284999D02*
Y279000D01*
Y282142D02*
X883123Y282714D01*
X882552Y282999D01*
X881695D01*
X881124Y282714D01*
X880552Y282142D01*
X880267Y281285D01*
Y280714D01*
X880552Y279857D01*
X881124Y279286D01*
X881695Y279000D01*
X882552D01*
X883123Y279286D01*
X883694Y279857D01*
X613785Y271570D02*
X613499Y272142D01*
X612928Y272713D01*
X612357Y272999D01*
X611214D01*
X610643Y272713D01*
X610071Y272142D01*
X609786Y271570D01*
X609500Y270713D01*
Y269285D01*
X609786Y268428D01*
X610071Y267857D01*
X610643Y267286D01*
X611214Y267000D01*
X612357D01*
X612928Y267286D01*
X613499Y267857D01*
X613785Y268428D01*
Y269285D01*
X612357D02*
X613785D01*
X662586Y271570D02*
Y271856D01*
X662871Y272427D01*
X663157Y272713D01*
X663728Y272999D01*
X664871D01*
X665442Y272713D01*
X665728Y272427D01*
X666013Y271856D01*
Y271285D01*
X665728Y270713D01*
X665157Y269857D01*
X662300Y267000D01*
X666299D01*
X720976Y272999D02*
X724118D01*
X722404Y270713D01*
X723261D01*
X723832Y270428D01*
X724118Y270142D01*
X724403Y269285D01*
Y268714D01*
X724118Y267857D01*
X723547Y267286D01*
X722690Y267000D01*
X721833D01*
X720976Y267286D01*
X720690Y267571D01*
X720404Y268143D01*
X726317Y272999D02*
X729460D01*
X727746Y270713D01*
X728603D01*
X729174Y270428D01*
X729460Y270142D01*
X729745Y269285D01*
Y268714D01*
X729460Y267857D01*
X728888Y267286D01*
X728031Y267000D01*
X727174D01*
X726317Y267286D01*
X726032Y267571D01*
X725746Y268143D01*
X731374Y267571D02*
X731088Y267286D01*
X731374Y267000D01*
X731659Y267286D01*
X731374Y267571D01*
X735830Y272999D02*
X732973Y269000D01*
X737258D01*
X735830Y272999D02*
Y267000D01*
X741743Y272142D02*
X741457Y272713D01*
X740600Y272999D01*
X740029D01*
X739172Y272713D01*
X738600Y271856D01*
X738315Y270428D01*
Y269000D01*
X738600Y267857D01*
X739172Y267286D01*
X740029Y267000D01*
X740314D01*
X741171Y267286D01*
X741743Y267857D01*
X742028Y268714D01*
Y269000D01*
X741743Y269857D01*
X741171Y270428D01*
X740314Y270713D01*
X740029D01*
X739172Y270428D01*
X738600Y269857D01*
X738315Y269000D01*
X746770Y272999D02*
X743914D01*
X743628Y270428D01*
X743914Y270713D01*
X744771Y270999D01*
X745627D01*
X746485Y270713D01*
X747056Y270142D01*
X747341Y269285D01*
Y268714D01*
X747056Y267857D01*
X746485Y267286D01*
X745627Y267000D01*
X744771D01*
X743914Y267286D01*
X743628Y267571D01*
X743342Y268143D01*
X748684Y270999D02*
Y267000D01*
Y269857D02*
X749541Y270713D01*
X750112Y270999D01*
X750969D01*
X751541Y270713D01*
X751826Y269857D01*
Y267000D01*
Y269857D02*
X752683Y270713D01*
X753255Y270999D01*
X754111D01*
X754683Y270713D01*
X754968Y269857D01*
Y267000D01*
X757425Y272999D02*
X757711Y272713D01*
X757996Y272999D01*
X757711Y273284D01*
X757425Y272999D01*
X757711Y270999D02*
Y267000D01*
X759053Y272999D02*
Y267000D01*
X767023Y274141D02*
X766452Y273570D01*
X765880Y272713D01*
X765309Y271570D01*
X765023Y270142D01*
Y269000D01*
X765309Y267571D01*
X765880Y266429D01*
X766452Y265572D01*
X767023Y265000D01*
X766452Y273570D02*
X765880Y272427D01*
X765595Y271570D01*
X765309Y270142D01*
Y269000D01*
X765595Y267571D01*
X765880Y266714D01*
X766452Y265572D01*
X769879Y272999D02*
X769023Y272713D01*
X768451Y271856D01*
X768166Y270428D01*
Y269571D01*
X768451Y268143D01*
X769023Y267286D01*
X769879Y267000D01*
X770451D01*
X771308Y267286D01*
X771879Y268143D01*
X772165Y269571D01*
Y270428D01*
X771879Y271856D01*
X771308Y272713D01*
X770451Y272999D01*
X769879D01*
X773793Y267571D02*
X773507Y267286D01*
X773793Y267000D01*
X774079Y267286D01*
X773793Y267571D01*
X776821Y272999D02*
X775964Y272713D01*
X775678Y272142D01*
Y271570D01*
X775964Y270999D01*
X776535Y270713D01*
X777678Y270428D01*
X778535Y270142D01*
X779106Y269571D01*
X779392Y269000D01*
Y268143D01*
X779106Y267571D01*
X778820Y267286D01*
X777963Y267000D01*
X776821D01*
X775964Y267286D01*
X775678Y267571D01*
X775393Y268143D01*
Y269000D01*
X775678Y269571D01*
X776250Y270142D01*
X777107Y270428D01*
X778249Y270713D01*
X778820Y270999D01*
X779106Y271570D01*
Y272142D01*
X778820Y272713D01*
X777963Y272999D01*
X776821D01*
X784162D02*
X781306D01*
X781020Y270428D01*
X781306Y270713D01*
X782163Y270999D01*
X783019D01*
X783877Y270713D01*
X784448Y270142D01*
X784733Y269285D01*
Y268714D01*
X784448Y267857D01*
X783877Y267286D01*
X783019Y267000D01*
X782163D01*
X781306Y267286D01*
X781020Y267571D01*
X780734Y268143D01*
X786076Y270999D02*
Y267000D01*
Y269857D02*
X786933Y270713D01*
X787504Y270999D01*
X788361D01*
X788933Y270713D01*
X789218Y269857D01*
Y267000D01*
Y269857D02*
X790075Y270713D01*
X790647Y270999D01*
X791503D01*
X792075Y270713D01*
X792360Y269857D01*
Y267000D01*
X794246Y270999D02*
Y267000D01*
Y269857D02*
X795103Y270713D01*
X795674Y270999D01*
X796531D01*
X797102Y270713D01*
X797388Y269857D01*
Y267000D01*
Y269857D02*
X798245Y270713D01*
X798816Y270999D01*
X799673D01*
X800244Y270713D01*
X800530Y269857D01*
Y267000D01*
X802415Y274141D02*
X802987Y273570D01*
X803558Y272713D01*
X804129Y271570D01*
X804415Y270142D01*
Y269000D01*
X804129Y267571D01*
X803558Y266429D01*
X802987Y265572D01*
X802415Y265000D01*
X802987Y273570D02*
X803558Y272427D01*
X803844Y271570D01*
X804129Y270142D01*
Y269000D01*
X803844Y267571D01*
X803558Y266714D01*
X802987Y265572D01*
X820980Y269857D02*
X823551D01*
X824407Y270142D01*
X824693Y270428D01*
X824979Y270999D01*
Y271856D01*
X824693Y272427D01*
X824407Y272713D01*
X823551Y272999D01*
X820980D01*
Y267000D01*
X828321Y272999D02*
Y267000D01*
X826321Y272999D02*
X830320D01*
X831035D02*
Y267000D01*
X835034Y272999D02*
Y267000D01*
X831035Y270142D02*
X835034D01*
X860471Y272999D02*
Y267000D01*
Y272999D02*
X863042D01*
X863899Y272713D01*
X864184Y272427D01*
X864470Y271856D01*
Y271285D01*
X864184Y270713D01*
X863899Y270428D01*
X863042Y270142D01*
X860471D01*
X862471D02*
X864470Y267000D01*
X867241Y270999D02*
X866670Y270713D01*
X866098Y270142D01*
X865813Y269285D01*
Y268714D01*
X866098Y267857D01*
X866670Y267286D01*
X867241Y267000D01*
X868098D01*
X868669Y267286D01*
X869240Y267857D01*
X869526Y268714D01*
Y269285D01*
X869240Y270142D01*
X868669Y270713D01*
X868098Y270999D01*
X867241D01*
X870840D02*
Y268143D01*
X871126Y267286D01*
X871697Y267000D01*
X872554D01*
X873125Y267286D01*
X873982Y268143D01*
Y270999D02*
Y267000D01*
X875553Y270999D02*
Y267000D01*
Y269857D02*
X876410Y270713D01*
X876982Y270999D01*
X877839D01*
X878410Y270713D01*
X878696Y269857D01*
Y267000D01*
X883694Y272999D02*
Y267000D01*
Y270142D02*
X883123Y270713D01*
X882552Y270999D01*
X881695D01*
X881124Y270713D01*
X880552Y270142D01*
X880267Y269285D01*
Y268714D01*
X880552Y267857D01*
X881124Y267286D01*
X881695Y267000D01*
X882552D01*
X883123Y267286D01*
X883694Y267857D01*
X614070Y255000D02*
X611785Y260999D01*
X609500Y255000D01*
X610357Y257000D02*
X613213D01*
X662871Y260999D02*
X666013D01*
X664300Y258714D01*
X665157D01*
X665728Y258428D01*
X666013Y258142D01*
X666299Y257285D01*
Y256714D01*
X666013Y255857D01*
X665442Y255286D01*
X664585Y255000D01*
X663728D01*
X662871Y255286D01*
X662586Y255571D01*
X662300Y256143D01*
X671641Y260999D02*
X668784Y255000D01*
X667642Y260999D02*
X671641D01*
X720976D02*
X724118D01*
X722404Y258714D01*
X723261D01*
X723832Y258428D01*
X724118Y258142D01*
X724403Y257285D01*
Y256714D01*
X724118Y255857D01*
X723547Y255286D01*
X722690Y255000D01*
X721833D01*
X720976Y255286D01*
X720690Y255571D01*
X720404Y256143D01*
X729174Y260999D02*
X726317D01*
X726032Y258428D01*
X726317Y258714D01*
X727174Y258999D01*
X728031D01*
X728888Y258714D01*
X729460Y258142D01*
X729745Y257285D01*
Y256714D01*
X729460Y255857D01*
X728888Y255286D01*
X728031Y255000D01*
X727174D01*
X726317Y255286D01*
X726032Y255571D01*
X725746Y256143D01*
X731374Y255571D02*
X731088Y255286D01*
X731374Y255000D01*
X731659Y255286D01*
X731374Y255571D01*
X735830Y260999D02*
X732973Y257000D01*
X737258D01*
X735830Y260999D02*
Y255000D01*
X738886Y260999D02*
X742028D01*
X740314Y258714D01*
X741171D01*
X741743Y258428D01*
X742028Y258142D01*
X742314Y257285D01*
Y256714D01*
X742028Y255857D01*
X741457Y255286D01*
X740600Y255000D01*
X739743D01*
X738886Y255286D01*
X738600Y255571D01*
X738315Y256143D01*
X744228Y260999D02*
X747370D01*
X745656Y258714D01*
X746513D01*
X747084Y258428D01*
X747370Y258142D01*
X747656Y257285D01*
Y256714D01*
X747370Y255857D01*
X746799Y255286D01*
X745942Y255000D01*
X745085D01*
X744228Y255286D01*
X743942Y255571D01*
X743656Y256143D01*
X748998Y258999D02*
Y255000D01*
Y257856D02*
X749855Y258714D01*
X750426Y258999D01*
X751284D01*
X751855Y258714D01*
X752140Y257856D01*
Y255000D01*
Y257856D02*
X752997Y258714D01*
X753569Y258999D01*
X754426D01*
X754997Y258714D01*
X755283Y257856D01*
Y255000D01*
X757739Y260999D02*
X758025Y260713D01*
X758311Y260999D01*
X758025Y261284D01*
X757739Y260999D01*
X758025Y258999D02*
Y255000D01*
X759368Y260999D02*
Y255000D01*
X767337Y262141D02*
X766766Y261570D01*
X766195Y260713D01*
X765623Y259570D01*
X765338Y258142D01*
Y257000D01*
X765623Y255571D01*
X766195Y254429D01*
X766766Y253572D01*
X767337Y253000D01*
X766766Y261570D02*
X766195Y260427D01*
X765909Y259570D01*
X765623Y258142D01*
Y257000D01*
X765909Y255571D01*
X766195Y254714D01*
X766766Y253572D01*
X770194Y260999D02*
X769337Y260713D01*
X768765Y259856D01*
X768480Y258428D01*
Y257571D01*
X768765Y256143D01*
X769337Y255286D01*
X770194Y255000D01*
X770765D01*
X771622Y255286D01*
X772193Y256143D01*
X772479Y257571D01*
Y258428D01*
X772193Y259856D01*
X771622Y260713D01*
X770765Y260999D01*
X770194D01*
X774107Y255571D02*
X773821Y255286D01*
X774107Y255000D01*
X774393Y255286D01*
X774107Y255571D01*
X779420Y258999D02*
X779135Y258142D01*
X778563Y257571D01*
X777706Y257285D01*
X777421D01*
X776564Y257571D01*
X775992Y258142D01*
X775707Y258999D01*
Y259285D01*
X775992Y260142D01*
X776564Y260713D01*
X777421Y260999D01*
X777706D01*
X778563Y260713D01*
X779135Y260142D01*
X779420Y258999D01*
Y257571D01*
X779135Y256143D01*
X778563Y255286D01*
X777706Y255000D01*
X777135D01*
X776278Y255286D01*
X775992Y255857D01*
X781048Y258999D02*
Y255000D01*
Y257856D02*
X781906Y258714D01*
X782477Y258999D01*
X783334D01*
X783905Y258714D01*
X784191Y257856D01*
Y255000D01*
Y257856D02*
X785048Y258714D01*
X785619Y258999D01*
X786476D01*
X787047Y258714D01*
X787333Y257856D01*
Y255000D01*
X789218Y258999D02*
Y255000D01*
Y257856D02*
X790075Y258714D01*
X790647Y258999D01*
X791503D01*
X792075Y258714D01*
X792360Y257856D01*
Y255000D01*
Y257856D02*
X793217Y258714D01*
X793789Y258999D01*
X794646D01*
X795217Y258714D01*
X795503Y257856D01*
Y255000D01*
X797388Y262141D02*
X797959Y261570D01*
X798530Y260713D01*
X799102Y259570D01*
X799388Y258142D01*
Y257000D01*
X799102Y255571D01*
X798530Y254429D01*
X797959Y253572D01*
X797388Y253000D01*
X797959Y261570D02*
X798530Y260427D01*
X798816Y259570D01*
X799102Y258142D01*
Y257000D01*
X798816Y255571D01*
X798530Y254714D01*
X797959Y253572D01*
X820980Y257856D02*
X823551D01*
X824407Y258142D01*
X824693Y258428D01*
X824979Y258999D01*
Y259856D01*
X824693Y260427D01*
X824407Y260713D01*
X823551Y260999D01*
X820980D01*
Y255000D01*
X828321Y260999D02*
Y255000D01*
X826321Y260999D02*
X830320D01*
X831035D02*
Y255000D01*
X835034Y260999D02*
Y255000D01*
X831035Y258142D02*
X835034D01*
X860471Y260999D02*
Y255000D01*
Y260999D02*
X863042D01*
X863899Y260713D01*
X864184Y260427D01*
X864470Y259856D01*
Y259285D01*
X864184Y258714D01*
X863899Y258428D01*
X863042Y258142D01*
X860471D01*
X862471D02*
X864470Y255000D01*
X867241Y258999D02*
X866670Y258714D01*
X866098Y258142D01*
X865813Y257285D01*
Y256714D01*
X866098Y255857D01*
X866670Y255286D01*
X867241Y255000D01*
X868098D01*
X868669Y255286D01*
X869240Y255857D01*
X869526Y256714D01*
Y257285D01*
X869240Y258142D01*
X868669Y258714D01*
X868098Y258999D01*
X867241D01*
X870840D02*
Y256143D01*
X871126Y255286D01*
X871697Y255000D01*
X872554D01*
X873125Y255286D01*
X873982Y256143D01*
Y258999D02*
Y255000D01*
X875553Y258999D02*
Y255000D01*
Y257856D02*
X876410Y258714D01*
X876982Y258999D01*
X877839D01*
X878410Y258714D01*
X878696Y257856D01*
Y255000D01*
X883694Y260999D02*
Y255000D01*
Y258142D02*
X883123Y258714D01*
X882552Y258999D01*
X881695D01*
X881124Y258714D01*
X880552Y258142D01*
X880267Y257285D01*
Y256714D01*
X880552Y255857D01*
X881124Y255286D01*
X881695Y255000D01*
X882552D01*
X883123Y255286D01*
X883694Y255857D01*
X609500Y248999D02*
Y243000D01*
Y248999D02*
X613213D01*
X609500Y246142D02*
X611785D01*
X665157Y248999D02*
X662300Y245000D01*
X666585D01*
X665157Y248999D02*
Y243000D01*
X720976Y248999D02*
X724118D01*
X722404Y246713D01*
X723261D01*
X723832Y246428D01*
X724118Y246142D01*
X724403Y245285D01*
Y244714D01*
X724118Y243857D01*
X723547Y243286D01*
X722690Y243000D01*
X721833D01*
X720976Y243286D01*
X720690Y243571D01*
X720404Y244143D01*
X729460Y246999D02*
X729174Y246142D01*
X728603Y245571D01*
X727746Y245285D01*
X727460D01*
X726603Y245571D01*
X726032Y246142D01*
X725746Y246999D01*
Y247285D01*
X726032Y248142D01*
X726603Y248713D01*
X727460Y248999D01*
X727746D01*
X728603Y248713D01*
X729174Y248142D01*
X729460Y246999D01*
Y245571D01*
X729174Y244143D01*
X728603Y243286D01*
X727746Y243000D01*
X727174D01*
X726317Y243286D01*
X726032Y243857D01*
X731374Y243571D02*
X731088Y243286D01*
X731374Y243000D01*
X731659Y243286D01*
X731374Y243571D01*
X733544Y248999D02*
X736687D01*
X734973Y246713D01*
X735830D01*
X736401Y246428D01*
X736687Y246142D01*
X736972Y245285D01*
Y244714D01*
X736687Y243857D01*
X736115Y243286D01*
X735258Y243000D01*
X734401D01*
X733544Y243286D01*
X733259Y243571D01*
X732973Y244143D01*
X742314Y248999D02*
X739457Y243000D01*
X738315Y248999D02*
X742314D01*
X743656Y246999D02*
Y243000D01*
Y245856D02*
X744514Y246713D01*
X745085Y246999D01*
X745942D01*
X746513Y246713D01*
X746799Y245856D01*
Y243000D01*
Y245856D02*
X747656Y246713D01*
X748227Y246999D01*
X749084D01*
X749655Y246713D01*
X749941Y245856D01*
Y243000D01*
X752397Y248999D02*
X752683Y248713D01*
X752969Y248999D01*
X752683Y249284D01*
X752397Y248999D01*
X752683Y246999D02*
Y243000D01*
X754026Y248999D02*
Y243000D01*
X761996Y250141D02*
X761424Y249570D01*
X760853Y248713D01*
X760282Y247570D01*
X759996Y246142D01*
Y245000D01*
X760282Y243571D01*
X760853Y242429D01*
X761424Y241572D01*
X761996Y241000D01*
X761424Y249570D02*
X760853Y248427D01*
X760567Y247570D01*
X760282Y246142D01*
Y245000D01*
X760567Y243571D01*
X760853Y242714D01*
X761424Y241572D01*
X763138Y247856D02*
X763709Y248142D01*
X764566Y248999D01*
Y243000D01*
X767537Y246999D02*
Y243000D01*
Y245856D02*
X768394Y246713D01*
X768965Y246999D01*
X769822D01*
X770394Y246713D01*
X770679Y245856D01*
Y243000D01*
Y245856D02*
X771536Y246713D01*
X772108Y246999D01*
X772965D01*
X773536Y246713D01*
X773821Y245856D01*
Y243000D01*
X775707Y246999D02*
Y243000D01*
Y245856D02*
X776564Y246713D01*
X777135Y246999D01*
X777992D01*
X778563Y246713D01*
X778849Y245856D01*
Y243000D01*
Y245856D02*
X779706Y246713D01*
X780277Y246999D01*
X781134D01*
X781706Y246713D01*
X781991Y245856D01*
Y243000D01*
X783877Y250141D02*
X784448Y249570D01*
X785019Y248713D01*
X785590Y247570D01*
X785876Y246142D01*
Y245000D01*
X785590Y243571D01*
X785019Y242429D01*
X784448Y241572D01*
X783877Y241000D01*
X784448Y249570D02*
X785019Y248427D01*
X785305Y247570D01*
X785590Y246142D01*
Y245000D01*
X785305Y243571D01*
X785019Y242714D01*
X784448Y241572D01*
X820980Y245856D02*
X823551D01*
X824407Y246142D01*
X824693Y246428D01*
X824979Y246999D01*
Y247856D01*
X824693Y248427D01*
X824407Y248713D01*
X823551Y248999D01*
X820980D01*
Y243000D01*
X828321Y248999D02*
Y243000D01*
X826321Y248999D02*
X830320D01*
X831035D02*
Y243000D01*
X835034Y248999D02*
Y243000D01*
X831035Y246142D02*
X835034D01*
X860471Y248999D02*
Y243000D01*
Y248999D02*
X863042D01*
X863899Y248713D01*
X864184Y248427D01*
X864470Y247856D01*
Y247285D01*
X864184Y246713D01*
X863899Y246428D01*
X863042Y246142D01*
X860471D01*
X862471D02*
X864470Y243000D01*
X867241Y246999D02*
X866670Y246713D01*
X866098Y246142D01*
X865813Y245285D01*
Y244714D01*
X866098Y243857D01*
X866670Y243286D01*
X867241Y243000D01*
X868098D01*
X868669Y243286D01*
X869240Y243857D01*
X869526Y244714D01*
Y245285D01*
X869240Y246142D01*
X868669Y246713D01*
X868098Y246999D01*
X867241D01*
X870840D02*
Y244143D01*
X871126Y243286D01*
X871697Y243000D01*
X872554D01*
X873125Y243286D01*
X873982Y244143D01*
Y246999D02*
Y243000D01*
X875553Y246999D02*
Y243000D01*
Y245856D02*
X876410Y246713D01*
X876982Y246999D01*
X877839D01*
X878410Y246713D01*
X878696Y245856D01*
Y243000D01*
X883694Y248999D02*
Y243000D01*
Y246142D02*
X883123Y246713D01*
X882552Y246999D01*
X881695D01*
X881124Y246713D01*
X880552Y246142D01*
X880267Y245285D01*
Y244714D01*
X880552Y243857D01*
X881124Y243286D01*
X881695Y243000D01*
X882552D01*
X883123Y243286D01*
X883694Y243857D01*
X609500Y236999D02*
Y231000D01*
Y236999D02*
X611500D01*
X612357Y236713D01*
X612928Y236142D01*
X613213Y235570D01*
X613499Y234714D01*
Y233285D01*
X613213Y232428D01*
X612928Y231857D01*
X612357Y231286D01*
X611500Y231000D01*
X609500D01*
X665157Y236999D02*
X662300Y233000D01*
X666585D01*
X665157Y236999D02*
Y231000D01*
X723832Y236142D02*
X723547Y236713D01*
X722690Y236999D01*
X722118D01*
X721261Y236713D01*
X720690Y235856D01*
X720404Y234428D01*
Y233000D01*
X720690Y231857D01*
X721261Y231286D01*
X722118Y231000D01*
X722404D01*
X723261Y231286D01*
X723832Y231857D01*
X724118Y232714D01*
Y233000D01*
X723832Y233857D01*
X723261Y234428D01*
X722404Y234714D01*
X722118D01*
X721261Y234428D01*
X720690Y233857D01*
X720404Y233000D01*
X725717Y235570D02*
Y235856D01*
X726003Y236427D01*
X726289Y236713D01*
X726860Y236999D01*
X728003D01*
X728574Y236713D01*
X728860Y236427D01*
X729145Y235856D01*
Y235285D01*
X728860Y234714D01*
X728288Y233857D01*
X725432Y231000D01*
X729431D01*
X731059Y231571D02*
X730774Y231286D01*
X731059Y231000D01*
X731345Y231286D01*
X731059Y231571D01*
X736372Y234999D02*
X736087Y234142D01*
X735515Y233571D01*
X734658Y233285D01*
X734373D01*
X733516Y233571D01*
X732945Y234142D01*
X732659Y234999D01*
Y235285D01*
X732945Y236142D01*
X733516Y236713D01*
X734373Y236999D01*
X734658D01*
X735515Y236713D01*
X736087Y236142D01*
X736372Y234999D01*
Y233571D01*
X736087Y232143D01*
X735515Y231286D01*
X734658Y231000D01*
X734087D01*
X733230Y231286D01*
X732945Y231857D01*
X741714Y234999D02*
X741429Y234142D01*
X740857Y233571D01*
X740000Y233285D01*
X739714D01*
X738858Y233571D01*
X738286Y234142D01*
X738001Y234999D01*
Y235285D01*
X738286Y236142D01*
X738858Y236713D01*
X739714Y236999D01*
X740000D01*
X740857Y236713D01*
X741429Y236142D01*
X741714Y234999D01*
Y233571D01*
X741429Y232143D01*
X740857Y231286D01*
X740000Y231000D01*
X739429D01*
X738572Y231286D01*
X738286Y231857D01*
X743628Y235570D02*
Y235856D01*
X743914Y236427D01*
X744199Y236713D01*
X744771Y236999D01*
X745913D01*
X746485Y236713D01*
X746770Y236427D01*
X747056Y235856D01*
Y235285D01*
X746770Y234714D01*
X746199Y233857D01*
X743342Y231000D01*
X747341D01*
X748684Y234999D02*
Y231000D01*
Y233857D02*
X749541Y234714D01*
X750112Y234999D01*
X750969D01*
X751541Y234714D01*
X751826Y233857D01*
Y231000D01*
Y233857D02*
X752683Y234714D01*
X753255Y234999D01*
X754111D01*
X754683Y234714D01*
X754968Y233857D01*
Y231000D01*
X757425Y236999D02*
X757711Y236713D01*
X757996Y236999D01*
X757711Y237284D01*
X757425Y236999D01*
X757711Y234999D02*
Y231000D01*
X759053Y236999D02*
Y231000D01*
X767023Y238141D02*
X766452Y237570D01*
X765880Y236713D01*
X765309Y235570D01*
X765023Y234142D01*
Y233000D01*
X765309Y231571D01*
X765880Y230429D01*
X766452Y229572D01*
X767023Y229000D01*
X766452Y237570D02*
X765880Y236427D01*
X765595Y235570D01*
X765309Y234142D01*
Y233000D01*
X765595Y231571D01*
X765880Y230714D01*
X766452Y229572D01*
X768166Y235856D02*
X768737Y236142D01*
X769594Y236999D01*
Y231000D01*
X772850Y231571D02*
X772565Y231286D01*
X772850Y231000D01*
X773136Y231286D01*
X772850Y231571D01*
X777878Y236142D02*
X777592Y236713D01*
X776735Y236999D01*
X776164D01*
X775307Y236713D01*
X774736Y235856D01*
X774450Y234428D01*
Y233000D01*
X774736Y231857D01*
X775307Y231286D01*
X776164Y231000D01*
X776449D01*
X777307Y231286D01*
X777878Y231857D01*
X778163Y232714D01*
Y233000D01*
X777878Y233857D01*
X777307Y234428D01*
X776449Y234714D01*
X776164D01*
X775307Y234428D01*
X774736Y233857D01*
X774450Y233000D01*
X779477Y234999D02*
Y231000D01*
Y233857D02*
X780334Y234714D01*
X780906Y234999D01*
X781763D01*
X782334Y234714D01*
X782620Y233857D01*
Y231000D01*
Y233857D02*
X783477Y234714D01*
X784048Y234999D01*
X784905D01*
X785476Y234714D01*
X785762Y233857D01*
Y231000D01*
X787647Y234999D02*
Y231000D01*
Y233857D02*
X788504Y234714D01*
X789075Y234999D01*
X789932D01*
X790504Y234714D01*
X790789Y233857D01*
Y231000D01*
Y233857D02*
X791646Y234714D01*
X792218Y234999D01*
X793075D01*
X793646Y234714D01*
X793931Y233857D01*
Y231000D01*
X795817Y238141D02*
X796388Y237570D01*
X796959Y236713D01*
X797531Y235570D01*
X797816Y234142D01*
Y233000D01*
X797531Y231571D01*
X796959Y230429D01*
X796388Y229572D01*
X795817Y229000D01*
X796388Y237570D02*
X796959Y236427D01*
X797245Y235570D01*
X797531Y234142D01*
Y233000D01*
X797245Y231571D01*
X796959Y230714D01*
X796388Y229572D01*
X820980Y233857D02*
X823551D01*
X824407Y234142D01*
X824693Y234428D01*
X824979Y234999D01*
Y235856D01*
X824693Y236427D01*
X824407Y236713D01*
X823551Y236999D01*
X820980D01*
Y231000D01*
X828321Y236999D02*
Y231000D01*
X826321Y236999D02*
X830320D01*
X831035D02*
Y231000D01*
X835034Y236999D02*
Y231000D01*
X831035Y234142D02*
X835034D01*
X860471Y236999D02*
Y231000D01*
Y236999D02*
X863042D01*
X863899Y236713D01*
X864184Y236427D01*
X864470Y235856D01*
Y235285D01*
X864184Y234714D01*
X863899Y234428D01*
X863042Y234142D01*
X860471D01*
X862471D02*
X864470Y231000D01*
X867241Y234999D02*
X866670Y234714D01*
X866098Y234142D01*
X865813Y233285D01*
Y232714D01*
X866098Y231857D01*
X866670Y231286D01*
X867241Y231000D01*
X868098D01*
X868669Y231286D01*
X869240Y231857D01*
X869526Y232714D01*
Y233285D01*
X869240Y234142D01*
X868669Y234714D01*
X868098Y234999D01*
X867241D01*
X870840D02*
Y232143D01*
X871126Y231286D01*
X871697Y231000D01*
X872554D01*
X873125Y231286D01*
X873982Y232143D01*
Y234999D02*
Y231000D01*
X875553Y234999D02*
Y231000D01*
Y233857D02*
X876410Y234714D01*
X876982Y234999D01*
X877839D01*
X878410Y234714D01*
X878696Y233857D01*
Y231000D01*
X883694Y236999D02*
Y231000D01*
Y234142D02*
X883123Y234714D01*
X882552Y234999D01*
X881695D01*
X881124Y234714D01*
X880552Y234142D01*
X880267Y233285D01*
Y232714D01*
X880552Y231857D01*
X881124Y231286D01*
X881695Y231000D01*
X882552D01*
X883123Y231286D01*
X883694Y231857D01*
X613785Y223570D02*
X613499Y224142D01*
X612928Y224713D01*
X612357Y224999D01*
X611214D01*
X610643Y224713D01*
X610071Y224142D01*
X609786Y223570D01*
X609500Y222713D01*
Y221285D01*
X609786Y220428D01*
X610071Y219857D01*
X610643Y219286D01*
X611214Y219000D01*
X612357D01*
X612928Y219286D01*
X613499Y219857D01*
X613785Y220428D01*
X662586Y223570D02*
Y223856D01*
X662871Y224427D01*
X663157Y224713D01*
X663728Y224999D01*
X664871D01*
X665442Y224713D01*
X665728Y224427D01*
X666013Y223856D01*
Y223285D01*
X665728Y222713D01*
X665157Y221856D01*
X662300Y219000D01*
X666299D01*
X724403Y224999D02*
X721547Y219000D01*
X720404Y224999D02*
X724403D01*
X728603D02*
X725746Y221000D01*
X730031D01*
X728603Y224999D02*
Y219000D01*
X731374Y219571D02*
X731088Y219286D01*
X731374Y219000D01*
X731659Y219286D01*
X731374Y219571D01*
X734401Y224999D02*
X733544Y224713D01*
X733259Y224142D01*
Y223570D01*
X733544Y222999D01*
X734116Y222713D01*
X735258Y222428D01*
X736115Y222142D01*
X736687Y221571D01*
X736972Y221000D01*
Y220143D01*
X736687Y219571D01*
X736401Y219286D01*
X735544Y219000D01*
X734401D01*
X733544Y219286D01*
X733259Y219571D01*
X732973Y220143D01*
Y221000D01*
X733259Y221571D01*
X733830Y222142D01*
X734687Y222428D01*
X735830Y222713D01*
X736401Y222999D01*
X736687Y223570D01*
Y224142D01*
X736401Y224713D01*
X735544Y224999D01*
X734401D01*
X740029D02*
X739172Y224713D01*
X738600Y223856D01*
X738315Y222428D01*
Y221571D01*
X738600Y220143D01*
X739172Y219286D01*
X740029Y219000D01*
X740600D01*
X741457Y219286D01*
X742028Y220143D01*
X742314Y221571D01*
Y222428D01*
X742028Y223856D01*
X741457Y224713D01*
X740600Y224999D01*
X740029D01*
X744228D02*
X747370D01*
X745656Y222713D01*
X746513D01*
X747084Y222428D01*
X747370Y222142D01*
X747656Y221285D01*
Y220714D01*
X747370Y219857D01*
X746799Y219286D01*
X745942Y219000D01*
X745085D01*
X744228Y219286D01*
X743942Y219571D01*
X743656Y220143D01*
X748998Y222999D02*
Y219000D01*
Y221856D02*
X749855Y222713D01*
X750426Y222999D01*
X751284D01*
X751855Y222713D01*
X752140Y221856D01*
Y219000D01*
Y221856D02*
X752997Y222713D01*
X753569Y222999D01*
X754426D01*
X754997Y222713D01*
X755283Y221856D01*
Y219000D01*
X757739Y224999D02*
X758025Y224713D01*
X758311Y224999D01*
X758025Y225284D01*
X757739Y224999D01*
X758025Y222999D02*
Y219000D01*
X759368Y224999D02*
Y219000D01*
X767337Y226141D02*
X766766Y225570D01*
X766195Y224713D01*
X765623Y223570D01*
X765338Y222142D01*
Y221000D01*
X765623Y219571D01*
X766195Y218429D01*
X766766Y217572D01*
X767337Y217000D01*
X766766Y225570D02*
X766195Y224427D01*
X765909Y223570D01*
X765623Y222142D01*
Y221000D01*
X765909Y219571D01*
X766195Y218714D01*
X766766Y217572D01*
X768480Y223856D02*
X769051Y224142D01*
X769908Y224999D01*
Y219000D01*
X773165Y219571D02*
X772879Y219286D01*
X773165Y219000D01*
X773450Y219286D01*
X773165Y219571D01*
X778478Y222999D02*
X778192Y222142D01*
X777621Y221571D01*
X776764Y221285D01*
X776478D01*
X775621Y221571D01*
X775050Y222142D01*
X774764Y222999D01*
Y223285D01*
X775050Y224142D01*
X775621Y224713D01*
X776478Y224999D01*
X776764D01*
X777621Y224713D01*
X778192Y224142D01*
X778478Y222999D01*
Y221571D01*
X778192Y220143D01*
X777621Y219286D01*
X776764Y219000D01*
X776192D01*
X775336Y219286D01*
X775050Y219857D01*
X780106Y222999D02*
Y219000D01*
Y221856D02*
X780963Y222713D01*
X781534Y222999D01*
X782391D01*
X782962Y222713D01*
X783248Y221856D01*
Y219000D01*
Y221856D02*
X784105Y222713D01*
X784676Y222999D01*
X785533D01*
X786105Y222713D01*
X786390Y221856D01*
Y219000D01*
X788276Y222999D02*
Y219000D01*
Y221856D02*
X789132Y222713D01*
X789704Y222999D01*
X790561D01*
X791132Y222713D01*
X791418Y221856D01*
Y219000D01*
Y221856D02*
X792275Y222713D01*
X792846Y222999D01*
X793703D01*
X794274Y222713D01*
X794560Y221856D01*
Y219000D01*
X796445Y226141D02*
X797017Y225570D01*
X797588Y224713D01*
X798159Y223570D01*
X798445Y222142D01*
Y221000D01*
X798159Y219571D01*
X797588Y218429D01*
X797017Y217572D01*
X796445Y217000D01*
X797017Y225570D02*
X797588Y224427D01*
X797873Y223570D01*
X798159Y222142D01*
Y221000D01*
X797873Y219571D01*
X797588Y218714D01*
X797017Y217572D01*
X820980Y221856D02*
X823551D01*
X824407Y222142D01*
X824693Y222428D01*
X824979Y222999D01*
Y223856D01*
X824693Y224427D01*
X824407Y224713D01*
X823551Y224999D01*
X820980D01*
Y219000D01*
X828321Y224999D02*
Y219000D01*
X826321Y224999D02*
X830320D01*
X831035D02*
Y219000D01*
X835034Y224999D02*
Y219000D01*
X831035Y222142D02*
X835034D01*
X860471Y224999D02*
Y219000D01*
Y224999D02*
X863042D01*
X863899Y224713D01*
X864184Y224427D01*
X864470Y223856D01*
Y223285D01*
X864184Y222713D01*
X863899Y222428D01*
X863042Y222142D01*
X860471D01*
X862471D02*
X864470Y219000D01*
X867241Y222999D02*
X866670Y222713D01*
X866098Y222142D01*
X865813Y221285D01*
Y220714D01*
X866098Y219857D01*
X866670Y219286D01*
X867241Y219000D01*
X868098D01*
X868669Y219286D01*
X869240Y219857D01*
X869526Y220714D01*
Y221285D01*
X869240Y222142D01*
X868669Y222713D01*
X868098Y222999D01*
X867241D01*
X870840D02*
Y220143D01*
X871126Y219286D01*
X871697Y219000D01*
X872554D01*
X873125Y219286D01*
X873982Y220143D01*
Y222999D02*
Y219000D01*
X875553Y222999D02*
Y219000D01*
Y221856D02*
X876410Y222713D01*
X876982Y222999D01*
X877839D01*
X878410Y222713D01*
X878696Y221856D01*
Y219000D01*
X883694Y224999D02*
Y219000D01*
Y222142D02*
X883123Y222713D01*
X882552Y222999D01*
X881695D01*
X881124Y222713D01*
X880552Y222142D01*
X880267Y221285D01*
Y220714D01*
X880552Y219857D01*
X881124Y219286D01*
X881695Y219000D01*
X882552D01*
X883123Y219286D01*
X883694Y219857D01*
X665728Y212142D02*
X665442Y212713D01*
X664585Y212999D01*
X664014D01*
X663157Y212713D01*
X662586Y211856D01*
X662300Y210428D01*
Y209000D01*
X662586Y207857D01*
X663157Y207286D01*
X664014Y207000D01*
X664300D01*
X665157Y207286D01*
X665728Y207857D01*
X666013Y208714D01*
Y209000D01*
X665728Y209857D01*
X665157Y210428D01*
X664300Y210714D01*
X664014D01*
X663157Y210428D01*
X662586Y209857D01*
X662300Y209000D01*
X670184Y212999D02*
X667327Y209000D01*
X671612D01*
X670184Y212999D02*
Y207000D01*
X684412Y212999D02*
Y207000D01*
X682412Y212999D02*
X686411D01*
X688554Y210999D02*
X687983Y210714D01*
X687411Y210142D01*
X687126Y209285D01*
Y208714D01*
X687411Y207857D01*
X687983Y207286D01*
X688554Y207000D01*
X689411D01*
X689982Y207286D01*
X690553Y207857D01*
X690839Y208714D01*
Y209285D01*
X690553Y210142D01*
X689982Y210714D01*
X689411Y210999D01*
X688554D01*
X693010Y212999D02*
Y208143D01*
X693296Y207286D01*
X693867Y207000D01*
X694438D01*
X692153Y210999D02*
X694153D01*
X698723D02*
Y207000D01*
Y210142D02*
X698152Y210714D01*
X697580Y210999D01*
X696724D01*
X696152Y210714D01*
X695581Y210142D01*
X695295Y209285D01*
Y208714D01*
X695581Y207857D01*
X696152Y207286D01*
X696724Y207000D01*
X697580D01*
X698152Y207286D01*
X698723Y207857D01*
X700323Y212999D02*
Y207000D01*
D53*
X466075Y238854D02*
Y242186D01*
X467741Y243853D01*
X469407Y242186D01*
Y238854D01*
Y241354D01*
X466075D01*
Y248854D02*
Y252186D01*
X467741Y253853D01*
X469407Y252186D01*
Y248854D01*
Y251354D01*
X466075D01*
X600331Y392000D02*
Y395332D01*
X601997Y396998D01*
X603663Y395332D01*
Y392000D01*
Y394499D01*
X600331D01*
Y382000D02*
Y385332D01*
X601997Y386998D01*
X603663Y385332D01*
Y382000D01*
Y384499D01*
X600331D01*
Y429500D02*
Y432832D01*
X601997Y434498D01*
X603663Y432832D01*
Y429500D01*
Y431999D01*
X600331D01*
Y419500D02*
Y422832D01*
X601997Y424498D01*
X603663Y422832D01*
Y419500D01*
Y421999D01*
X600331D01*
X303075Y238854D02*
Y242186D01*
X304741Y243853D01*
X306407Y242186D01*
Y238854D01*
Y241354D01*
X303075D01*
Y248854D02*
Y252186D01*
X304741Y253853D01*
X306407Y252186D01*
Y248854D01*
Y251354D01*
X303075D01*
X291575Y362354D02*
Y365686D01*
X293241Y367353D01*
X294907Y365686D01*
Y362354D01*
Y364854D01*
X291575D01*
Y372354D02*
Y375687D01*
X293241Y377353D01*
X294907Y375687D01*
Y372354D01*
Y374853D01*
X291575D01*
X473398Y307488D02*
Y310820D01*
X475064Y312487D01*
X476730Y310820D01*
Y307488D01*
Y309987D01*
X473398D01*
X463398Y307488D02*
Y310820D01*
X465064Y312487D01*
X466730Y310820D01*
Y307488D01*
Y309987D01*
X463398D01*
X473398Y297488D02*
Y300820D01*
X475064Y302486D01*
X476730Y300820D01*
Y297488D01*
Y299987D01*
X473398D01*
X463398Y297488D02*
Y300820D01*
X465064Y302486D01*
X466730Y300820D01*
Y297488D01*
Y299987D01*
X463398D01*
X310398Y307488D02*
Y310820D01*
X312064Y312487D01*
X313730Y310820D01*
Y307488D01*
Y309987D01*
X310398D01*
X300398Y307488D02*
Y310820D01*
X302064Y312487D01*
X303730Y310820D01*
Y307488D01*
Y309987D01*
X300398D01*
X310398Y297488D02*
Y300820D01*
X312064Y302486D01*
X313730Y300820D01*
Y297488D01*
Y299987D01*
X310398D01*
X300398Y297488D02*
Y300820D01*
X302064Y302486D01*
X303730Y300820D01*
Y297488D01*
Y299987D01*
X300398D01*
X298898Y430988D02*
Y434320D01*
X300564Y435987D01*
X302230Y434320D01*
Y430988D01*
Y433487D01*
X298898D01*
X288898Y430988D02*
Y434320D01*
X290564Y435987D01*
X292230Y434320D01*
Y430988D01*
Y433487D01*
X288898D01*
X298898Y420988D02*
Y424320D01*
X300564Y425986D01*
X302230Y424320D01*
Y420988D01*
Y423487D01*
X298898D01*
X288898Y420988D02*
Y424320D01*
X290564Y425986D01*
X292230Y424320D01*
Y420988D01*
Y423487D01*
X288898D01*
X338000Y302778D02*
Y297779D01*
X340499D01*
X341332Y298612D01*
Y299446D01*
X340499Y300279D01*
X338000D01*
X340499D01*
X341332Y301112D01*
Y301945D01*
X340499Y302778D01*
X338000D01*
X348000D02*
Y297779D01*
X350499D01*
X351332Y298612D01*
Y299446D01*
X350499Y300279D01*
X348000D01*
X350499D01*
X351332Y301112D01*
Y301945D01*
X350499Y302778D01*
X348000D01*
X358000D02*
Y297779D01*
X360499D01*
X361332Y298612D01*
Y299446D01*
X360499Y300279D01*
X358000D01*
X360499D01*
X361332Y301112D01*
Y301945D01*
X360499Y302778D01*
X358000D01*
X368000D02*
Y297779D01*
X370499D01*
X371332Y298612D01*
Y299446D01*
X370499Y300279D01*
X368000D01*
X370499D01*
X371332Y301112D01*
Y301945D01*
X370499Y302778D01*
X368000D01*
X344521Y344661D02*
X343688Y345494D01*
X342022D01*
X341189Y344661D01*
Y341329D01*
X342022Y340496D01*
X343688D01*
X344521Y341329D01*
X368143Y344661D02*
X367310Y345494D01*
X365644D01*
X364811Y344661D01*
Y341329D01*
X365644Y340496D01*
X367310D01*
X368143Y341329D01*
X394500Y348778D02*
Y343779D01*
X396999D01*
X397832Y344613D01*
Y347945D01*
X396999Y348778D01*
X394500D01*
X574500Y388778D02*
Y383780D01*
X576999D01*
X577832Y384612D01*
Y387945D01*
X576999Y388778D01*
X574500D01*
X394500Y428778D02*
Y423779D01*
X396999D01*
X397832Y424613D01*
Y427945D01*
X396999Y428778D01*
X394500D01*
X574500D02*
Y423779D01*
X576999D01*
X577832Y424613D01*
Y427945D01*
X576999Y428778D01*
X574500D01*
X537832Y422278D02*
X534500D01*
Y417279D01*
X537832D01*
X534500Y419779D02*
X536166D01*
X537832Y392278D02*
X534500D01*
Y387280D01*
X537832D01*
X534500Y389779D02*
X536166D01*
X340832Y371317D02*
X337500D01*
Y368818D01*
X339166D01*
X337500D01*
Y366319D01*
X369179Y371317D02*
X365846D01*
Y368818D01*
X367512D01*
X365846D01*
Y366319D01*
X340832Y436278D02*
X337500D01*
Y433779D01*
X339166D01*
X337500D01*
Y431280D01*
X369179Y436278D02*
X365846D01*
Y433779D01*
X367512D01*
X365846D01*
Y431280D01*
X368832Y445945D02*
X367999Y446778D01*
X366333D01*
X365500Y445945D01*
Y442613D01*
X366333Y441780D01*
X367999D01*
X368832Y442613D01*
Y444279D01*
X367166D01*
X338832Y445945D02*
X337999Y446778D01*
X336333D01*
X335500Y445945D01*
Y442613D01*
X336333Y441780D01*
X337999D01*
X338832Y442613D01*
Y444279D01*
X337166D01*
X372500Y226279D02*
Y229612D01*
X374166Y231278D01*
X375832Y229612D01*
Y226279D01*
Y228779D01*
X372500D01*
Y236280D02*
Y239612D01*
X374166Y241278D01*
X375832Y239612D01*
Y236280D01*
Y238779D01*
X372500D01*
X364500Y249780D02*
Y253112D01*
X366166Y254778D01*
X367832Y253112D01*
Y249780D01*
Y252279D01*
X364500D01*
X354500Y249780D02*
Y253112D01*
X356166Y254778D01*
X357832Y253112D01*
Y249780D01*
Y252279D01*
X354500D01*
X411000Y312280D02*
Y315612D01*
X412666Y317278D01*
X414332Y315612D01*
Y312280D01*
Y314779D01*
X411000D01*
X421000Y312280D02*
Y315612D01*
X422666Y317278D01*
X424332Y315612D01*
Y312280D01*
Y314779D01*
X421000D01*
X380000Y249780D02*
Y253112D01*
X381666Y254778D01*
X383332Y253112D01*
Y249780D01*
Y252279D01*
X380000D01*
X390000Y249780D02*
Y253112D01*
X391666Y254778D01*
X393332Y253112D01*
Y249780D01*
Y252279D01*
X390000D01*
X297000Y220779D02*
Y224112D01*
X298666Y225778D01*
X300332Y224112D01*
Y220779D01*
Y223279D01*
X297000D01*
X317000Y220779D02*
Y224112D01*
X318666Y225778D01*
X320332Y224112D01*
Y220779D01*
Y223279D01*
X317000D01*
X307000Y220779D02*
Y224112D01*
X308666Y225778D01*
X310332Y224112D01*
Y220779D01*
Y223279D01*
X307000D01*
X287000Y220779D02*
Y224112D01*
X288666Y225778D01*
X290332Y224112D01*
Y220779D01*
Y223279D01*
X287000D01*
X277000Y220779D02*
Y224112D01*
X278666Y225778D01*
X280332Y224112D01*
Y220779D01*
Y223279D01*
X277000D01*
X267000Y220779D02*
Y224112D01*
X268666Y225778D01*
X270332Y224112D01*
Y220779D01*
Y223279D01*
X267000D01*
X257000Y220779D02*
Y224112D01*
X258666Y225778D01*
X260332Y224112D01*
Y220779D01*
Y223279D01*
X257000D01*
X581000Y331498D02*
Y326500D01*
Y328999D01*
X584332D01*
Y331498D01*
Y326500D01*
X278000Y345998D02*
Y341000D01*
Y343499D01*
X281332D01*
Y345998D01*
Y341000D01*
X448500Y262498D02*
Y257500D01*
Y259999D01*
X451832D01*
Y262498D01*
Y257500D01*
X430000Y353498D02*
Y348500D01*
Y350999D01*
X433332D01*
Y353498D01*
Y348500D01*
X419500Y359998D02*
Y355000D01*
Y357499D01*
X422832D01*
Y359998D01*
Y355000D01*
X446000Y380998D02*
Y376000D01*
Y378499D01*
X449332D01*
Y380998D01*
Y376000D01*
X458500Y346498D02*
Y341500D01*
Y343999D01*
X461832D01*
Y346498D01*
Y341500D01*
X486000Y358998D02*
Y354000D01*
Y356499D01*
X489332D01*
Y358998D01*
Y354000D01*
X442500Y269498D02*
Y264500D01*
Y266999D01*
X445832D01*
Y269498D01*
Y264500D01*
D54*
X614299Y323570D02*
X613613Y324256D01*
X612585Y324599D01*
X611214D01*
X610186Y324256D01*
X609500Y323570D01*
Y322884D01*
X609843Y322199D01*
X610186Y321856D01*
X610871Y321513D01*
X612928Y320828D01*
X613613Y320485D01*
X613956Y320142D01*
X614299Y319457D01*
Y318428D01*
X613613Y317743D01*
X612585Y317400D01*
X611214D01*
X610186Y317743D01*
X609500Y318428D01*
X616253Y322199D02*
X618309Y317400D01*
X620366Y322199D02*
X618309Y317400D01*
X617624Y316029D01*
X616938Y315343D01*
X616253Y315001D01*
X615910D01*
X621566Y322199D02*
Y317400D01*
Y320828D02*
X622594Y321856D01*
X623280Y322199D01*
X624308D01*
X624994Y321856D01*
X625337Y320828D01*
Y317400D01*
Y320828D02*
X626365Y321856D01*
X627050Y322199D01*
X628079D01*
X628764Y321856D01*
X629107Y320828D01*
Y317400D01*
X631370Y324599D02*
Y317400D01*
Y321171D02*
X632055Y321856D01*
X632741Y322199D01*
X633769D01*
X634455Y321856D01*
X635140Y321171D01*
X635483Y320142D01*
Y319457D01*
X635140Y318428D01*
X634455Y317743D01*
X633769Y317400D01*
X632741D01*
X632055Y317743D01*
X631370Y318428D01*
X638739Y322199D02*
X638054Y321856D01*
X637368Y321171D01*
X637025Y320142D01*
Y319457D01*
X637368Y318428D01*
X638054Y317743D01*
X638739Y317400D01*
X639768D01*
X640453Y317743D01*
X641139Y318428D01*
X641482Y319457D01*
Y320142D01*
X641139Y321171D01*
X640453Y321856D01*
X639768Y322199D01*
X638739D01*
X643058Y324599D02*
Y317400D01*
X662300Y324599D02*
Y317400D01*
X667099Y324599D02*
Y317400D01*
X662300Y321171D02*
X667099D01*
X669773Y324599D02*
X670116Y324256D01*
X670458Y324599D01*
X670116Y324941D01*
X669773Y324599D01*
X670116Y322199D02*
Y317400D01*
X672755Y324599D02*
Y318771D01*
X673098Y317743D01*
X673783Y317400D01*
X674469D01*
X671727Y322199D02*
X674126D01*
X686295Y322884D02*
X685952Y323570D01*
X685266Y324256D01*
X684581Y324599D01*
X683210D01*
X682524Y324256D01*
X681839Y323570D01*
X681496Y322884D01*
X681153Y321856D01*
Y320142D01*
X681496Y319114D01*
X681839Y318428D01*
X682524Y317743D01*
X683210Y317400D01*
X684581D01*
X685266Y317743D01*
X685952Y318428D01*
X686295Y319114D01*
X690031Y322199D02*
X689346Y321856D01*
X688660Y321171D01*
X688317Y320142D01*
Y319457D01*
X688660Y318428D01*
X689346Y317743D01*
X690031Y317400D01*
X691060D01*
X691745Y317743D01*
X692431Y318428D01*
X692773Y319457D01*
Y320142D01*
X692431Y321171D01*
X691745Y321856D01*
X691060Y322199D01*
X690031D01*
X694350D02*
Y318771D01*
X694693Y317743D01*
X695379Y317400D01*
X696407D01*
X697092Y317743D01*
X698121Y318771D01*
Y322199D02*
Y317400D01*
X700006Y322199D02*
Y317400D01*
Y320828D02*
X701035Y321856D01*
X701720Y322199D01*
X702748D01*
X703434Y321856D01*
X703777Y320828D01*
Y317400D01*
X706691Y324599D02*
Y318771D01*
X707033Y317743D01*
X707719Y317400D01*
X708404D01*
X705662Y322199D02*
X708062D01*
X720404Y324599D02*
Y317400D01*
Y324599D02*
X724861D01*
X720404Y321171D02*
X723147D01*
X726369Y324599D02*
X726712Y324256D01*
X727054Y324599D01*
X726712Y324941D01*
X726369Y324599D01*
X726712Y322199D02*
Y317400D01*
X728323Y322199D02*
Y317400D01*
Y320828D02*
X729351Y321856D01*
X730037Y322199D01*
X731065D01*
X731750Y321856D01*
X732093Y320828D01*
Y317400D01*
X734664Y324599D02*
X735007Y324256D01*
X735350Y324599D01*
X735007Y324941D01*
X734664Y324599D01*
X735007Y322199D02*
Y317400D01*
X740389Y321171D02*
X740046Y321856D01*
X739018Y322199D01*
X737989D01*
X736961Y321856D01*
X736618Y321171D01*
X736961Y320485D01*
X737646Y320142D01*
X739360Y319799D01*
X740046Y319457D01*
X740389Y318771D01*
Y318428D01*
X740046Y317743D01*
X739018Y317400D01*
X737989D01*
X736961Y317743D01*
X736618Y318428D01*
X741897Y324599D02*
Y317400D01*
Y320828D02*
X742925Y321856D01*
X743611Y322199D01*
X744639D01*
X745325Y321856D01*
X745668Y320828D01*
Y317400D01*
X747553Y320142D02*
X751666D01*
Y320828D01*
X751324Y321513D01*
X750981Y321856D01*
X750295Y322199D01*
X749267D01*
X748581Y321856D01*
X747896Y321171D01*
X747553Y320142D01*
Y319457D01*
X747896Y318428D01*
X748581Y317743D01*
X749267Y317400D01*
X750295D01*
X750981Y317743D01*
X751666Y318428D01*
X757322Y324599D02*
Y317400D01*
Y321171D02*
X756637Y321856D01*
X755951Y322199D01*
X754923D01*
X754237Y321856D01*
X753552Y321171D01*
X753209Y320142D01*
Y319457D01*
X753552Y318428D01*
X754237Y317743D01*
X754923Y317400D01*
X755951D01*
X756637Y317743D01*
X757322Y318428D01*
X764898Y324599D02*
Y317400D01*
X769697Y324599D02*
Y317400D01*
X764898Y321171D02*
X769697D01*
X773399Y322199D02*
X772713Y321856D01*
X772028Y321171D01*
X771685Y320142D01*
Y319457D01*
X772028Y318428D01*
X772713Y317743D01*
X773399Y317400D01*
X774427D01*
X775113Y317743D01*
X775798Y318428D01*
X776141Y319457D01*
Y320142D01*
X775798Y321171D01*
X775113Y321856D01*
X774427Y322199D01*
X773399D01*
X777718Y324599D02*
Y317400D01*
X779226Y320142D02*
X783340D01*
Y320828D01*
X782997Y321513D01*
X782654Y321856D01*
X781968Y322199D01*
X780940D01*
X780254Y321856D01*
X779569Y321171D01*
X779226Y320142D01*
Y319457D01*
X779569Y318428D01*
X780254Y317743D01*
X780940Y317400D01*
X781968D01*
X782654Y317743D01*
X783340Y318428D01*
X795337Y323570D02*
X794651Y324256D01*
X793623Y324599D01*
X792252D01*
X791223Y324256D01*
X790538Y323570D01*
Y322884D01*
X790881Y322199D01*
X791223Y321856D01*
X791909Y321513D01*
X793966Y320828D01*
X794651Y320485D01*
X794994Y320142D01*
X795337Y319457D01*
Y318428D01*
X794651Y317743D01*
X793623Y317400D01*
X792252D01*
X791223Y317743D01*
X790538Y318428D01*
X797634Y324599D02*
X797976Y324256D01*
X798319Y324599D01*
X797976Y324941D01*
X797634Y324599D01*
X797976Y322199D02*
Y317400D01*
X803358Y322199D02*
X799587Y317400D01*
Y322199D02*
X803358D01*
X799587Y317400D02*
X803358D01*
X804866Y320142D02*
X808980D01*
Y320828D01*
X808637Y321513D01*
X808294Y321856D01*
X807609Y322199D01*
X806580D01*
X805895Y321856D01*
X805209Y321171D01*
X804866Y320142D01*
Y319457D01*
X805209Y318428D01*
X805895Y317743D01*
X806580Y317400D01*
X807609D01*
X808294Y317743D01*
X808980Y318428D01*
X820980Y320828D02*
X824065D01*
X825093Y321171D01*
X825436Y321513D01*
X825779Y322199D01*
Y323227D01*
X825436Y323913D01*
X825093Y324256D01*
X824065Y324599D01*
X820980D01*
Y317400D01*
X827390Y324599D02*
Y317400D01*
X833011Y322199D02*
Y317400D01*
Y321171D02*
X832326Y321856D01*
X831640Y322199D01*
X830612D01*
X829926Y321856D01*
X829241Y321171D01*
X828898Y320142D01*
Y319457D01*
X829241Y318428D01*
X829926Y317743D01*
X830612Y317400D01*
X831640D01*
X832326Y317743D01*
X833011Y318428D01*
X835959Y324599D02*
Y318771D01*
X836302Y317743D01*
X836988Y317400D01*
X837673D01*
X834931Y322199D02*
X837331D01*
X838702Y320142D02*
X842815D01*
Y320828D01*
X842472Y321513D01*
X842129Y321856D01*
X841444Y322199D01*
X840415D01*
X839730Y321856D01*
X839044Y321171D01*
X838702Y320142D01*
Y319457D01*
X839044Y318428D01*
X839730Y317743D01*
X840415Y317400D01*
X841444D01*
X842129Y317743D01*
X842815Y318428D01*
X848471Y324599D02*
Y317400D01*
Y321171D02*
X847785Y321856D01*
X847100Y322199D01*
X846071D01*
X845386Y321856D01*
X844700Y321171D01*
X844357Y320142D01*
Y319457D01*
X844700Y318428D01*
X845386Y317743D01*
X846071Y317400D01*
X847100D01*
X847785Y317743D01*
X848471Y318428D01*
X860471Y324599D02*
Y317400D01*
X865270Y324599D02*
Y317400D01*
X860471Y321171D02*
X865270D01*
X868972Y322199D02*
X868286Y321856D01*
X867601Y321171D01*
X867258Y320142D01*
Y319457D01*
X867601Y318428D01*
X868286Y317743D01*
X868972Y317400D01*
X870000D01*
X870686Y317743D01*
X871371Y318428D01*
X871714Y319457D01*
Y320142D01*
X871371Y321171D01*
X870686Y321856D01*
X870000Y322199D01*
X868972D01*
X873291Y324599D02*
Y317400D01*
X874799Y320142D02*
X878913D01*
Y320828D01*
X878570Y321513D01*
X878227Y321856D01*
X877542Y322199D01*
X876513D01*
X875828Y321856D01*
X875142Y321171D01*
X874799Y320142D01*
Y319457D01*
X875142Y318428D01*
X875828Y317743D01*
X876513Y317400D01*
X877542D01*
X878227Y317743D01*
X878913Y318428D01*
X888511Y324599D02*
Y317400D01*
X886111Y324599D02*
X890910D01*
X892110Y322199D02*
X894167Y317400D01*
X896223Y322199D02*
X894167Y317400D01*
X893481Y316029D01*
X892795Y315343D01*
X892110Y315001D01*
X891767D01*
X897423Y322199D02*
Y315001D01*
Y321171D02*
X898109Y321856D01*
X898794Y322199D01*
X899823D01*
X900508Y321856D01*
X901194Y321171D01*
X901536Y320142D01*
Y319457D01*
X901194Y318428D01*
X900508Y317743D01*
X899823Y317400D01*
X898794D01*
X898109Y317743D01*
X897423Y318428D01*
X903079Y320142D02*
X907192D01*
Y320828D01*
X906850Y321513D01*
X906507Y321856D01*
X905821Y322199D01*
X904793D01*
X904107Y321856D01*
X903422Y321171D01*
X903079Y320142D01*
Y319457D01*
X903422Y318428D01*
X904107Y317743D01*
X904793Y317400D01*
X905821D01*
X906507Y317743D01*
X907192Y318428D01*
X600700Y328200D02*
X919192D01*
X600700Y312000D02*
X919192D01*
X600700Y328200D02*
Y204000D01*
X919192Y328200D02*
Y204000D01*
X657900Y328200D02*
Y204000D01*
X716004Y328200D02*
Y204000D01*
X816580Y328200D02*
Y204000D01*
X856071Y328200D02*
Y204000D01*
X600700Y216000D02*
X919192D01*
X600700Y204000D02*
X919192D01*
M02*
