G04 Layer_Color=8388736*
%FSLAX25Y25*%
%MOIN*%
G70*
G01*
G75*
%ADD33R,0.07493X0.05839*%
G04:AMPARAMS|DCode=34|XSize=204.85mil|YSize=279.65mil|CornerRadius=53.21mil|HoleSize=0mil|Usage=FLASHONLY|Rotation=180.000|XOffset=0mil|YOffset=0mil|HoleType=Round|Shape=RoundedRectangle|*
%AMROUNDEDRECTD34*
21,1,0.20485,0.17323,0,0,180.0*
21,1,0.09843,0.27965,0,0,180.0*
1,1,0.10642,-0.04921,0.08661*
1,1,0.10642,0.04921,0.08661*
1,1,0.10642,0.04921,-0.08661*
1,1,0.10642,-0.04921,-0.08661*
%
%ADD34ROUNDEDRECTD34*%
%ADD35R,0.05839X0.07493*%
%ADD36R,0.06706X0.06706*%
%ADD37C,0.06706*%
%ADD38C,0.06800*%
%ADD39C,0.12611*%
%ADD40C,0.11430*%
%ADD41R,0.05524X0.05524*%
%ADD42C,0.05524*%
%ADD43C,0.06312*%
%ADD44R,0.06706X0.06706*%
%ADD45C,0.05800*%
D33*
X386000Y227000D02*
D03*
Y235189D02*
D03*
X410000Y235500D02*
D03*
Y227311D02*
D03*
D34*
X318000Y378279D02*
D03*
Y423000D02*
D03*
X436500Y225500D02*
D03*
X353500Y225279D02*
D03*
D35*
X418500Y215500D02*
D03*
X410311D02*
D03*
X397500D02*
D03*
X389311D02*
D03*
X313500Y400500D02*
D03*
X321689D02*
D03*
D36*
X466075Y238854D02*
D03*
X600331Y382000D02*
D03*
Y419500D02*
D03*
X303075Y238854D02*
D03*
X291575Y362354D02*
D03*
X463398Y297488D02*
D03*
X300398D02*
D03*
X288898Y420988D02*
D03*
X372500Y226279D02*
D03*
D37*
X466075Y248854D02*
D03*
X600331Y392000D02*
D03*
Y429500D02*
D03*
X303075Y248854D02*
D03*
X291575Y372354D02*
D03*
X473398Y307488D02*
D03*
X463398D02*
D03*
X473398Y297488D02*
D03*
X310398Y307488D02*
D03*
X300398D02*
D03*
X310398Y297488D02*
D03*
X298898Y430988D02*
D03*
X288898D02*
D03*
X298898Y420988D02*
D03*
X372500Y236280D02*
D03*
X354500Y249780D02*
D03*
X411000Y312280D02*
D03*
X380000Y249780D02*
D03*
X297000Y220779D02*
D03*
X307000D02*
D03*
X287000D02*
D03*
X277000D02*
D03*
X267000D02*
D03*
X257000D02*
D03*
D38*
X338000Y297779D02*
D03*
X348000D02*
D03*
X358000D02*
D03*
X368000D02*
D03*
X337500Y366319D02*
D03*
X365846D02*
D03*
X337500Y431280D02*
D03*
X365846D02*
D03*
D39*
X341189Y340496D02*
D03*
X364811D02*
D03*
D40*
X394500Y343779D02*
D03*
X574500Y383780D02*
D03*
X394500Y423779D02*
D03*
X574500D02*
D03*
D41*
X534500Y417279D02*
D03*
D42*
Y387280D02*
D03*
D43*
X365500Y441780D02*
D03*
X335500D02*
D03*
D44*
X364500Y249780D02*
D03*
X421000Y312280D02*
D03*
X390000Y249780D02*
D03*
X317000Y220779D02*
D03*
D45*
X581000Y326500D02*
D03*
X278000Y341000D02*
D03*
X448500Y257500D02*
D03*
X430000Y348500D02*
D03*
X419500Y355000D02*
D03*
X446000Y376000D02*
D03*
X458500Y341500D02*
D03*
X486000Y354000D02*
D03*
X442500Y264500D02*
D03*
M02*
