G04 Layer_Color=255*
%FSLAX25Y25*%
%MOIN*%
G70*
G01*
G75*
%ADD10R,0.06693X0.05039*%
G04:AMPARAMS|DCode=11|XSize=196.85mil|YSize=271.65mil|CornerRadius=49.21mil|HoleSize=0mil|Usage=FLASHONLY|Rotation=180.000|XOffset=0mil|YOffset=0mil|HoleType=Round|Shape=RoundedRectangle|*
%AMROUNDEDRECTD11*
21,1,0.19685,0.17323,0,0,180.0*
21,1,0.09843,0.27165,0,0,180.0*
1,1,0.09843,-0.04921,0.08661*
1,1,0.09843,0.04921,0.08661*
1,1,0.09843,0.04921,-0.08661*
1,1,0.09843,-0.04921,-0.08661*
%
%ADD11ROUNDEDRECTD11*%
%ADD12R,0.05039X0.06693*%
%ADD17R,0.05906X0.05906*%
%ADD18C,0.05906*%
%ADD19C,0.06000*%
%ADD20C,0.11811*%
%ADD21C,0.10630*%
%ADD22R,0.04724X0.04724*%
%ADD23C,0.04724*%
%ADD24C,0.05512*%
%ADD25R,0.05906X0.05906*%
D10*
X386000Y227000D02*
D03*
Y235189D02*
D03*
X410000Y235500D02*
D03*
Y227311D02*
D03*
D11*
X318000Y378279D02*
D03*
Y423000D02*
D03*
X436500Y225500D02*
D03*
X353500Y225279D02*
D03*
D12*
X418500Y215500D02*
D03*
X410311D02*
D03*
X397500D02*
D03*
X389311D02*
D03*
X313500Y400500D02*
D03*
X321689D02*
D03*
D17*
X466075Y238854D02*
D03*
X600331Y382000D02*
D03*
Y419500D02*
D03*
X303075Y238854D02*
D03*
X291575Y362354D02*
D03*
X463398Y297488D02*
D03*
X300398D02*
D03*
X288898Y420988D02*
D03*
X372500Y226279D02*
D03*
D18*
X466075Y248854D02*
D03*
X600331Y392000D02*
D03*
Y429500D02*
D03*
X303075Y248854D02*
D03*
X291575Y372354D02*
D03*
X473398Y307488D02*
D03*
X463398D02*
D03*
X473398Y297488D02*
D03*
X310398Y307488D02*
D03*
X300398D02*
D03*
X310398Y297488D02*
D03*
X298898Y430988D02*
D03*
X288898D02*
D03*
X298898Y420988D02*
D03*
X372500Y236280D02*
D03*
X354500Y249780D02*
D03*
X411000Y312280D02*
D03*
X380000Y249780D02*
D03*
X297000Y220779D02*
D03*
X307000D02*
D03*
X287000D02*
D03*
X277000D02*
D03*
X267000D02*
D03*
X257000D02*
D03*
D19*
X338000Y297779D02*
D03*
X348000D02*
D03*
X358000D02*
D03*
X368000D02*
D03*
X337500Y366319D02*
D03*
X365846D02*
D03*
X337500Y431280D02*
D03*
X365846D02*
D03*
D20*
X341189Y340496D02*
D03*
X364811D02*
D03*
D21*
X394500Y343779D02*
D03*
X574500Y383780D02*
D03*
X394500Y423779D02*
D03*
X574500D02*
D03*
D22*
X534500Y417279D02*
D03*
D23*
Y387280D02*
D03*
D24*
X365500Y441780D02*
D03*
X335500D02*
D03*
D25*
X364500Y249780D02*
D03*
X421000Y312280D02*
D03*
X390000Y249780D02*
D03*
X317000Y220779D02*
D03*
M02*
