G04 Layer_Color=65535*
%FSLAX25Y25*%
%MOIN*%
G70*
G01*
G75*
%ADD16C,0.01000*%
%ADD31C,0.00787*%
%ADD32C,0.00394*%
D16*
X390331Y223457D02*
Y229362D01*
X381669Y223457D02*
X390331D01*
X381669D02*
Y223850D01*
Y229362D01*
X390331Y233299D02*
Y238811D01*
X381669D02*
X390331D01*
X381669Y233299D02*
Y238811D01*
X416138Y219831D02*
X422043D01*
Y211169D02*
Y219831D01*
X421650Y211169D02*
X422043D01*
X416138D02*
X421650D01*
X406689Y219831D02*
X412201D01*
X406689Y211169D02*
Y219831D01*
Y211169D02*
X412201D01*
X395138Y219831D02*
X401043D01*
Y211169D02*
Y219831D01*
X400650Y211169D02*
X401043D01*
X395138D02*
X400650D01*
X385689Y219831D02*
X391201D01*
X385689Y211169D02*
Y219831D01*
Y211169D02*
X391201D01*
X405669Y233138D02*
Y239043D01*
X414331D01*
Y238650D02*
Y239043D01*
Y233138D02*
Y238650D01*
X405669Y223689D02*
Y229201D01*
Y223689D02*
X414331D01*
Y229201D01*
X309957Y396169D02*
X315862D01*
X309957D02*
Y404831D01*
X310350D01*
X315862D01*
X319799Y396169D02*
X325311D01*
Y404831D01*
X319799D02*
X325311D01*
X595900Y400400D02*
Y406398D01*
X598899D01*
X599899Y405398D01*
Y403399D01*
X598899Y402399D01*
X595900D01*
X605897Y400400D02*
X601898D01*
X605897Y404399D01*
Y405398D01*
X604897Y406398D01*
X602898D01*
X601898Y405398D01*
X610895Y400400D02*
Y406398D01*
X607896Y403399D01*
X611895D01*
X595900Y437900D02*
Y443898D01*
X598899D01*
X599899Y442898D01*
Y440899D01*
X598899Y439899D01*
X595900D01*
X605897Y437900D02*
X601898D01*
X605897Y441899D01*
Y442898D01*
X604897Y443898D01*
X602898D01*
X601898Y442898D01*
X607896D02*
X608896Y443898D01*
X610895D01*
X611895Y442898D01*
Y441899D01*
X610895Y440899D01*
X609895D01*
X610895D01*
X611895Y439899D01*
Y438900D01*
X610895Y437900D01*
X608896D01*
X607896Y438900D01*
X323800Y366578D02*
X327799Y362579D01*
X323800D02*
X327799Y366578D01*
X323800Y364579D02*
X327799D01*
X325799Y362579D02*
Y366578D01*
X329798Y361579D02*
X331797D01*
X330798D01*
Y367578D01*
X329798Y366578D01*
X378400Y447078D02*
X382399Y443079D01*
X378400D02*
X382399Y447078D01*
X378400Y445079D02*
X382399D01*
X380399Y443079D02*
Y447078D01*
X395499Y234498D02*
X394499Y235498D01*
X392500D01*
X391500Y234498D01*
Y230500D01*
X392500Y229500D01*
X394499D01*
X395499Y230500D01*
X397498Y234498D02*
X398498Y235498D01*
X400497D01*
X401497Y234498D01*
Y233499D01*
X400497Y232499D01*
X399497D01*
X400497D01*
X401497Y231499D01*
Y230500D01*
X400497Y229500D01*
X398498D01*
X397498Y230500D01*
X339500Y415277D02*
Y409279D01*
X342499D01*
X343499Y410279D01*
Y414278D01*
X342499Y415277D01*
X339500D01*
X345498D02*
Y409279D01*
X349497D01*
X351496Y412279D02*
X355495D01*
X357494Y409279D02*
Y415277D01*
X360493D01*
X361493Y414278D01*
Y412279D01*
X360493Y411279D01*
X357494D01*
X363492Y415277D02*
X367491D01*
X365492D01*
Y409279D01*
X369490D02*
X371490D01*
X370490D01*
Y415277D01*
X369490Y414278D01*
X331500Y387179D02*
Y393178D01*
X334499D01*
X335499Y392178D01*
Y390178D01*
X334499Y389179D01*
X331500D01*
X338498Y387179D02*
X340497D01*
X341497Y388179D01*
Y390178D01*
X340497Y391178D01*
X338498D01*
X337498Y390178D01*
Y388179D01*
X338498Y387179D01*
X343496Y391178D02*
Y388179D01*
X344496Y387179D01*
X345495Y388179D01*
X346495Y387179D01*
X347495Y388179D01*
Y391178D01*
X352493Y387179D02*
X350494D01*
X349494Y388179D01*
Y390178D01*
X350494Y391178D01*
X352493D01*
X353493Y390178D01*
Y389179D01*
X349494D01*
X355492Y391178D02*
Y387179D01*
Y389179D01*
X356492Y390178D01*
X357491Y391178D01*
X358491D01*
X361490Y387179D02*
Y393178D01*
X364489D01*
X365489Y392178D01*
Y390178D01*
X364489Y389179D01*
X361490D01*
X368488Y391178D02*
X370487D01*
X371487Y390178D01*
Y387179D01*
X368488D01*
X367488Y388179D01*
X368488Y389179D01*
X371487D01*
X377485Y393178D02*
Y387179D01*
X374486D01*
X373486Y388179D01*
Y390178D01*
X374486Y391178D01*
X377485D01*
X379484Y387179D02*
X381484D01*
X380484D01*
Y393178D01*
X379484Y392178D01*
X261500Y407500D02*
Y413498D01*
X264499D01*
X265499Y412498D01*
Y410499D01*
X264499Y409499D01*
X261500D01*
X268498Y407500D02*
X270497D01*
X271497Y408500D01*
Y410499D01*
X270497Y411499D01*
X268498D01*
X267498Y410499D01*
Y408500D01*
X268498Y407500D01*
X273496Y411499D02*
Y408500D01*
X274496Y407500D01*
X275495Y408500D01*
X276495Y407500D01*
X277495Y408500D01*
Y411499D01*
X282493Y407500D02*
X280494D01*
X279494Y408500D01*
Y410499D01*
X280494Y411499D01*
X282493D01*
X283493Y410499D01*
Y409499D01*
X279494D01*
X285492Y411499D02*
Y407500D01*
Y409499D01*
X286492Y410499D01*
X287491Y411499D01*
X288491D01*
X291490Y407500D02*
Y413498D01*
X294489D01*
X295489Y412498D01*
Y410499D01*
X294489Y409499D01*
X291490D01*
X298488Y411499D02*
X300487D01*
X301487Y410499D01*
Y407500D01*
X298488D01*
X297488Y408500D01*
X298488Y409499D01*
X301487D01*
X307485Y413498D02*
Y407500D01*
X304486D01*
X303486Y408500D01*
Y410499D01*
X304486Y411499D01*
X307485D01*
X313483Y407500D02*
X309484D01*
X313483Y411499D01*
Y412498D01*
X312484Y413498D01*
X310484D01*
X309484Y412498D01*
X425500Y244400D02*
Y250398D01*
X428499D01*
X429499Y249398D01*
Y247399D01*
X428499Y246399D01*
X425500D01*
X432498Y244400D02*
X434497D01*
X435497Y245400D01*
Y247399D01*
X434497Y248399D01*
X432498D01*
X431498Y247399D01*
Y245400D01*
X432498Y244400D01*
X437496Y248399D02*
Y245400D01*
X438496Y244400D01*
X439495Y245400D01*
X440495Y244400D01*
X441495Y245400D01*
Y248399D01*
X446493Y244400D02*
X444494D01*
X443494Y245400D01*
Y247399D01*
X444494Y248399D01*
X446493D01*
X447493Y247399D01*
Y246399D01*
X443494D01*
X449492Y248399D02*
Y244400D01*
Y246399D01*
X450492Y247399D01*
X451491Y248399D01*
X452491D01*
X455490Y244400D02*
Y250398D01*
X458489D01*
X459489Y249398D01*
Y247399D01*
X458489Y246399D01*
X455490D01*
X462488Y248399D02*
X464487D01*
X465487Y247399D01*
Y244400D01*
X462488D01*
X461488Y245400D01*
X462488Y246399D01*
X465487D01*
X471485Y250398D02*
Y244400D01*
X468486D01*
X467486Y245400D01*
Y247399D01*
X468486Y248399D01*
X471485D01*
X473484Y249398D02*
X474484Y250398D01*
X476483D01*
X477483Y249398D01*
Y248399D01*
X476483Y247399D01*
X475484D01*
X476483D01*
X477483Y246399D01*
Y245400D01*
X476483Y244400D01*
X474484D01*
X473484Y245400D01*
X339000Y211280D02*
X333002D01*
Y214279D01*
X334002Y215278D01*
X336001D01*
X337001Y214279D01*
Y211280D01*
X339000Y218277D02*
Y220277D01*
X338000Y221276D01*
X336001D01*
X335001Y220277D01*
Y218277D01*
X336001Y217278D01*
X338000D01*
X339000Y218277D01*
X335001Y223276D02*
X338000D01*
X339000Y224275D01*
X338000Y225275D01*
X339000Y226275D01*
X338000Y227274D01*
X335001D01*
X339000Y232273D02*
Y230273D01*
X338000Y229274D01*
X336001D01*
X335001Y230273D01*
Y232273D01*
X336001Y233272D01*
X337001D01*
Y229274D01*
X335001Y235272D02*
X339000D01*
X337001D01*
X336001Y236271D01*
X335001Y237271D01*
Y238271D01*
X339000Y241270D02*
X333002D01*
Y244269D01*
X334002Y245269D01*
X336001D01*
X337001Y244269D01*
Y241270D01*
X335001Y248268D02*
Y250267D01*
X336001Y251267D01*
X339000D01*
Y248268D01*
X338000Y247268D01*
X337001Y248268D01*
Y251267D01*
X333002Y257265D02*
X339000D01*
Y254266D01*
X338000Y253266D01*
X336001D01*
X335001Y254266D01*
Y257265D01*
X339000Y262263D02*
X333002D01*
X336001Y259264D01*
Y263263D01*
X407200Y223300D02*
Y229298D01*
X410199D01*
X411199Y228298D01*
Y226299D01*
X410199Y225299D01*
X407200D01*
X409199D02*
X411199Y223300D01*
X413198D02*
X415197D01*
X414198D01*
Y229298D01*
X413198Y228298D01*
X372500Y212500D02*
Y218498D01*
X375499D01*
X376499Y217498D01*
Y215499D01*
X375499Y214499D01*
X372500D01*
X374499D02*
X376499Y212500D01*
X382497D02*
X378498D01*
X382497Y216499D01*
Y217498D01*
X381497Y218498D01*
X379498D01*
X378498Y217498D01*
X415500Y227500D02*
Y233498D01*
X418499D01*
X419499Y232498D01*
Y230499D01*
X418499Y229499D01*
X415500D01*
X417499D02*
X419499Y227500D01*
X421498Y232498D02*
X422498Y233498D01*
X424497D01*
X425497Y232498D01*
Y231499D01*
X424497Y230499D01*
X423497D01*
X424497D01*
X425497Y229499D01*
Y228500D01*
X424497Y227500D01*
X422498D01*
X421498Y228500D01*
X310500Y408300D02*
Y414298D01*
X313499D01*
X314499Y413298D01*
Y411299D01*
X313499Y410299D01*
X310500D01*
X312499D02*
X314499Y408300D01*
X316498D02*
X318497D01*
X317498D01*
Y414298D01*
X316498Y413298D01*
X321496D02*
X322496Y414298D01*
X324495D01*
X325495Y413298D01*
Y412299D01*
X324495Y411299D01*
X323496D01*
X324495D01*
X325495Y410299D01*
Y409300D01*
X324495Y408300D01*
X322496D01*
X321496Y409300D01*
X368100Y244679D02*
Y250677D01*
X371099D01*
X372099Y249678D01*
Y247678D01*
X371099Y246679D01*
X368100D01*
X374098Y244679D02*
X376097D01*
X375098D01*
Y250677D01*
X374098Y249678D01*
X379096Y250677D02*
X383095D01*
Y249678D01*
X379096Y245679D01*
Y244679D01*
X339500Y258279D02*
X345498D01*
Y255280D01*
X344498Y254281D01*
X342499D01*
X341499Y255280D01*
Y258279D01*
X339500Y252281D02*
Y250282D01*
Y251282D01*
X345498D01*
X344498Y252281D01*
X345498Y243284D02*
Y247283D01*
X342499D01*
X343499Y245284D01*
Y244284D01*
X342499Y243284D01*
X340500D01*
X339500Y244284D01*
Y246283D01*
X340500Y247283D01*
X390000Y318000D02*
Y323998D01*
X392999D01*
X393999Y322998D01*
Y320999D01*
X392999Y319999D01*
X390000D01*
X399997Y318000D02*
X395998D01*
X399997Y321999D01*
Y322998D01*
X398997Y323998D01*
X396998D01*
X395998Y322998D01*
X405995Y323998D02*
X401996D01*
Y320999D01*
X403995Y321999D01*
X404995D01*
X405995Y320999D01*
Y319000D01*
X404995Y318000D01*
X402996D01*
X401996Y319000D01*
X375600Y258179D02*
Y264177D01*
X378599D01*
X379599Y263178D01*
Y261178D01*
X378599Y260179D01*
X375600D01*
X385597Y258179D02*
X381598D01*
X385597Y262178D01*
Y263178D01*
X384597Y264177D01*
X382598D01*
X381598Y263178D01*
X387596Y264177D02*
X391595D01*
Y263178D01*
X387596Y259179D01*
Y258179D01*
X262600Y229180D02*
Y235177D01*
X265599D01*
X266599Y234178D01*
Y232178D01*
X265599Y231179D01*
X262600D01*
X268598Y229180D02*
X270597D01*
X269598D01*
Y235177D01*
X268598Y234178D01*
X273596Y230179D02*
X274596Y229180D01*
X276595D01*
X277595Y230179D01*
Y234178D01*
X276595Y235177D01*
X274596D01*
X273596Y234178D01*
Y233178D01*
X274596Y232178D01*
X277595D01*
D31*
X595331Y377000D02*
Y397000D01*
Y377000D02*
X605331D01*
Y397000D01*
X595331D02*
X605331D01*
X595331Y414500D02*
Y434500D01*
Y414500D02*
X605331D01*
Y434500D01*
X595331D02*
X605331D01*
X367500Y241280D02*
X377500D01*
Y221280D02*
Y241280D01*
X367500Y221280D02*
X377500D01*
X367500D02*
Y241280D01*
X349500Y244779D02*
Y254780D01*
X369500D01*
Y244779D02*
Y254780D01*
X349500Y244779D02*
X369500D01*
X406000Y307279D02*
X426000D01*
Y317280D01*
X406000D02*
X426000D01*
X406000Y307279D02*
Y317280D01*
X375000Y244779D02*
X395000D01*
Y254780D01*
X375000D02*
X395000D01*
X375000Y244779D02*
Y254780D01*
X252000Y215779D02*
Y225780D01*
X322000D01*
Y215779D02*
Y225780D01*
X252000Y215779D02*
X322000D01*
D32*
X374614Y291874D02*
Y358409D01*
X331701D02*
X374614D01*
X323039Y349748D02*
X331701Y358409D01*
X323039Y291874D02*
Y349748D01*
Y291874D02*
X374614D01*
X377571Y439921D02*
X589776D01*
Y325748D02*
Y439921D01*
X377571Y325748D02*
X589776D01*
X377571D02*
Y439921D01*
X337106Y371437D02*
Y376161D01*
X334350Y373799D02*
X339468D01*
X334744Y424193D02*
X339862D01*
X337500Y421831D02*
Y426555D01*
X331594Y437185D02*
X371752D01*
Y360413D02*
Y437185D01*
X331594Y360413D02*
X371752D01*
X331594D02*
Y437185D01*
X306189Y362531D02*
X329811D01*
X306189D02*
Y394027D01*
X329811D01*
Y362531D02*
Y394027D01*
X306189Y407252D02*
X329811D01*
X306189D02*
Y438748D01*
X329811D01*
Y407252D02*
Y438748D01*
X424689Y209752D02*
X448311D01*
X424689D02*
Y241248D01*
X448311D01*
Y209752D02*
Y241248D01*
X341689Y209531D02*
X365311D01*
X341689D02*
Y241027D01*
X365311D01*
Y209531D02*
Y241027D01*
M02*
