G04 Layer_Color=2752767*
%FSLAX25Y25*%
%MOIN*%
G70*
G01*
G75*
%ADD23C,0.01000*%
%ADD34C,0.00500*%
%ADD35C,0.01600*%
D23*
X427000Y335499D02*
Y329500D01*
Y335499D02*
X429571D01*
X430428Y335213D01*
X430714Y334927D01*
X430999Y334356D01*
Y333785D01*
X430714Y333213D01*
X430428Y332928D01*
X429571Y332642D01*
X427000D02*
X429571D01*
X430428Y332357D01*
X430714Y332071D01*
X430999Y331500D01*
Y330643D01*
X430714Y330071D01*
X430428Y329786D01*
X429571Y329500D01*
X427000D01*
X483228Y334642D02*
X482942Y335213D01*
X482085Y335499D01*
X481514D01*
X480657Y335213D01*
X480086Y334356D01*
X479800Y332928D01*
Y331500D01*
X480086Y330357D01*
X480657Y329786D01*
X481514Y329500D01*
X481800D01*
X482656Y329786D01*
X483228Y330357D01*
X483513Y331214D01*
Y331500D01*
X483228Y332357D01*
X482656Y332928D01*
X481800Y333213D01*
X481514D01*
X480657Y332928D01*
X480086Y332357D01*
X479800Y331500D01*
X538190Y334070D02*
Y334356D01*
X538476Y334927D01*
X538761Y335213D01*
X539333Y335499D01*
X540475D01*
X541047Y335213D01*
X541332Y334927D01*
X541618Y334356D01*
Y333785D01*
X541332Y333213D01*
X540761Y332357D01*
X537904Y329500D01*
X541903D01*
X544674Y335499D02*
X543817Y335213D01*
X543532Y334642D01*
Y334070D01*
X543817Y333499D01*
X544389Y333213D01*
X545531Y332928D01*
X546388Y332642D01*
X546960Y332071D01*
X547245Y331500D01*
Y330643D01*
X546960Y330071D01*
X546674Y329786D01*
X545817Y329500D01*
X544674D01*
X543817Y329786D01*
X543532Y330071D01*
X543246Y330643D01*
Y331500D01*
X543532Y332071D01*
X544103Y332642D01*
X544960Y332928D01*
X546103Y333213D01*
X546674Y333499D01*
X546960Y334070D01*
Y334642D01*
X546674Y335213D01*
X545817Y335499D01*
X544674D01*
X548588Y333499D02*
Y329500D01*
Y332357D02*
X549445Y333213D01*
X550016Y333499D01*
X550873D01*
X551444Y333213D01*
X551730Y332357D01*
Y329500D01*
Y332357D02*
X552587Y333213D01*
X553158Y333499D01*
X554015D01*
X554587Y333213D01*
X554872Y332357D01*
Y329500D01*
X557329Y335499D02*
X557615Y335213D01*
X557900Y335499D01*
X557615Y335784D01*
X557329Y335499D01*
X557615Y333499D02*
Y329500D01*
X558957Y335499D02*
Y329500D01*
X566927Y336641D02*
X566356Y336070D01*
X565784Y335213D01*
X565213Y334070D01*
X564927Y332642D01*
Y331500D01*
X565213Y330071D01*
X565784Y328929D01*
X566356Y328072D01*
X566927Y327500D01*
X566356Y336070D02*
X565784Y334927D01*
X565498Y334070D01*
X565213Y332642D01*
Y331500D01*
X565498Y330071D01*
X565784Y329214D01*
X566356Y328072D01*
X569783Y335499D02*
X568926Y335213D01*
X568355Y334356D01*
X568069Y332928D01*
Y332071D01*
X568355Y330643D01*
X568926Y329786D01*
X569783Y329500D01*
X570355D01*
X571211Y329786D01*
X571783Y330643D01*
X572069Y332071D01*
Y332928D01*
X571783Y334356D01*
X571211Y335213D01*
X570355Y335499D01*
X569783D01*
X573697Y330071D02*
X573411Y329786D01*
X573697Y329500D01*
X573982Y329786D01*
X573697Y330071D01*
X579295Y335499D02*
X576439Y329500D01*
X575296Y335499D02*
X579295D01*
X580638Y334356D02*
X581209Y334642D01*
X582066Y335499D01*
Y329500D01*
X585037Y334356D02*
X585608Y334642D01*
X586465Y335499D01*
Y329500D01*
X589722Y334070D02*
Y334356D01*
X590007Y334927D01*
X590293Y335213D01*
X590865Y335499D01*
X592007D01*
X592578Y335213D01*
X592864Y334927D01*
X593150Y334356D01*
Y333785D01*
X592864Y333213D01*
X592293Y332357D01*
X589436Y329500D01*
X593435D01*
X594778Y333499D02*
Y329500D01*
Y332357D02*
X595635Y333213D01*
X596206Y333499D01*
X597063D01*
X597635Y333213D01*
X597920Y332357D01*
Y329500D01*
Y332357D02*
X598777Y333213D01*
X599348Y333499D01*
X600205D01*
X600777Y333213D01*
X601062Y332357D01*
Y329500D01*
X602948Y333499D02*
Y329500D01*
Y332357D02*
X603805Y333213D01*
X604376Y333499D01*
X605233D01*
X605804Y333213D01*
X606090Y332357D01*
Y329500D01*
Y332357D02*
X606947Y333213D01*
X607518Y333499D01*
X608375D01*
X608946Y333213D01*
X609232Y332357D01*
Y329500D01*
X611117Y336641D02*
X611689Y336070D01*
X612260Y335213D01*
X612831Y334070D01*
X613117Y332642D01*
Y331500D01*
X612831Y330071D01*
X612260Y328929D01*
X611689Y328072D01*
X611117Y327500D01*
X611689Y336070D02*
X612260Y334927D01*
X612546Y334070D01*
X612831Y332642D01*
Y331500D01*
X612546Y330071D01*
X612260Y329214D01*
X611689Y328072D01*
X638480Y332357D02*
X641051D01*
X641908Y332642D01*
X642193Y332928D01*
X642479Y333499D01*
Y334356D01*
X642193Y334927D01*
X641908Y335213D01*
X641051Y335499D01*
X638480D01*
Y329500D01*
X645821Y335499D02*
Y329500D01*
X643821Y335499D02*
X647821D01*
X648535D02*
Y329500D01*
X652534Y335499D02*
Y329500D01*
X648535Y332642D02*
X652534D01*
X677971Y335499D02*
Y329500D01*
Y335499D02*
X680542D01*
X681399Y335213D01*
X681684Y334927D01*
X681970Y334356D01*
Y333785D01*
X681684Y333213D01*
X681399Y332928D01*
X680542Y332642D01*
X677971D01*
X679971D02*
X681970Y329500D01*
X684741Y333499D02*
X684170Y333213D01*
X683598Y332642D01*
X683313Y331785D01*
Y331214D01*
X683598Y330357D01*
X684170Y329786D01*
X684741Y329500D01*
X685598D01*
X686169Y329786D01*
X686740Y330357D01*
X687026Y331214D01*
Y331785D01*
X686740Y332642D01*
X686169Y333213D01*
X685598Y333499D01*
X684741D01*
X688340D02*
Y330643D01*
X688626Y329786D01*
X689197Y329500D01*
X690054D01*
X690625Y329786D01*
X691482Y330643D01*
Y333499D02*
Y329500D01*
X693053Y333499D02*
Y329500D01*
Y332357D02*
X693910Y333213D01*
X694482Y333499D01*
X695339D01*
X695910Y333213D01*
X696196Y332357D01*
Y329500D01*
X701194Y335499D02*
Y329500D01*
Y332642D02*
X700623Y333213D01*
X700052Y333499D01*
X699195D01*
X698624Y333213D01*
X698052Y332642D01*
X697767Y331785D01*
Y331214D01*
X698052Y330357D01*
X698624Y329786D01*
X699195Y329500D01*
X700052D01*
X700623Y329786D01*
X701194Y330357D01*
X431570Y317500D02*
X429285Y323499D01*
X427000Y317500D01*
X427857Y319500D02*
X430714D01*
X479800Y322356D02*
X480371Y322642D01*
X481228Y323499D01*
Y317500D01*
X485913Y323499D02*
X485056Y323213D01*
X484485Y322356D01*
X484199Y320928D01*
Y320071D01*
X484485Y318643D01*
X485056Y317786D01*
X485913Y317500D01*
X486484D01*
X487341Y317786D01*
X487913Y318643D01*
X488198Y320071D01*
Y320928D01*
X487913Y322356D01*
X487341Y323213D01*
X486484Y323499D01*
X485913D01*
X538476D02*
X541618D01*
X539904Y321214D01*
X540761D01*
X541332Y320928D01*
X541618Y320642D01*
X541903Y319785D01*
Y319214D01*
X541618Y318357D01*
X541047Y317786D01*
X540190Y317500D01*
X539333D01*
X538476Y317786D01*
X538190Y318071D01*
X537904Y318643D01*
X546674Y323499D02*
X543817D01*
X543532Y320928D01*
X543817Y321214D01*
X544674Y321499D01*
X545531D01*
X546388Y321214D01*
X546960Y320642D01*
X547245Y319785D01*
Y319214D01*
X546960Y318357D01*
X546388Y317786D01*
X545531Y317500D01*
X544674D01*
X543817Y317786D01*
X543532Y318071D01*
X543246Y318643D01*
X548874Y318071D02*
X548588Y317786D01*
X548874Y317500D01*
X549159Y317786D01*
X548874Y318071D01*
X553330Y323499D02*
X550473Y319500D01*
X554758D01*
X553330Y323499D02*
Y317500D01*
X556386Y323499D02*
X559528D01*
X557814Y321214D01*
X558671D01*
X559243Y320928D01*
X559528Y320642D01*
X559814Y319785D01*
Y319214D01*
X559528Y318357D01*
X558957Y317786D01*
X558100Y317500D01*
X557243D01*
X556386Y317786D01*
X556101Y318071D01*
X555815Y318643D01*
X561728Y323499D02*
X564870D01*
X563156Y321214D01*
X564013D01*
X564584Y320928D01*
X564870Y320642D01*
X565156Y319785D01*
Y319214D01*
X564870Y318357D01*
X564299Y317786D01*
X563442Y317500D01*
X562585D01*
X561728Y317786D01*
X561442Y318071D01*
X561157Y318643D01*
X566498Y321499D02*
Y317500D01*
Y320356D02*
X567355Y321214D01*
X567927Y321499D01*
X568784D01*
X569355Y321214D01*
X569640Y320356D01*
Y317500D01*
Y320356D02*
X570497Y321214D01*
X571069Y321499D01*
X571926D01*
X572497Y321214D01*
X572783Y320356D01*
Y317500D01*
X575239Y323499D02*
X575525Y323213D01*
X575810Y323499D01*
X575525Y323784D01*
X575239Y323499D01*
X575525Y321499D02*
Y317500D01*
X576867Y323499D02*
Y317500D01*
X584837Y324641D02*
X584266Y324070D01*
X583695Y323213D01*
X583123Y322070D01*
X582838Y320642D01*
Y319500D01*
X583123Y318071D01*
X583695Y316929D01*
X584266Y316072D01*
X584837Y315500D01*
X584266Y324070D02*
X583695Y322927D01*
X583409Y322070D01*
X583123Y320642D01*
Y319500D01*
X583409Y318071D01*
X583695Y317214D01*
X584266Y316072D01*
X587694Y323499D02*
X586837Y323213D01*
X586265Y322356D01*
X585980Y320928D01*
Y320071D01*
X586265Y318643D01*
X586837Y317786D01*
X587694Y317500D01*
X588265D01*
X589122Y317786D01*
X589693Y318643D01*
X589979Y320071D01*
Y320928D01*
X589693Y322356D01*
X589122Y323213D01*
X588265Y323499D01*
X587694D01*
X591607Y318071D02*
X591322Y317786D01*
X591607Y317500D01*
X591893Y317786D01*
X591607Y318071D01*
X596920Y321499D02*
X596635Y320642D01*
X596063Y320071D01*
X595206Y319785D01*
X594921D01*
X594064Y320071D01*
X593493Y320642D01*
X593207Y321499D01*
Y321785D01*
X593493Y322642D01*
X594064Y323213D01*
X594921Y323499D01*
X595206D01*
X596063Y323213D01*
X596635Y322642D01*
X596920Y321499D01*
Y320071D01*
X596635Y318643D01*
X596063Y317786D01*
X595206Y317500D01*
X594635D01*
X593778Y317786D01*
X593493Y318357D01*
X598549Y321499D02*
Y317500D01*
Y320356D02*
X599405Y321214D01*
X599977Y321499D01*
X600834D01*
X601405Y321214D01*
X601691Y320356D01*
Y317500D01*
Y320356D02*
X602548Y321214D01*
X603119Y321499D01*
X603976D01*
X604547Y321214D01*
X604833Y320356D01*
Y317500D01*
X606718Y321499D02*
Y317500D01*
Y320356D02*
X607575Y321214D01*
X608146Y321499D01*
X609003D01*
X609575Y321214D01*
X609860Y320356D01*
Y317500D01*
Y320356D02*
X610717Y321214D01*
X611289Y321499D01*
X612146D01*
X612717Y321214D01*
X613003Y320356D01*
Y317500D01*
X614888Y324641D02*
X615459Y324070D01*
X616031Y323213D01*
X616602Y322070D01*
X616888Y320642D01*
Y319500D01*
X616602Y318071D01*
X616031Y316929D01*
X615459Y316072D01*
X614888Y315500D01*
X615459Y324070D02*
X616031Y322927D01*
X616316Y322070D01*
X616602Y320642D01*
Y319500D01*
X616316Y318071D01*
X616031Y317214D01*
X615459Y316072D01*
X638480Y320356D02*
X641051D01*
X641908Y320642D01*
X642193Y320928D01*
X642479Y321499D01*
Y322356D01*
X642193Y322927D01*
X641908Y323213D01*
X641051Y323499D01*
X638480D01*
Y317500D01*
X645821Y323499D02*
Y317500D01*
X643821Y323499D02*
X647821D01*
X648535D02*
Y317500D01*
X652534Y323499D02*
Y317500D01*
X648535Y320642D02*
X652534D01*
X677971Y323499D02*
Y317500D01*
Y323499D02*
X680542D01*
X681399Y323213D01*
X681684Y322927D01*
X681970Y322356D01*
Y321785D01*
X681684Y321214D01*
X681399Y320928D01*
X680542Y320642D01*
X677971D01*
X679971D02*
X681970Y317500D01*
X684741Y321499D02*
X684170Y321214D01*
X683598Y320642D01*
X683313Y319785D01*
Y319214D01*
X683598Y318357D01*
X684170Y317786D01*
X684741Y317500D01*
X685598D01*
X686169Y317786D01*
X686740Y318357D01*
X687026Y319214D01*
Y319785D01*
X686740Y320642D01*
X686169Y321214D01*
X685598Y321499D01*
X684741D01*
X688340D02*
Y318643D01*
X688626Y317786D01*
X689197Y317500D01*
X690054D01*
X690625Y317786D01*
X691482Y318643D01*
Y321499D02*
Y317500D01*
X693053Y321499D02*
Y317500D01*
Y320356D02*
X693910Y321214D01*
X694482Y321499D01*
X695339D01*
X695910Y321214D01*
X696196Y320356D01*
Y317500D01*
X701194Y323499D02*
Y317500D01*
Y320642D02*
X700623Y321214D01*
X700052Y321499D01*
X699195D01*
X698624Y321214D01*
X698052Y320642D01*
X697767Y319785D01*
Y319214D01*
X698052Y318357D01*
X698624Y317786D01*
X699195Y317500D01*
X700052D01*
X700623Y317786D01*
X701194Y318357D01*
X479800Y310356D02*
X480371Y310642D01*
X481228Y311499D01*
Y305500D01*
X487627Y310642D02*
X487341Y311213D01*
X486484Y311499D01*
X485913D01*
X485056Y311213D01*
X484485Y310356D01*
X484199Y308928D01*
Y307500D01*
X484485Y306357D01*
X485056Y305786D01*
X485913Y305500D01*
X486199D01*
X487056Y305786D01*
X487627Y306357D01*
X487913Y307214D01*
Y307500D01*
X487627Y308356D01*
X487056Y308928D01*
X486199Y309213D01*
X485913D01*
X485056Y308928D01*
X484485Y308356D01*
X484199Y307500D01*
X500712Y311499D02*
Y305500D01*
X498713Y311499D02*
X502712D01*
X504854Y309499D02*
X504283Y309213D01*
X503712Y308642D01*
X503426Y307785D01*
Y307214D01*
X503712Y306357D01*
X504283Y305786D01*
X504854Y305500D01*
X505711D01*
X506282Y305786D01*
X506854Y306357D01*
X507139Y307214D01*
Y307785D01*
X506854Y308642D01*
X506282Y309213D01*
X505711Y309499D01*
X504854D01*
X509310Y311499D02*
Y306643D01*
X509596Y305786D01*
X510167Y305500D01*
X510739D01*
X508453Y309499D02*
X510453D01*
X515023D02*
Y305500D01*
Y308642D02*
X514452Y309213D01*
X513881Y309499D01*
X513024D01*
X512453Y309213D01*
X511881Y308642D01*
X511595Y307785D01*
Y307214D01*
X511881Y306357D01*
X512453Y305786D01*
X513024Y305500D01*
X513881D01*
X514452Y305786D01*
X515023Y306357D01*
X516623Y311499D02*
Y305500D01*
D34*
X342000Y336000D02*
Y339332D01*
X343666Y340998D01*
X345332Y339332D01*
Y336000D01*
Y338499D01*
X342000D01*
Y326000D02*
Y329332D01*
X343666Y330998D01*
X345332Y329332D01*
Y326000D01*
Y328499D01*
X342000D01*
X397657Y315220D02*
Y318553D01*
X399324Y320219D01*
X400990Y318553D01*
Y315220D01*
Y317720D01*
X397657D01*
X387657Y315220D02*
Y318553D01*
X389324Y320219D01*
X390990Y318553D01*
Y315220D01*
Y317720D01*
X387657D01*
X349398Y384528D02*
Y387860D01*
X351064Y389526D01*
X352730Y387860D01*
Y384528D01*
Y387027D01*
X349398D01*
X339398Y384528D02*
Y387860D01*
X341064Y389526D01*
X342730Y387860D01*
Y384528D01*
Y387027D01*
X339398D01*
X349398Y394528D02*
Y397860D01*
X351064Y399526D01*
X352730Y397860D01*
Y394528D01*
Y397027D01*
X349398D01*
X339398Y394528D02*
Y397860D01*
X341064Y399526D01*
X342730Y397860D01*
Y394528D01*
Y397027D01*
X339398D01*
X396713Y398504D02*
Y401836D01*
X398379Y403502D01*
X400045Y401836D01*
Y398504D01*
Y401003D01*
X396713D01*
X386713Y398504D02*
Y401836D01*
X388379Y403502D01*
X390045Y401836D01*
Y398504D01*
Y401003D01*
X386713D01*
X397500Y372498D02*
Y367500D01*
X399999D01*
X400832Y368333D01*
Y369166D01*
X399999Y369999D01*
X397500D01*
X399999D01*
X400832Y370832D01*
Y371665D01*
X399999Y372498D01*
X397500D01*
X374000Y322498D02*
Y317500D01*
X376499D01*
X377332Y318333D01*
Y319166D01*
X376499Y319999D01*
X374000D01*
X376499D01*
X377332Y320832D01*
Y321665D01*
X376499Y322498D01*
X374000D01*
X405500Y324998D02*
Y320000D01*
X407999D01*
X408832Y320833D01*
Y321666D01*
X407999Y322499D01*
X405500D01*
X407999D01*
X408832Y323332D01*
Y324165D01*
X407999Y324998D01*
X405500D01*
X397000Y334998D02*
Y330000D01*
X399499D01*
X400332Y330833D01*
Y331666D01*
X399499Y332499D01*
X397000D01*
X399499D01*
X400332Y333332D01*
Y334165D01*
X399499Y334998D01*
X397000D01*
X419500D02*
Y330000D01*
X421999D01*
X422832Y330833D01*
Y331666D01*
X421999Y332499D01*
X419500D01*
X421999D01*
X422832Y333332D01*
Y334165D01*
X421999Y334998D01*
X419500D01*
X370000Y384498D02*
Y379500D01*
X372499D01*
X373332Y380333D01*
Y381166D01*
X372499Y381999D01*
X370000D01*
X372499D01*
X373332Y382832D01*
Y383665D01*
X372499Y384498D01*
X370000D01*
D35*
X431799Y350070D02*
X431113Y350756D01*
X430085Y351098D01*
X428714D01*
X427686Y350756D01*
X427000Y350070D01*
Y349384D01*
X427343Y348699D01*
X427686Y348356D01*
X428371Y348013D01*
X430428Y347328D01*
X431113Y346985D01*
X431456Y346642D01*
X431799Y345957D01*
Y344928D01*
X431113Y344243D01*
X430085Y343900D01*
X428714D01*
X427686Y344243D01*
X427000Y344928D01*
X433753Y348699D02*
X435810Y343900D01*
X437866Y348699D02*
X435810Y343900D01*
X435124Y342529D01*
X434438Y341843D01*
X433753Y341500D01*
X433410D01*
X439066Y348699D02*
Y343900D01*
Y347328D02*
X440094Y348356D01*
X440780Y348699D01*
X441808D01*
X442494Y348356D01*
X442837Y347328D01*
Y343900D01*
Y347328D02*
X443865Y348356D01*
X444551Y348699D01*
X445579D01*
X446264Y348356D01*
X446607Y347328D01*
Y343900D01*
X448870Y351098D02*
Y343900D01*
Y347671D02*
X449555Y348356D01*
X450241Y348699D01*
X451269D01*
X451955Y348356D01*
X452640Y347671D01*
X452983Y346642D01*
Y345957D01*
X452640Y344928D01*
X451955Y344243D01*
X451269Y343900D01*
X450241D01*
X449555Y344243D01*
X448870Y344928D01*
X456239Y348699D02*
X455554Y348356D01*
X454868Y347671D01*
X454526Y346642D01*
Y345957D01*
X454868Y344928D01*
X455554Y344243D01*
X456239Y343900D01*
X457268D01*
X457953Y344243D01*
X458639Y344928D01*
X458982Y345957D01*
Y346642D01*
X458639Y347671D01*
X457953Y348356D01*
X457268Y348699D01*
X456239D01*
X460559Y351098D02*
Y343900D01*
X479800Y351098D02*
Y343900D01*
X484599Y351098D02*
Y343900D01*
X479800Y347671D02*
X484599D01*
X487273Y351098D02*
X487615Y350756D01*
X487958Y351098D01*
X487615Y351441D01*
X487273Y351098D01*
X487615Y348699D02*
Y343900D01*
X490255Y351098D02*
Y345271D01*
X490598Y344243D01*
X491283Y343900D01*
X491969D01*
X489227Y348699D02*
X491626D01*
X503795Y349384D02*
X503452Y350070D01*
X502767Y350756D01*
X502081Y351098D01*
X500710D01*
X500024Y350756D01*
X499339Y350070D01*
X498996Y349384D01*
X498653Y348356D01*
Y346642D01*
X498996Y345614D01*
X499339Y344928D01*
X500024Y344243D01*
X500710Y343900D01*
X502081D01*
X502767Y344243D01*
X503452Y344928D01*
X503795Y345614D01*
X507531Y348699D02*
X506846Y348356D01*
X506160Y347671D01*
X505817Y346642D01*
Y345957D01*
X506160Y344928D01*
X506846Y344243D01*
X507531Y343900D01*
X508560D01*
X509245Y344243D01*
X509931Y344928D01*
X510274Y345957D01*
Y346642D01*
X509931Y347671D01*
X509245Y348356D01*
X508560Y348699D01*
X507531D01*
X511850D02*
Y345271D01*
X512193Y344243D01*
X512879Y343900D01*
X513907D01*
X514593Y344243D01*
X515621Y345271D01*
Y348699D02*
Y343900D01*
X517506Y348699D02*
Y343900D01*
Y347328D02*
X518535Y348356D01*
X519220Y348699D01*
X520249D01*
X520934Y348356D01*
X521277Y347328D01*
Y343900D01*
X524191Y351098D02*
Y345271D01*
X524533Y344243D01*
X525219Y343900D01*
X525904D01*
X523162Y348699D02*
X525562D01*
X537904Y351098D02*
Y343900D01*
Y351098D02*
X542361D01*
X537904Y347671D02*
X540647D01*
X543869Y351098D02*
X544212Y350756D01*
X544554Y351098D01*
X544212Y351441D01*
X543869Y351098D01*
X544212Y348699D02*
Y343900D01*
X545823Y348699D02*
Y343900D01*
Y347328D02*
X546851Y348356D01*
X547537Y348699D01*
X548565D01*
X549251Y348356D01*
X549593Y347328D01*
Y343900D01*
X552164Y351098D02*
X552507Y350756D01*
X552850Y351098D01*
X552507Y351441D01*
X552164Y351098D01*
X552507Y348699D02*
Y343900D01*
X557889Y347671D02*
X557546Y348356D01*
X556518Y348699D01*
X555489D01*
X554461Y348356D01*
X554118Y347671D01*
X554461Y346985D01*
X555146Y346642D01*
X556860Y346300D01*
X557546Y345957D01*
X557889Y345271D01*
Y344928D01*
X557546Y344243D01*
X556518Y343900D01*
X555489D01*
X554461Y344243D01*
X554118Y344928D01*
X559397Y351098D02*
Y343900D01*
Y347328D02*
X560425Y348356D01*
X561111Y348699D01*
X562139D01*
X562825Y348356D01*
X563168Y347328D01*
Y343900D01*
X565053Y346642D02*
X569166D01*
Y347328D01*
X568823Y348013D01*
X568481Y348356D01*
X567795Y348699D01*
X566767D01*
X566081Y348356D01*
X565396Y347671D01*
X565053Y346642D01*
Y345957D01*
X565396Y344928D01*
X566081Y344243D01*
X566767Y343900D01*
X567795D01*
X568481Y344243D01*
X569166Y344928D01*
X574822Y351098D02*
Y343900D01*
Y347671D02*
X574137Y348356D01*
X573451Y348699D01*
X572423D01*
X571737Y348356D01*
X571052Y347671D01*
X570709Y346642D01*
Y345957D01*
X571052Y344928D01*
X571737Y344243D01*
X572423Y343900D01*
X573451D01*
X574137Y344243D01*
X574822Y344928D01*
X582398Y351098D02*
Y343900D01*
X587197Y351098D02*
Y343900D01*
X582398Y347671D02*
X587197D01*
X590899Y348699D02*
X590213Y348356D01*
X589528Y347671D01*
X589185Y346642D01*
Y345957D01*
X589528Y344928D01*
X590213Y344243D01*
X590899Y343900D01*
X591927D01*
X592613Y344243D01*
X593298Y344928D01*
X593641Y345957D01*
Y346642D01*
X593298Y347671D01*
X592613Y348356D01*
X591927Y348699D01*
X590899D01*
X595218Y351098D02*
Y343900D01*
X596726Y346642D02*
X600840D01*
Y347328D01*
X600497Y348013D01*
X600154Y348356D01*
X599468Y348699D01*
X598440D01*
X597754Y348356D01*
X597069Y347671D01*
X596726Y346642D01*
Y345957D01*
X597069Y344928D01*
X597754Y344243D01*
X598440Y343900D01*
X599468D01*
X600154Y344243D01*
X600840Y344928D01*
X612837Y350070D02*
X612151Y350756D01*
X611123Y351098D01*
X609752D01*
X608723Y350756D01*
X608038Y350070D01*
Y349384D01*
X608381Y348699D01*
X608723Y348356D01*
X609409Y348013D01*
X611466Y347328D01*
X612151Y346985D01*
X612494Y346642D01*
X612837Y345957D01*
Y344928D01*
X612151Y344243D01*
X611123Y343900D01*
X609752D01*
X608723Y344243D01*
X608038Y344928D01*
X615134Y351098D02*
X615476Y350756D01*
X615819Y351098D01*
X615476Y351441D01*
X615134Y351098D01*
X615476Y348699D02*
Y343900D01*
X620858Y348699D02*
X617087Y343900D01*
Y348699D02*
X620858D01*
X617087Y343900D02*
X620858D01*
X622366Y346642D02*
X626480D01*
Y347328D01*
X626137Y348013D01*
X625794Y348356D01*
X625109Y348699D01*
X624080D01*
X623395Y348356D01*
X622709Y347671D01*
X622366Y346642D01*
Y345957D01*
X622709Y344928D01*
X623395Y344243D01*
X624080Y343900D01*
X625109D01*
X625794Y344243D01*
X626480Y344928D01*
X638480Y347328D02*
X641565D01*
X642593Y347671D01*
X642936Y348013D01*
X643279Y348699D01*
Y349727D01*
X642936Y350413D01*
X642593Y350756D01*
X641565Y351098D01*
X638480D01*
Y343900D01*
X644890Y351098D02*
Y343900D01*
X650511Y348699D02*
Y343900D01*
Y347671D02*
X649826Y348356D01*
X649140Y348699D01*
X648112D01*
X647426Y348356D01*
X646741Y347671D01*
X646398Y346642D01*
Y345957D01*
X646741Y344928D01*
X647426Y344243D01*
X648112Y343900D01*
X649140D01*
X649826Y344243D01*
X650511Y344928D01*
X653459Y351098D02*
Y345271D01*
X653802Y344243D01*
X654488Y343900D01*
X655173D01*
X652431Y348699D02*
X654831D01*
X656202Y346642D02*
X660315D01*
Y347328D01*
X659972Y348013D01*
X659629Y348356D01*
X658944Y348699D01*
X657915D01*
X657230Y348356D01*
X656544Y347671D01*
X656202Y346642D01*
Y345957D01*
X656544Y344928D01*
X657230Y344243D01*
X657915Y343900D01*
X658944D01*
X659629Y344243D01*
X660315Y344928D01*
X665971Y351098D02*
Y343900D01*
Y347671D02*
X665285Y348356D01*
X664600Y348699D01*
X663571D01*
X662886Y348356D01*
X662200Y347671D01*
X661858Y346642D01*
Y345957D01*
X662200Y344928D01*
X662886Y344243D01*
X663571Y343900D01*
X664600D01*
X665285Y344243D01*
X665971Y344928D01*
X677971Y351098D02*
Y343900D01*
X682770Y351098D02*
Y343900D01*
X677971Y347671D02*
X682770D01*
X686472Y348699D02*
X685786Y348356D01*
X685101Y347671D01*
X684758Y346642D01*
Y345957D01*
X685101Y344928D01*
X685786Y344243D01*
X686472Y343900D01*
X687500D01*
X688186Y344243D01*
X688871Y344928D01*
X689214Y345957D01*
Y346642D01*
X688871Y347671D01*
X688186Y348356D01*
X687500Y348699D01*
X686472D01*
X690791Y351098D02*
Y343900D01*
X692299Y346642D02*
X696413D01*
Y347328D01*
X696070Y348013D01*
X695727Y348356D01*
X695042Y348699D01*
X694013D01*
X693328Y348356D01*
X692642Y347671D01*
X692299Y346642D01*
Y345957D01*
X692642Y344928D01*
X693328Y344243D01*
X694013Y343900D01*
X695042D01*
X695727Y344243D01*
X696413Y344928D01*
X706011Y351098D02*
Y343900D01*
X703611Y351098D02*
X708410D01*
X709610Y348699D02*
X711667Y343900D01*
X713723Y348699D02*
X711667Y343900D01*
X710981Y342529D01*
X710295Y341843D01*
X709610Y341500D01*
X709267D01*
X714923Y348699D02*
Y341500D01*
Y347671D02*
X715609Y348356D01*
X716294Y348699D01*
X717322D01*
X718008Y348356D01*
X718694Y347671D01*
X719036Y346642D01*
Y345957D01*
X718694Y344928D01*
X718008Y344243D01*
X717322Y343900D01*
X716294D01*
X715609Y344243D01*
X714923Y344928D01*
X720579Y346642D02*
X724692D01*
Y347328D01*
X724349Y348013D01*
X724007Y348356D01*
X723321Y348699D01*
X722293D01*
X721607Y348356D01*
X720922Y347671D01*
X720579Y346642D01*
Y345957D01*
X720922Y344928D01*
X721607Y344243D01*
X722293Y343900D01*
X723321D01*
X724007Y344243D01*
X724692Y344928D01*
X418200Y354700D02*
X736692D01*
X418200Y338500D02*
X736692D01*
X418200Y354700D02*
Y302500D01*
X736692Y354700D02*
Y302500D01*
X475400Y354700D02*
Y302500D01*
X533504Y354700D02*
Y302500D01*
X634080Y354700D02*
Y302500D01*
X673571Y354700D02*
Y302500D01*
X418200Y314500D02*
X736692D01*
X418200Y302500D02*
X736692D01*
M02*
