G04 Layer_Color=255*
%FSLAX25Y25*%
%MOIN*%
G70*
G01*
G75*
%ADD10R,0.03740X0.03543*%
%ADD11R,0.04331X0.02362*%
%ADD12R,0.03543X0.03740*%
%ADD13R,0.09843X0.06693*%
%ADD17C,0.05906*%
%ADD18R,0.05906X0.05906*%
%ADD19R,0.05906X0.05906*%
D10*
X380000Y368905D02*
D03*
Y363000D02*
D03*
X413500Y341000D02*
D03*
Y346905D02*
D03*
X405500Y327000D02*
D03*
Y332906D02*
D03*
X386000Y342500D02*
D03*
Y348406D02*
D03*
X416500Y373500D02*
D03*
Y379405D02*
D03*
X389000Y363000D02*
D03*
Y368905D02*
D03*
D11*
X405130Y349000D02*
D03*
Y341520D02*
D03*
X394500D02*
D03*
Y349000D02*
D03*
Y345260D02*
D03*
X408130Y381000D02*
D03*
Y373520D02*
D03*
X397500D02*
D03*
Y381000D02*
D03*
Y377260D02*
D03*
D12*
X382095Y325500D02*
D03*
X388000D02*
D03*
X382095Y334000D02*
D03*
X388000D02*
D03*
X402500Y365500D02*
D03*
X408405D02*
D03*
X370000Y398500D02*
D03*
X375905D02*
D03*
X370000Y390000D02*
D03*
X375905D02*
D03*
X346000Y353000D02*
D03*
X351905D02*
D03*
D13*
X351752Y365000D02*
D03*
X367500D02*
D03*
D17*
X342000Y336000D02*
D03*
X397657Y315220D02*
D03*
X339398Y384528D02*
D03*
X349398Y394528D02*
D03*
X339398D02*
D03*
X396713Y398504D02*
D03*
D18*
X342000Y326000D02*
D03*
X349398Y384528D02*
D03*
D19*
X387657Y315220D02*
D03*
X386713Y398504D02*
D03*
M02*
