G04 Layer_Physical_Order=2*
G04 Layer_Color=16711680*
%FSLAX25Y25*%
%MOIN*%
G70*
G01*
G75*
%ADD14C,0.02000*%
%ADD15C,0.05000*%
%ADD16C,0.02500*%
%ADD17C,0.05906*%
%ADD18R,0.05906X0.05906*%
%ADD19R,0.05906X0.05906*%
%ADD20C,0.05000*%
G36*
X417715Y328250D02*
X417608Y328345D01*
X417483Y328430D01*
X417340Y328505D01*
X417179Y328570D01*
X417000Y328625D01*
X416803Y328670D01*
X416588Y328705D01*
X416355Y328730D01*
X415835Y328750D01*
Y331250D01*
X416104Y331255D01*
X416588Y331295D01*
X416803Y331330D01*
X417000Y331375D01*
X417179Y331430D01*
X417340Y331495D01*
X417483Y331570D01*
X417608Y331655D01*
X417715Y331750D01*
Y328250D01*
D02*
G37*
G36*
X398892Y331655D02*
X399017Y331570D01*
X399160Y331495D01*
X399321Y331430D01*
X399500Y331375D01*
X399697Y331330D01*
X399912Y331295D01*
X400145Y331270D01*
X400665Y331250D01*
Y328750D01*
X400396Y328745D01*
X399912Y328705D01*
X399697Y328670D01*
X399500Y328625D01*
X399321Y328570D01*
X399160Y328505D01*
X399017Y328430D01*
X398892Y328345D01*
X398785Y328250D01*
Y331750D01*
X398892Y331655D01*
D02*
G37*
G36*
X420500Y350500D02*
Y333893D01*
X420000Y333464D01*
X419500Y333530D01*
X418586Y333410D01*
X417735Y333057D01*
X417004Y332496D01*
X416973Y332457D01*
X416958Y332446D01*
X416911Y332421D01*
X416837Y332392D01*
X416736Y332361D01*
X416607Y332331D01*
X416464Y332308D01*
X416298Y332294D01*
X400158D01*
X400049Y332306D01*
X399893Y332331D01*
X399764Y332361D01*
X399663Y332392D01*
X399589Y332421D01*
X399543Y332446D01*
X399527Y332457D01*
X399496Y332496D01*
X398765Y333057D01*
X397914Y333410D01*
X397000Y333530D01*
X396086Y333410D01*
X395235Y333057D01*
X394504Y332496D01*
X393943Y331765D01*
X393590Y330914D01*
X393470Y330000D01*
X393590Y329086D01*
X393943Y328235D01*
X394504Y327504D01*
X395235Y326943D01*
X396086Y326590D01*
X397000Y326470D01*
X397914Y326590D01*
X398765Y326943D01*
X399496Y327504D01*
X399527Y327543D01*
X399542Y327554D01*
X399589Y327578D01*
X399663Y327608D01*
X399764Y327639D01*
X399893Y327669D01*
X400036Y327692D01*
X400202Y327706D01*
X416342D01*
X416451Y327694D01*
X416607Y327669D01*
X416736Y327639D01*
X416837Y327608D01*
X416911Y327578D01*
X416957Y327554D01*
X416973Y327543D01*
X417004Y327504D01*
X417735Y326943D01*
X418586Y326590D01*
X419500Y326470D01*
X420000Y326536D01*
X420500Y326107D01*
Y308000D01*
X418500Y306000D01*
X362500D01*
X359000Y309500D01*
Y349000D01*
X362000Y352000D01*
X419000D01*
X420500Y350500D01*
D02*
G37*
G36*
X421000Y401000D02*
Y359000D01*
X419000Y357000D01*
X362000D01*
X359500Y359500D01*
Y400500D01*
X362500Y403500D01*
X418500D01*
X421000Y401000D01*
D02*
G37*
%LPC*%
G36*
X391610Y319173D02*
X383705D01*
Y311268D01*
X391610D01*
Y319173D01*
D02*
G37*
G36*
X390665Y402457D02*
X382760D01*
Y394551D01*
X390665D01*
Y402457D01*
D02*
G37*
%LPD*%
D14*
X397657Y315220D02*
X400721D01*
X405500Y320000D01*
D15*
X353000Y317500D02*
X361500Y326000D01*
X336500Y317500D02*
X353000D01*
X334500Y319500D02*
X336500Y317500D01*
X334500Y319500D02*
Y334000D01*
X336500Y336000D01*
X342000D01*
D16*
X397000Y330000D02*
X419500D01*
D17*
X342000Y336000D02*
D03*
X397657Y315220D02*
D03*
X339398Y384528D02*
D03*
X349398Y394528D02*
D03*
X339398D02*
D03*
X396713Y398504D02*
D03*
D18*
X342000Y326000D02*
D03*
X349398Y384528D02*
D03*
D19*
X387657Y315220D02*
D03*
X386713Y398504D02*
D03*
D20*
X397500Y367500D02*
D03*
X374000Y317500D02*
D03*
X405500Y320000D02*
D03*
X397000Y330000D02*
D03*
X419500D02*
D03*
X370000Y379500D02*
D03*
M02*
