G04 Layer_Physical_Order=1*
G04 Layer_Color=255*
%FSLAX25Y25*%
%MOIN*%
G70*
G01*
G75*
%ADD10R,0.03740X0.03543*%
%ADD11R,0.04331X0.02362*%
%ADD12R,0.03543X0.03740*%
%ADD13R,0.09843X0.06693*%
%ADD14C,0.02000*%
%ADD15C,0.05000*%
%ADD16C,0.02500*%
%ADD17C,0.05906*%
%ADD18R,0.05906X0.05906*%
%ADD19R,0.05906X0.05906*%
%ADD20C,0.05000*%
G36*
X411642Y339240D02*
X411617Y339337D01*
X411542Y339424D01*
X411417Y339500D01*
X411242Y339566D01*
X411017Y339623D01*
X410742Y339668D01*
X410417Y339704D01*
X409617Y339745D01*
X409142Y339750D01*
Y342250D01*
X409617Y342255D01*
X410742Y342332D01*
X411017Y342377D01*
X411242Y342434D01*
X411417Y342500D01*
X411542Y342576D01*
X411617Y342663D01*
X411642Y342760D01*
Y339240D01*
D02*
G37*
G36*
X387870Y343615D02*
X387904Y343591D01*
X387961Y343569D01*
X388041Y343551D01*
X388144Y343535D01*
X388418Y343513D01*
X389000Y343500D01*
Y341500D01*
X388783Y341499D01*
X388041Y341449D01*
X387961Y341430D01*
X387904Y341409D01*
X387870Y341385D01*
X387858Y341358D01*
Y343642D01*
X387870Y343615D01*
D02*
G37*
G36*
X406390Y336690D02*
X406468Y335890D01*
X406536Y335565D01*
X406625Y335290D01*
X406732Y335065D01*
X406859Y334890D01*
X407006Y334765D01*
X407172Y334690D01*
X407358Y334665D01*
X403642D01*
X403687Y334690D01*
X403728Y334765D01*
X403763Y334890D01*
X403794Y335065D01*
X403820Y335290D01*
X403859Y335890D01*
X403880Y337165D01*
X406380D01*
X406390Y336690D01*
D02*
G37*
G36*
X407112Y340326D02*
X406958Y340251D01*
X406823Y340126D01*
X406705Y339951D01*
X406606Y339726D01*
X406525Y339451D01*
X406461Y339126D01*
X406416Y338751D01*
X406389Y338326D01*
X406380Y337851D01*
X403880D01*
X403871Y338326D01*
X403799Y339126D01*
X403735Y339451D01*
X403654Y339726D01*
X403555Y339951D01*
X403437Y340126D01*
X403302Y340251D01*
X403148Y340326D01*
X402977Y340351D01*
X407283D01*
X407112Y340326D01*
D02*
G37*
G36*
X415383Y348568D02*
X415458Y348482D01*
X415583Y348405D01*
X415758Y348339D01*
X415983Y348283D01*
X416258Y348237D01*
X416583Y348201D01*
X417383Y348161D01*
X417858Y348155D01*
Y345655D01*
X417383Y345650D01*
X416258Y345574D01*
X415983Y345528D01*
X415758Y345472D01*
X415583Y345406D01*
X415458Y345329D01*
X415383Y345243D01*
X415358Y345146D01*
Y348665D01*
X415383Y348568D01*
D02*
G37*
G36*
X347760Y351142D02*
X347709Y351107D01*
X347589Y351000D01*
X344142Y347606D01*
X340232Y350768D01*
X344240Y354858D01*
X347760Y351142D01*
D02*
G37*
G36*
X353568Y351117D02*
X353482Y351042D01*
X353405Y350917D01*
X353339Y350742D01*
X353283Y350517D01*
X353237Y350242D01*
X353201Y349917D01*
X353161Y349117D01*
X353155Y348642D01*
X350656D01*
X350650Y349117D01*
X350574Y350242D01*
X350528Y350517D01*
X350472Y350742D01*
X350406Y350917D01*
X350329Y351042D01*
X350243Y351117D01*
X350146Y351142D01*
X353665D01*
X353568Y351117D01*
D02*
G37*
G36*
X384142Y346646D02*
X384117Y346743D01*
X384042Y346829D01*
X383917Y346906D01*
X383742Y346972D01*
X383517Y347028D01*
X383242Y347074D01*
X382917Y347110D01*
X382117Y347150D01*
X381642Y347155D01*
Y349656D01*
X382117Y349661D01*
X383242Y349737D01*
X383517Y349783D01*
X383742Y349839D01*
X383917Y349905D01*
X384042Y349982D01*
X384117Y350068D01*
X384142Y350165D01*
Y346646D01*
D02*
G37*
G36*
X387883Y350123D02*
X387958Y350084D01*
X388083Y350051D01*
X388258Y350022D01*
X388483Y349997D01*
X389458Y349950D01*
X390358Y349941D01*
Y347441D01*
X389883Y347433D01*
X389083Y347369D01*
X388758Y347314D01*
X388483Y347242D01*
X388258Y347155D01*
X388083Y347051D01*
X387958Y346932D01*
X387883Y346797D01*
X387858Y346646D01*
Y350165D01*
X387883Y350123D01*
D02*
G37*
G36*
X389663Y323617D02*
X389576Y323542D01*
X389500Y323417D01*
X389434Y323242D01*
X389377Y323017D01*
X389332Y322742D01*
X389296Y322417D01*
X389255Y321617D01*
X389250Y321142D01*
X386750D01*
X386745Y321617D01*
X386668Y322742D01*
X386623Y323017D01*
X386566Y323242D01*
X386500Y323417D01*
X386424Y323542D01*
X386337Y323617D01*
X386240Y323642D01*
X389760D01*
X389663Y323617D01*
D02*
G37*
G36*
X407195Y325220D02*
X407049Y325160D01*
X406920Y325060D01*
X406809Y324920D01*
X406714Y324740D01*
X406637Y324520D01*
X406577Y324260D01*
X406534Y323960D01*
X406509Y323620D01*
X406507Y323555D01*
X406507Y323542D01*
X406530Y323304D01*
X406567Y323077D01*
X406620Y322860D01*
X406687Y322654D01*
X406770Y322459D01*
X406868Y322275D01*
X406980Y322101D01*
X407107Y321938D01*
X407250Y321785D01*
X403750D01*
X403893Y321938D01*
X404020Y322101D01*
X404133Y322275D01*
X404230Y322459D01*
X404313Y322654D01*
X404380Y322860D01*
X404432Y323077D01*
X404470Y323304D01*
X404493Y323542D01*
X404493Y323555D01*
X404491Y323620D01*
X404466Y323960D01*
X404423Y324260D01*
X404363Y324520D01*
X404285Y324740D01*
X404191Y324920D01*
X404079Y325060D01*
X403951Y325160D01*
X403805Y325220D01*
X403642Y325240D01*
X407358D01*
X407195Y325220D01*
D02*
G37*
G36*
X377414Y319405D02*
X377243Y319224D01*
X377090Y319040D01*
X376955Y318853D01*
X376837Y318663D01*
X376737Y318470D01*
X376654Y318274D01*
X376589Y318074D01*
X376542Y317872D01*
X376512Y317667D01*
X376500Y317458D01*
X374092Y319998D01*
X374300Y320000D01*
X374505Y320021D01*
X374708Y320060D01*
X374907Y320118D01*
X375103Y320195D01*
X375297Y320290D01*
X375487Y320405D01*
X375675Y320538D01*
X375859Y320690D01*
X376041Y320861D01*
X377414Y319405D01*
D02*
G37*
G36*
X389263Y320184D02*
X389300Y319757D01*
X389363Y319380D01*
X389450Y319054D01*
X389563Y318777D01*
X389700Y318551D01*
X389862Y318375D01*
X390050Y318250D01*
X390263Y318174D01*
X390500Y318149D01*
X385500D01*
X385737Y318174D01*
X385950Y318250D01*
X386138Y318375D01*
X386300Y318551D01*
X386438Y318777D01*
X386550Y319054D01*
X386637Y319380D01*
X386700Y319757D01*
X386737Y320184D01*
X386750Y320661D01*
X389250D01*
X389263Y320184D01*
D02*
G37*
G36*
X344954Y328262D02*
X345029Y328050D01*
X345155Y327863D01*
X345331Y327700D01*
X345557Y327562D01*
X345833Y327450D01*
X346160Y327362D01*
X346536Y327300D01*
X346964Y327262D01*
X347441Y327250D01*
Y324750D01*
X346964Y324738D01*
X346536Y324700D01*
X346160Y324638D01*
X345833Y324550D01*
X345557Y324437D01*
X345331Y324300D01*
X345155Y324137D01*
X345029Y323950D01*
X344954Y323738D01*
X344929Y323500D01*
Y328500D01*
X344954Y328262D01*
D02*
G37*
G36*
X389663Y332117D02*
X389576Y332042D01*
X389500Y331917D01*
X389434Y331742D01*
X389377Y331517D01*
X389332Y331242D01*
X389296Y330917D01*
X389255Y330117D01*
X389251Y329750D01*
X389255Y329383D01*
X389332Y328258D01*
X389377Y327983D01*
X389434Y327758D01*
X389500Y327583D01*
X389576Y327458D01*
X389663Y327383D01*
X389760Y327358D01*
X386240D01*
X386337Y327383D01*
X386424Y327458D01*
X386500Y327583D01*
X386566Y327758D01*
X386623Y327983D01*
X386668Y328258D01*
X386704Y328583D01*
X386745Y329383D01*
X386749Y329750D01*
X386745Y330117D01*
X386668Y331242D01*
X386623Y331517D01*
X386566Y331742D01*
X386500Y331917D01*
X386424Y332042D01*
X386337Y332117D01*
X386240Y332142D01*
X389760D01*
X389663Y332117D01*
D02*
G37*
G36*
X420755Y333396D02*
X420795Y332912D01*
X420830Y332697D01*
X420875Y332500D01*
X420930Y332321D01*
X420995Y332160D01*
X421070Y332017D01*
X421155Y331892D01*
X421250Y331785D01*
X417750D01*
X417845Y331892D01*
X417930Y332017D01*
X418005Y332160D01*
X418070Y332321D01*
X418125Y332500D01*
X418170Y332697D01*
X418205Y332912D01*
X418230Y333145D01*
X418250Y333665D01*
X420750D01*
X420755Y333396D01*
D02*
G37*
G36*
X383065Y323654D02*
X382915Y323770D01*
X382735Y323829D01*
X382526Y323830D01*
X382288Y323774D01*
X382019Y323660D01*
X381722Y323489D01*
X381654Y323442D01*
X382096Y323000D01*
X381856Y322966D01*
X381570Y322865D01*
X381239Y322697D01*
X380862Y322462D01*
X380439Y322159D01*
X379458Y321352D01*
X378296Y320276D01*
X377646Y319637D01*
X376232Y321051D01*
X376870Y321701D01*
X378753Y323845D01*
X379056Y324267D01*
X379292Y324644D01*
X379460Y324975D01*
X379561Y325261D01*
X379594Y325502D01*
X380050Y325046D01*
X380158Y325202D01*
X380329Y325499D01*
X380443Y325768D01*
X380503Y326009D01*
X380506Y326223D01*
X380454Y326410D01*
X380347Y326569D01*
X383065Y323654D01*
D02*
G37*
G36*
X353181Y332681D02*
X353256Y332256D01*
X353380Y331880D01*
X353555Y331556D01*
X353781Y331280D01*
X354056Y331055D01*
X354380Y330880D01*
X354755Y330755D01*
X355181Y330680D01*
X355656Y330656D01*
X354923Y328155D01*
X354431Y328138D01*
X353953Y328085D01*
X353489Y327996D01*
X353040Y327873D01*
X352606Y327714D01*
X352187Y327519D01*
X351782Y327289D01*
X351392Y327024D01*
X351016Y326724D01*
X350656Y326388D01*
X348888Y328155D01*
X349224Y328516D01*
X349524Y328892D01*
X349789Y329282D01*
X350019Y329687D01*
X350214Y330106D01*
X350373Y330540D01*
X350496Y330989D01*
X350585Y331453D01*
X350638Y331931D01*
X350656Y332423D01*
X353155Y333155D01*
X353181Y332681D01*
D02*
G37*
G36*
X353161Y356883D02*
X353237Y355758D01*
X353283Y355483D01*
X353339Y355258D01*
X353405Y355083D01*
X353482Y354958D01*
X353568Y354883D01*
X353665Y354858D01*
X350146D01*
X350243Y354883D01*
X350329Y354958D01*
X350406Y355083D01*
X350472Y355258D01*
X350528Y355483D01*
X350574Y355758D01*
X350610Y356083D01*
X350650Y356883D01*
X350656Y357358D01*
X353155D01*
X353161Y356883D01*
D02*
G37*
G36*
X414642Y381165D02*
X414654Y378500D01*
X414628Y378737D01*
X414552Y378950D01*
X414426Y379137D01*
X414249Y379300D01*
X414023Y379437D01*
X413747Y379550D01*
X413421Y379638D01*
X413044Y379700D01*
X412618Y379737D01*
X412142Y379750D01*
Y382250D01*
X414642Y381165D01*
D02*
G37*
G36*
X409389Y384194D02*
X409461Y383394D01*
X409524Y383069D01*
X409606Y382794D01*
X409705Y382569D01*
X409823Y382394D01*
X409958Y382269D01*
X410112Y382194D01*
X410283Y382169D01*
X405977D01*
X406148Y382194D01*
X406302Y382269D01*
X406437Y382394D01*
X406555Y382569D01*
X406654Y382794D01*
X406735Y383069D01*
X406799Y383394D01*
X406844Y383769D01*
X406871Y384194D01*
X406880Y384669D01*
X409380D01*
X409389Y384194D01*
D02*
G37*
G36*
X390256Y372690D02*
X390347Y371565D01*
X390402Y371290D01*
X390469Y371065D01*
X390548Y370890D01*
X390639Y370765D01*
X390742Y370690D01*
X390858Y370665D01*
X387142D01*
X387258Y370690D01*
X387361Y370765D01*
X387452Y370890D01*
X387531Y371065D01*
X387598Y371290D01*
X387653Y371565D01*
X387695Y371890D01*
X387744Y372690D01*
X387750Y373165D01*
X390250D01*
X390256Y372690D01*
D02*
G37*
G36*
X414642Y371740D02*
X414617Y371837D01*
X414542Y371924D01*
X414417Y372000D01*
X414242Y372066D01*
X414017Y372123D01*
X413742Y372168D01*
X413417Y372204D01*
X412617Y372245D01*
X412142Y372250D01*
Y374750D01*
X412617Y374755D01*
X413742Y374832D01*
X414017Y374877D01*
X414242Y374934D01*
X414417Y375000D01*
X414542Y375076D01*
X414617Y375163D01*
X414642Y375260D01*
Y371740D01*
D02*
G37*
G36*
X377690Y391742D02*
X377765Y391639D01*
X377890Y391548D01*
X378065Y391469D01*
X378290Y391402D01*
X378565Y391347D01*
X378890Y391305D01*
X379690Y391256D01*
X380165Y391250D01*
Y388750D01*
X379690Y388744D01*
X378565Y388653D01*
X378290Y388598D01*
X378065Y388531D01*
X377890Y388452D01*
X377765Y388361D01*
X377690Y388258D01*
X377665Y388142D01*
Y391858D01*
X377690Y391742D01*
D02*
G37*
G36*
X371615Y396622D02*
X371486Y396562D01*
X371372Y396462D01*
X371273Y396322D01*
X371190Y396142D01*
X371122Y395922D01*
X371068Y395662D01*
X371030Y395362D01*
X371008Y395022D01*
X371000Y394642D01*
X369000D01*
X368992Y395022D01*
X368932Y395662D01*
X368879Y395922D01*
X368810Y396142D01*
X368726Y396322D01*
X368628Y396462D01*
X368514Y396562D01*
X368385Y396622D01*
X368240Y396642D01*
X371760D01*
X371615Y396622D01*
D02*
G37*
G36*
X383784Y396000D02*
X383759Y396237D01*
X383683Y396450D01*
X383558Y396638D01*
X383382Y396800D01*
X383156Y396937D01*
X382879Y397050D01*
X382553Y397137D01*
X382176Y397200D01*
X381749Y397237D01*
X381272Y397250D01*
Y399750D01*
X381749Y399763D01*
X382176Y399800D01*
X382553Y399863D01*
X382879Y399950D01*
X383156Y400063D01*
X383382Y400200D01*
X383558Y400362D01*
X383683Y400550D01*
X383759Y400763D01*
X383784Y401000D01*
Y396000D01*
D02*
G37*
G36*
X371008Y393478D02*
X371068Y392838D01*
X371122Y392578D01*
X371190Y392358D01*
X371273Y392178D01*
X371372Y392038D01*
X371486Y391938D01*
X371615Y391878D01*
X371760Y391858D01*
X368240D01*
X368385Y391878D01*
X368514Y391938D01*
X368628Y392038D01*
X368726Y392178D01*
X368810Y392358D01*
X368879Y392578D01*
X368932Y392838D01*
X368970Y393138D01*
X368992Y393478D01*
X369000Y393858D01*
X371000D01*
X371008Y393478D01*
D02*
G37*
G36*
X377690Y400243D02*
X377765Y400139D01*
X377890Y400048D01*
X378065Y399969D01*
X378290Y399902D01*
X378565Y399847D01*
X378890Y399805D01*
X379690Y399756D01*
X380165Y399750D01*
Y397250D01*
X379690Y397244D01*
X378565Y397153D01*
X378290Y397098D01*
X378065Y397031D01*
X377890Y396952D01*
X377765Y396861D01*
X377690Y396758D01*
X377665Y396642D01*
X377568Y396617D01*
X377482Y396542D01*
X377405Y396417D01*
X377339Y396242D01*
X377283Y396017D01*
X377237Y395742D01*
X377201Y395417D01*
X377161Y394617D01*
X377157Y394250D01*
X377161Y393883D01*
X377237Y392758D01*
X377283Y392483D01*
X377339Y392258D01*
X377405Y392083D01*
X377482Y391958D01*
X377568Y391883D01*
X377665Y391858D01*
X374146D01*
X374243Y391883D01*
X374329Y391958D01*
X374406Y392083D01*
X374472Y392258D01*
X374528Y392483D01*
X374574Y392758D01*
X374610Y393083D01*
X374650Y393883D01*
X374654Y394250D01*
X374650Y394617D01*
X374574Y395742D01*
X374528Y396017D01*
X374472Y396242D01*
X374406Y396417D01*
X374329Y396542D01*
X374243Y396617D01*
X374146Y396642D01*
X377665D01*
Y400358D01*
X377690Y400243D01*
D02*
G37*
G36*
X387142Y361240D02*
X387122Y361385D01*
X387062Y361514D01*
X386962Y361628D01*
X386822Y361726D01*
X386642Y361810D01*
X386422Y361878D01*
X386162Y361932D01*
X385862Y361970D01*
X385522Y361992D01*
X385142Y362000D01*
Y364000D01*
X385522Y364008D01*
X386162Y364068D01*
X386422Y364122D01*
X386642Y364190D01*
X386822Y364274D01*
X386962Y364372D01*
X387062Y364486D01*
X387122Y364615D01*
X387142Y364760D01*
Y361240D01*
D02*
G37*
G36*
X398511Y365715D02*
X399250D01*
X399108Y365562D01*
X398980Y365399D01*
X398868Y365225D01*
X398770Y365041D01*
X398688Y364848D01*
X398740Y364720D01*
X398875Y364500D01*
X399040Y364320D01*
X399235Y364180D01*
X399460Y364080D01*
X399618Y364043D01*
X400752Y365221D01*
X402123Y363654D01*
X402104Y363646D01*
X402058Y363609D01*
X401985Y363544D01*
X400707Y362293D01*
X399477Y363582D01*
X397500Y362000D01*
X395250Y363500D01*
X393000Y362000D01*
X392858Y362095D01*
Y362000D01*
X392478Y361992D01*
X391838Y361932D01*
X391578Y361878D01*
X391358Y361810D01*
X391178Y361726D01*
X391038Y361628D01*
X390938Y361514D01*
X390878Y361385D01*
X390858Y361240D01*
Y363428D01*
X390000Y364000D01*
X390380Y364020D01*
X390720Y364080D01*
X390858Y364126D01*
Y364760D01*
X390878Y364615D01*
X390938Y364486D01*
X391038Y364372D01*
X391178Y364274D01*
X391186Y364270D01*
X391280Y364320D01*
X391500Y364500D01*
X391680Y364720D01*
X391820Y364980D01*
X391920Y365280D01*
X391980Y365620D01*
X392000Y366000D01*
X394000D01*
X394020Y365620D01*
X394080Y365280D01*
X394180Y364980D01*
X394320Y364720D01*
X394500Y364500D01*
X394720Y364320D01*
X394980Y364180D01*
X395250Y364090D01*
X395520Y364180D01*
X395780Y364320D01*
X396000Y364500D01*
X396180Y364720D01*
X396284Y364913D01*
X396230Y365041D01*
X396132Y365225D01*
X396020Y365399D01*
X395893Y365562D01*
X395750Y365715D01*
X396485D01*
X396500Y366000D01*
X398500D01*
X398511Y365715D01*
D02*
G37*
G36*
X354168Y361652D02*
X353956Y361577D01*
X353768Y361452D01*
X353606Y361276D01*
X353468Y361050D01*
X353356Y360773D01*
X353268Y360447D01*
X353205Y360070D01*
X353168Y359643D01*
X353155Y359166D01*
X350656D01*
X350643Y359643D01*
X350606Y360070D01*
X350543Y360447D01*
X350455Y360773D01*
X350343Y361050D01*
X350205Y361276D01*
X350043Y361452D01*
X349855Y361577D01*
X349643Y361652D01*
X349406Y361678D01*
X354405D01*
X354168Y361652D01*
D02*
G37*
G36*
X381878Y364615D02*
X381938Y364486D01*
X382038Y364372D01*
X382178Y364274D01*
X382358Y364190D01*
X382578Y364122D01*
X382838Y364068D01*
X383138Y364030D01*
X383478Y364008D01*
X383858Y364000D01*
Y362000D01*
X383478Y361992D01*
X382838Y361932D01*
X382578Y361878D01*
X382358Y361810D01*
X382178Y361726D01*
X382038Y361628D01*
X381938Y361514D01*
X381878Y361385D01*
X381858Y361240D01*
Y364760D01*
X381878Y364615D01*
D02*
G37*
G36*
X378142Y367146D02*
X378117Y367261D01*
X378042Y367363D01*
X377917Y367454D01*
X377742Y367532D01*
X377517Y367599D01*
X377242Y367653D01*
X376917Y367696D01*
X376117Y367744D01*
X375642Y367750D01*
Y370250D01*
X376117Y370254D01*
X377517Y370354D01*
X377742Y370399D01*
X377917Y370453D01*
X378042Y370516D01*
X378117Y370586D01*
X378142Y370665D01*
Y367146D01*
D02*
G37*
G36*
X410164Y372326D02*
X410057Y372251D01*
X409963Y372126D01*
X409881Y371951D01*
X409812Y371726D01*
X409756Y371451D01*
X409712Y371126D01*
X409662Y370326D01*
X409656Y369854D01*
X409661Y369383D01*
X409737Y368258D01*
X409783Y367983D01*
X409839Y367758D01*
X409905Y367583D01*
X409982Y367458D01*
X410068Y367383D01*
X410165Y367358D01*
X406646D01*
X406743Y367383D01*
X406829Y367458D01*
X406906Y367583D01*
X406972Y367758D01*
X407028Y367983D01*
X407074Y368258D01*
X407110Y368583D01*
X407150Y369383D01*
X407156Y369853D01*
X407144Y370326D01*
X407108Y370751D01*
X407049Y371126D01*
X406967Y371451D01*
X406861Y371726D01*
X406731Y371951D01*
X406578Y372126D01*
X406401Y372251D01*
X406201Y372326D01*
X405977Y372351D01*
X410283D01*
X410164Y372326D01*
D02*
G37*
G36*
X372165Y368335D02*
X372246Y368332D01*
X372314Y368326D01*
X372369Y368315D01*
X372410Y368300D01*
X372439Y368280D01*
X372454Y368256D01*
X372456Y368228D01*
X372445Y368195D01*
X372421Y368158D01*
X372384Y368116D01*
X372165Y368335D01*
X369503D01*
X369436Y368350D01*
X369408Y368396D01*
X369420Y368474D01*
X369472Y368582D01*
X369563Y368722D01*
X369694Y368892D01*
X370076Y369326D01*
X370616Y369884D01*
X372165Y368335D01*
D02*
G37*
G36*
X381883Y370586D02*
X381958Y370516D01*
X382083Y370453D01*
X382258Y370399D01*
X382483Y370354D01*
X382758Y370316D01*
X383458Y370267D01*
X384358Y370250D01*
Y367750D01*
X383883Y367744D01*
X382758Y367653D01*
X382483Y367599D01*
X382258Y367532D01*
X382083Y367454D01*
X381958Y367363D01*
X381883Y367261D01*
X381858Y367146D01*
Y370665D01*
X381883Y370586D01*
D02*
G37*
G36*
X387142Y367146D02*
X387117Y367261D01*
X387042Y367363D01*
X386917Y367454D01*
X386742Y367532D01*
X386517Y367599D01*
X386242Y367653D01*
X385917Y367696D01*
X385117Y367744D01*
X384642Y367750D01*
Y370250D01*
X385117Y370254D01*
X386517Y370354D01*
X386742Y370399D01*
X386917Y370453D01*
X387042Y370516D01*
X387117Y370586D01*
X387142Y370665D01*
Y367146D01*
D02*
G37*
D10*
X380000Y368905D02*
D03*
Y363000D02*
D03*
X413500Y341000D02*
D03*
Y346905D02*
D03*
X405500Y327000D02*
D03*
Y332906D02*
D03*
X386000Y342500D02*
D03*
Y348406D02*
D03*
X416500Y373500D02*
D03*
Y379405D02*
D03*
X389000Y363000D02*
D03*
Y368905D02*
D03*
D11*
X405130Y349000D02*
D03*
Y341520D02*
D03*
X394500D02*
D03*
Y349000D02*
D03*
Y345260D02*
D03*
X408130Y381000D02*
D03*
Y373520D02*
D03*
X397500D02*
D03*
Y381000D02*
D03*
Y377260D02*
D03*
D12*
X382095Y325500D02*
D03*
X388000D02*
D03*
X382095Y334000D02*
D03*
X388000D02*
D03*
X402500Y365500D02*
D03*
X408405D02*
D03*
X370000Y398500D02*
D03*
X375905D02*
D03*
X370000Y390000D02*
D03*
X375905D02*
D03*
X346000Y353000D02*
D03*
X351905D02*
D03*
D13*
X351752Y365000D02*
D03*
X367500D02*
D03*
D14*
X397500Y363000D02*
Y367500D01*
Y363000D02*
X400000D01*
X393000D02*
X397500D01*
X389000D02*
X393000D01*
Y375500D01*
X394760Y377260D01*
X397500D01*
X400000Y363000D02*
X402500Y365500D01*
X380000Y363000D02*
X389000D01*
X370000Y390000D02*
Y398500D01*
X374000Y317500D02*
X374095D01*
X382095Y325500D01*
X405500Y320000D02*
Y327000D01*
X386000Y342500D02*
X389000D01*
X391760Y345260D01*
X394500D01*
X370000Y379500D02*
Y390000D01*
D15*
X378218Y342500D02*
X382000D01*
X382095Y334000D02*
Y342406D01*
Y325500D02*
Y334000D01*
X382000Y342500D02*
X382095Y342406D01*
X336500Y317500D02*
X353218D01*
X378218Y342500D01*
X334500Y319500D02*
X336500Y317500D01*
X334500Y319500D02*
Y334000D01*
X336500Y336000D01*
X342000D01*
Y349000D02*
X346000Y353000D01*
X342000Y336000D02*
Y349000D01*
D16*
X397000Y330000D02*
Y333000D01*
X394000Y336000D02*
X397000Y333000D01*
X390000Y336000D02*
X394000D01*
X388000Y334000D02*
X390000Y336000D01*
X371500Y369000D02*
X388906D01*
X389000Y368905D01*
X367500Y365000D02*
X371500Y369000D01*
X377406Y348406D02*
X386000D01*
X358405Y329405D02*
X377406Y348406D01*
X351905Y329405D02*
X358405D01*
X391500Y381000D02*
X397500D01*
X389000Y378500D02*
X391500Y381000D01*
X389000Y368905D02*
Y378500D01*
X403000Y374500D02*
Y379500D01*
X387657Y315220D02*
X388000Y315563D01*
Y325500D01*
Y334000D01*
X419500Y330000D02*
Y345500D01*
X418094Y346905D02*
X419500Y345500D01*
X413500Y346905D02*
X418094D01*
X405130Y333276D02*
X405500Y332906D01*
X405130Y333276D02*
Y341520D01*
X405650Y341000D01*
X413500D01*
X411406Y349000D02*
X413500Y346905D01*
X405130Y349000D02*
X411406D01*
X386000Y348691D02*
X398309D01*
X400000Y347000D01*
Y343500D02*
Y347000D01*
X398020Y341520D02*
X400000Y343500D01*
X394500Y341520D02*
X398020D01*
X386709Y398500D02*
X386713Y398504D01*
X375905Y398500D02*
X386709D01*
X375905Y390000D02*
Y398500D01*
Y390000D02*
X403500D01*
X408130Y385370D01*
Y381000D02*
Y385370D01*
X408405Y365500D02*
Y373244D01*
X408150Y373500D02*
X408405Y373244D01*
X408150Y373500D02*
X416500D01*
X414906Y381000D02*
X416500Y379405D01*
X408130Y381000D02*
X414906D01*
X397500D02*
X401500D01*
X403000Y379500D01*
X402020Y373520D02*
X403000Y374500D01*
X397500Y373520D02*
X402020D01*
X386000Y348406D02*
Y348691D01*
X351905Y329405D02*
Y336906D01*
X351752Y365000D02*
X351905Y364846D01*
Y329405D02*
Y364846D01*
X348500Y326000D02*
X351905Y329405D01*
X342000Y326000D02*
X348500D01*
D17*
X342000Y336000D02*
D03*
X397657Y315220D02*
D03*
X339398Y384528D02*
D03*
X349398Y394528D02*
D03*
X339398D02*
D03*
X396713Y398504D02*
D03*
D18*
X342000Y326000D02*
D03*
X349398Y384528D02*
D03*
D19*
X387657Y315220D02*
D03*
X386713Y398504D02*
D03*
D20*
X397500Y367500D02*
D03*
X374000Y317500D02*
D03*
X405500Y320000D02*
D03*
X397000Y330000D02*
D03*
X419500D02*
D03*
X370000Y379500D02*
D03*
M02*
