G04 Layer_Color=65535*
%FSLAX25Y25*%
%MOIN*%
G70*
G01*
G75*
%ADD21C,0.00787*%
%ADD22C,0.00394*%
%ADD23C,0.01000*%
%ADD24C,0.00800*%
D21*
X337000Y321000D02*
Y341000D01*
Y321000D02*
X347000D01*
Y341000D01*
X337000D02*
X347000D01*
X382658Y320220D02*
X402658D01*
X382658Y310221D02*
Y320220D01*
Y310221D02*
X402658D01*
Y320220D01*
X354398Y379528D02*
Y399528D01*
X334398D02*
X354398D01*
X334398Y379528D02*
X354398D01*
X334398D02*
Y399528D01*
X381713Y393504D02*
X401713D01*
D22*
X359000Y349000D02*
X362000Y352000D01*
X359000Y309500D02*
Y349000D01*
Y309500D02*
X362500Y306000D01*
X418500D01*
X420500Y308000D01*
Y350500D01*
X419000Y352000D02*
X420500Y350500D01*
X362000Y352000D02*
X419000D01*
X359500Y359500D02*
X362000Y357000D01*
X359500Y359500D02*
Y400500D01*
X362500Y403500D01*
X418500D01*
X421000Y401000D01*
Y359000D02*
Y401000D01*
X419000Y357000D02*
X421000Y359000D01*
X362000Y357000D02*
X419000D01*
D23*
X376850Y359850D02*
Y364968D01*
Y359850D02*
X383150D01*
Y364968D01*
Y366937D02*
Y371661D01*
Y372055D01*
X376850D02*
X383150D01*
X376850Y366937D02*
Y372055D01*
X410350Y344937D02*
Y350055D01*
X416650D01*
Y349661D02*
Y350055D01*
Y344937D02*
Y349661D01*
Y337850D02*
Y342969D01*
X410350Y337850D02*
X416650D01*
X410350D02*
Y342969D01*
X391350Y339158D02*
X408280D01*
X391350D02*
Y351362D01*
X408280D01*
Y339158D02*
Y351362D01*
X402350Y330937D02*
Y336055D01*
X408650D01*
Y335661D02*
Y336055D01*
Y330937D02*
Y335661D01*
Y323850D02*
Y328969D01*
X402350Y323850D02*
X408650D01*
X402350D02*
Y328969D01*
X386032Y328650D02*
X391150D01*
Y322350D02*
Y328650D01*
X390756Y322350D02*
X391150D01*
X386032D02*
X390756D01*
X378945D02*
X384063D01*
X378945D02*
Y328650D01*
X384063D01*
X386032Y337150D02*
X391150D01*
Y330850D02*
Y337150D01*
X390756Y330850D02*
X391150D01*
X386032D02*
X390756D01*
X378945D02*
X384063D01*
X378945D02*
Y337150D01*
X384063D01*
X382850Y346437D02*
Y351555D01*
X389150D01*
Y351161D02*
Y351555D01*
Y346437D02*
Y351161D01*
Y339350D02*
Y344468D01*
X382850Y339350D02*
X389150D01*
X382850D02*
Y344468D01*
X406437Y368650D02*
X411555D01*
Y362350D02*
Y368650D01*
X411161Y362350D02*
X411555D01*
X406437D02*
X411161D01*
X399350D02*
X404468D01*
X399350D02*
Y368650D01*
X404468D01*
X373937Y401650D02*
X379055D01*
Y395350D02*
Y401650D01*
X378661Y395350D02*
X379055D01*
X373937D02*
X378661D01*
X366850D02*
X371969D01*
X366850D02*
Y401650D01*
X371969D01*
X413350Y377437D02*
Y382555D01*
X419650D01*
Y382161D02*
Y382555D01*
Y377437D02*
Y382161D01*
Y370350D02*
Y375468D01*
X413350Y370350D02*
X419650D01*
X413350D02*
Y375468D01*
X394350Y371158D02*
X411279D01*
X394350D02*
Y383362D01*
X411279D01*
Y371158D02*
Y383362D01*
X385850Y366937D02*
Y372055D01*
X392150D01*
Y371661D02*
Y372055D01*
Y366937D02*
Y371661D01*
Y359850D02*
Y364968D01*
X385850Y359850D02*
X392150D01*
X385850D02*
Y364968D01*
X373937Y393150D02*
X379055D01*
Y386850D02*
Y393150D01*
X378661Y386850D02*
X379055D01*
X373937D02*
X378661D01*
X366850D02*
X371969D01*
X366850D02*
Y393150D01*
X371969D01*
X373406Y359095D02*
Y370905D01*
X346240D02*
X373406D01*
X345847D02*
X346240D01*
X345847Y359095D02*
Y370905D01*
Y359095D02*
X373406D01*
X374193D02*
Y370905D01*
X349937Y356150D02*
X355055D01*
Y349850D02*
Y356150D01*
X354661Y349850D02*
X355055D01*
X349937D02*
X354661D01*
X342850D02*
X347969D01*
X342850D02*
Y356150D01*
X347969D01*
X369499Y355998D02*
X368499Y356998D01*
X366500D01*
X365500Y355998D01*
Y352000D01*
X366500Y351000D01*
X368499D01*
X369499Y352000D01*
X371498Y351000D02*
X373497D01*
X372498D01*
Y356998D01*
X371498Y355998D01*
X376496D02*
X377496Y356998D01*
X379496D01*
X380495Y355998D01*
Y352000D01*
X379496Y351000D01*
X377496D01*
X376496Y352000D01*
Y355998D01*
X372499Y327998D02*
X371499Y328998D01*
X369500D01*
X368500Y327998D01*
Y324000D01*
X369500Y323000D01*
X371499D01*
X372499Y324000D01*
X374498Y323000D02*
X376497D01*
X375498D01*
Y328998D01*
X374498Y327998D01*
X375999Y344998D02*
X374999Y345998D01*
X373000D01*
X372000Y344998D01*
Y341000D01*
X373000Y340000D01*
X374999D01*
X375999Y341000D01*
X381997Y340000D02*
X377998D01*
X381997Y343999D01*
Y344998D01*
X380997Y345998D01*
X378998D01*
X377998Y344998D01*
X370499Y335998D02*
X369499Y336998D01*
X367500D01*
X366500Y335998D01*
Y332000D01*
X367500Y331000D01*
X369499D01*
X370499Y332000D01*
X372498Y335998D02*
X373498Y336998D01*
X375497D01*
X376497Y335998D01*
Y334999D01*
X375497Y333999D01*
X374497D01*
X375497D01*
X376497Y332999D01*
Y332000D01*
X375497Y331000D01*
X373498D01*
X372498Y332000D01*
X358499Y392498D02*
X357499Y393498D01*
X355500D01*
X354500Y392498D01*
Y388500D01*
X355500Y387500D01*
X357499D01*
X358499Y388500D01*
X363497Y387500D02*
Y393498D01*
X360498Y390499D01*
X364497D01*
X363999Y346498D02*
X362999Y347498D01*
X361000D01*
X360000Y346498D01*
Y342500D01*
X361000Y341500D01*
X362999D01*
X363999Y342500D01*
X369997Y347498D02*
X365998D01*
Y344499D01*
X367997Y345499D01*
X368997D01*
X369997Y344499D01*
Y342500D01*
X368997Y341500D01*
X366998D01*
X365998Y342500D01*
X386499Y357498D02*
X385499Y358498D01*
X383500D01*
X382500Y357498D01*
Y353500D01*
X383500Y352500D01*
X385499D01*
X386499Y353500D01*
X392497Y358498D02*
X390497Y357498D01*
X388498Y355499D01*
Y353500D01*
X389498Y352500D01*
X391497D01*
X392497Y353500D01*
Y354499D01*
X391497Y355499D01*
X388498D01*
X360499Y401998D02*
X359499Y402998D01*
X357500D01*
X356500Y401998D01*
Y398000D01*
X357500Y397000D01*
X359499D01*
X360499Y398000D01*
X362498Y402998D02*
X366497D01*
Y401998D01*
X362498Y398000D01*
Y397000D01*
X357000Y379998D02*
Y374000D01*
X359999D01*
X360999Y375000D01*
Y378998D01*
X359999Y379998D01*
X357000D01*
X362998Y374000D02*
X364997D01*
X363998D01*
Y379998D01*
X362998Y378998D01*
X340000Y311500D02*
Y317498D01*
X342999D01*
X343999Y316498D01*
Y314499D01*
X342999Y313499D01*
X340000D01*
X345998Y311500D02*
X347997D01*
X346998D01*
Y317498D01*
X345998Y316498D01*
X410900Y353600D02*
Y359598D01*
X413899D01*
X414899Y358598D01*
Y356599D01*
X413899Y355599D01*
X410900D01*
X412899D02*
X414899Y353600D01*
X416898D02*
X418897D01*
X417898D01*
Y359598D01*
X416898Y358598D01*
X407000Y317000D02*
Y322998D01*
X409999D01*
X410999Y321998D01*
Y319999D01*
X409999Y318999D01*
X407000D01*
X408999D02*
X410999Y317000D01*
X416997D02*
X412998D01*
X416997Y320999D01*
Y321998D01*
X415997Y322998D01*
X413998D01*
X412998Y321998D01*
X412000Y362000D02*
Y367998D01*
X414999D01*
X415999Y366998D01*
Y364999D01*
X414999Y363999D01*
X412000D01*
X413999D02*
X415999Y362000D01*
X417998Y366998D02*
X418998Y367998D01*
X420997D01*
X421997Y366998D01*
Y365999D01*
X420997Y364999D01*
X419997D01*
X420997D01*
X421997Y363999D01*
Y363000D01*
X420997Y362000D01*
X418998D01*
X417998Y363000D01*
X402000Y355000D02*
Y360998D01*
X404999D01*
X405999Y359998D01*
Y357999D01*
X404999Y356999D01*
X402000D01*
X403999D02*
X405999Y355000D01*
X410997D02*
Y360998D01*
X407998Y357999D01*
X411997D01*
X394000Y358998D02*
Y354000D01*
X395000Y353000D01*
X396999D01*
X397999Y354000D01*
Y358998D01*
X399998Y353000D02*
X401997D01*
X400998D01*
Y358998D01*
X399998Y357998D01*
X408500Y391998D02*
Y387000D01*
X409500Y386000D01*
X411499D01*
X412499Y387000D01*
Y391998D01*
X418497Y386000D02*
X414498D01*
X418497Y389999D01*
Y390998D01*
X417497Y391998D01*
X415498D01*
X414498Y390998D01*
X334000Y368000D02*
Y373998D01*
X336999D01*
X337999Y372998D01*
Y370999D01*
X336999Y369999D01*
X334000D01*
X343997Y368000D02*
X339998D01*
X343997Y371999D01*
Y372998D01*
X342997Y373998D01*
X340998D01*
X339998Y372998D01*
X405500Y395500D02*
Y401498D01*
X408499D01*
X409499Y400498D01*
Y398499D01*
X408499Y397499D01*
X405500D01*
X414497Y395500D02*
Y401498D01*
X411498Y398499D01*
X415497D01*
X369657Y312221D02*
Y318218D01*
X372656D01*
X373656Y317219D01*
Y315219D01*
X372656Y314220D01*
X369657D01*
X375656Y317219D02*
X376655Y318218D01*
X378655D01*
X379654Y317219D01*
Y316219D01*
X378655Y315219D01*
X377655D01*
X378655D01*
X379654Y314220D01*
Y313220D01*
X378655Y312221D01*
X376655D01*
X375656Y313220D01*
D24*
X347232Y400528D02*
X346399Y401361D01*
Y403027D01*
X347232Y403860D01*
X348065D01*
X348899Y403027D01*
Y402194D01*
Y403027D01*
X349731Y403860D01*
X350565D01*
X351398Y403027D01*
Y401361D01*
X350565Y400528D01*
X341398Y403027D02*
X336399D01*
X338898Y400528D01*
Y403860D01*
X341398Y377860D02*
Y374528D01*
X338065Y377860D01*
X337232D01*
X336399Y377027D01*
Y375361D01*
X337232Y374528D01*
X351398Y376528D02*
Y378194D01*
Y377361D01*
X346399D01*
X347232Y376528D01*
M02*
